<svg width="16" height="16" viewBox="0 0 16 16" fill="none" xmlns="http://www.w3.org/2000/svg">
<path d="M14.495 8.22044L8.495 1.55377C8.24233 1.27244 7.757 1.27244 7.50433 1.55377L1.50433 8.22044C1.41797 8.31617 1.36128 8.43493 1.34116 8.56228C1.32104 8.68963 1.33835 8.82008 1.391 8.93777C1.49766 9.17844 1.73633 9.33311 1.99966 9.33311H3.333V13.9998C3.333 14.1766 3.40324 14.3462 3.52826 14.4712C3.65328 14.5962 3.82285 14.6664 3.99966 14.6664H5.99966C6.17648 14.6664 6.34604 14.5962 6.47107 14.4712C6.59609 14.3462 6.66633 14.1766 6.66633 13.9998V11.3331H9.333V13.9998C9.333 14.1766 9.40324 14.3462 9.52826 14.4712C9.65328 14.5962 9.82285 14.6664 9.99966 14.6664H11.9997C12.1765 14.6664 12.346 14.5962 12.4711 14.4712C12.5961 14.3462 12.6663 14.1766 12.6663 13.9998V9.33311H13.9997C14.1288 9.33366 14.2553 9.29663 14.3637 9.22654C14.4721 9.15645 14.5578 9.05632 14.6103 8.93837C14.6628 8.82042 14.6799 8.68973 14.6594 8.56226C14.6389 8.43478 14.5818 8.31601 14.495 8.22044Z" fill="#212C4C"/>
</svg>
