<svg width="774" height="928" viewBox="0 0 774 928" fill="none" xmlns="http://www.w3.org/2000/svg">
<path opacity="0.07" fill-rule="evenodd" clip-rule="evenodd" d="M473.787 360.978C473.416 359.923 473.056 358.861 472.706 357.793C459.249 316.635 464.21 273.775 483.056 238.221C487.292 246.101 490.889 254.372 493.697 262.959C506.136 300.788 503.113 340.95 485.317 376.534C481.785 371.106 477.933 365.913 473.787 360.978ZM506.17 384.15C501.513 383.51 496.804 383.07 492.055 382.839C494.327 378.475 496.385 374.044 498.231 369.556C516.243 346.682 540.956 328.68 570.665 318.928C584.884 314.284 599.449 311.755 613.988 311.319C614.361 311.953 614.729 312.59 615.092 313.23C596.148 343.884 567.32 366.68 532.651 378.003C523.872 380.878 515.016 382.913 506.17 384.15ZM463.4 384.048C467.453 383.497 471.536 383.095 475.642 382.839C461.475 361.074 441.693 343.282 418.283 331.449C399.797 322.122 380.101 316.767 359.628 315.644C361.59 319.519 363.367 323.474 364.972 327.464C389.386 358.265 424.844 378.472 463.4 384.048ZM367.8 335.018C390.594 361.062 421.52 378.738 455.244 385.367C448.458 386.643 441.771 388.355 435.215 390.526C410.163 398.731 387.79 412.895 369.822 431.637C379.065 400.631 378.633 368.156 368.526 337.15C368.289 336.439 368.047 335.729 367.8 335.018ZM360.157 288.747C357.03 292.72 354.085 296.853 351.335 301.134C348.649 296.933 345.785 292.886 342.758 288.999C341.619 286.128 340.559 283.206 339.582 280.233C325.977 238.709 331.199 195.445 350.54 159.739C351.201 159.735 351.862 159.734 352.523 159.739C356.772 167.623 360.382 175.99 363.264 184.797C374.496 219.173 373.36 255.576 360.157 288.747ZM378.639 306.206C372.488 305.128 366.262 304.414 359.974 304.071C378.546 276.087 406.189 255.013 438.065 244.562C452.001 239.946 466.509 237.532 481.191 237.162C462.223 267.312 433.599 289.701 399.277 300.962C392.463 303.198 385.57 304.945 378.639 306.206ZM383.742 307.188C389.128 306.035 394.486 304.593 399.795 302.862C430.784 292.739 457.228 273.528 476.227 247.795C461.572 281.141 458.502 319.711 470.324 356.993C457.173 342.357 441.331 330.194 423.466 321.172C410.706 314.737 397.419 310.054 383.742 307.188ZM365.249 282.6C376.156 250.838 376.426 216.552 365.769 184.019C364.355 179.7 362.768 175.484 361.019 171.376C373.387 187.885 389.085 201.877 407.493 212.521C422.949 221.447 439.523 227.562 456.562 230.774C449.378 232.066 442.283 233.845 435.301 236.098C408.114 245 383.922 261.174 365.249 282.6ZM474.987 210.174C459.36 168.831 461.556 121.119 485.026 79.8484C489.909 88.4839 494.019 97.7201 497.237 107.496C510.021 146.448 506.825 187.992 488.339 224.526C487.888 225.418 487.429 226.304 486.962 227.184C483.319 221.2 479.314 215.524 474.987 210.174ZM508.803 230.141C502.228 229.131 495.538 228.527 488.763 228.35C507.13 199.128 535.382 175.896 570.665 164.327C586.133 159.255 601.842 156.789 617.312 156.688C593.082 197.629 552.599 223.263 508.803 230.141ZM500.987 256.704C512.044 269.62 525.425 280.914 540.95 289.908C559.479 300.675 579.561 307.351 600.194 309.816C590.048 311.003 579.875 313.213 569.801 316.509C542.249 325.527 518.917 341.554 501.129 361.97C512.677 329.276 513.165 293.978 502.162 260.195C501.786 259.027 501.394 257.864 500.987 256.704ZM499.615 252.968C497.595 247.695 495.248 242.504 492.574 237.394C542.357 240.05 587.103 267.434 612.52 308.873C610.996 308.928 609.469 309.006 607.941 309.107C584.812 307.517 562.191 300.647 541.555 288.699C525.062 279.131 511.007 266.945 499.615 252.968ZM605.999 284.569C582.402 256.692 549.599 237.461 512.974 230.838C517.014 230.084 521.046 229.162 525.062 228.067C560.479 218.584 590.749 197.451 611.611 167.848C602.18 188.181 597.194 210.424 597.194 232.904C597.176 251.006 600.281 268.398 605.999 284.569ZM620.23 304.266C616.657 298.423 612.727 292.848 608.473 287.566C602.005 270.571 598.471 252.142 598.49 232.904C598.49 206.492 605.378 180.495 618.34 157.515C623.176 166.095 627.248 175.266 630.438 184.969C643.136 223.835 640.026 265.292 621.54 301.739C621.111 302.587 620.674 303.429 620.23 304.266ZM622.926 308.845C622.565 308.207 622.2 307.573 621.83 306.941C648.702 263.47 696.619 234.216 751.048 233.687C730.452 268.73 697.5 293.794 658.174 304.245C648.376 306.843 638.479 308.465 628.594 309.125C626.71 308.997 624.82 308.904 622.926 308.845ZM632.849 329.808C630.382 323.43 627.529 317.273 624.321 311.361C646.037 312.193 667.498 317.704 687.457 327.824C713.991 341.277 735.583 361.641 750.266 386.715C702.918 386.143 660.672 364.056 632.849 329.808ZM616.636 316.019C605.519 337.076 599.155 360.985 598.999 386.294C598.875 406.572 602.699 425.969 609.75 443.753C612.658 447.486 615.413 451.366 618.004 455.389C636.49 419.373 639.773 378.693 627.074 340.345C624.295 331.846 620.788 323.717 616.636 316.019ZM633.354 442.674C645.898 409.155 646.877 372.035 635.626 337.582C635.17 336.192 634.696 334.812 634.204 333.442C659.786 363.458 696.596 383.633 738.073 387.388C702.179 390.691 668.886 406.24 643.138 431.983C639.694 435.416 636.431 438.984 633.354 442.674ZM623.909 463.29C626.699 458.197 629.195 452.977 631.393 447.656C659.157 412.031 702.221 388.823 750.443 388.122C731.531 420.198 701.961 444.004 666.206 455.735C652.186 460.333 637.968 462.791 623.909 463.29ZM631.984 482.314C629.668 476.594 627.028 470.983 624.065 465.56C675.66 467.575 723.726 495.729 750.337 540.966C702.332 540.224 659.674 517.419 631.984 482.314ZM612.406 463.263C569.616 461.544 529.235 441.837 501.543 409.314C499.385 403.465 496.871 397.651 494.042 391.994C542.936 395.162 586.822 421.582 612.406 463.263ZM607.051 440.383C583.483 411.769 550.711 392.421 514.321 385.487C520.734 384.251 527.145 382.596 533.515 380.508C565.165 370.121 592.096 350.352 611.191 323.826C602.485 343.226 597.841 364.405 597.703 386.294C597.569 405.286 600.88 423.513 607.051 440.383ZM612.358 465.554C593.762 495.71 565.13 518.323 531.447 529.407C519.266 533.38 506.654 535.798 493.87 536.575C493.87 536.532 493.891 536.511 493.913 536.489C493.934 536.467 493.956 536.446 493.956 536.403C496.797 530.784 499.293 525.053 501.441 519.235C519.521 497.971 543.167 482.03 570.4 473.095C584.312 468.538 598.413 466.082 612.358 465.554ZM513.855 543.011C520.787 541.732 527.604 539.987 534.297 537.785C562.836 528.417 588.057 511.114 607.07 488.133C600.966 504.743 597.728 522.451 597.613 540.635C597.448 564.058 602.524 586.318 611.741 606.305C588.407 573.129 553.001 550.63 513.855 543.011ZM498.118 559.033C496.274 554.477 494.195 549.945 491.883 545.471C496.852 545.266 501.771 544.83 506.637 544.167C522.744 546.547 538.532 551.54 553.478 559.118C579.149 572.134 600.194 591.618 614.832 615.578C614.509 616.146 614.182 616.712 613.852 617.274C568.689 615.909 526.084 594.44 498.118 559.033ZM471.021 514.765C449.455 489.792 420.334 471.885 387.962 464.026C392.541 462.989 396.687 461.866 400.747 460.484C428.14 451.495 452.551 435.139 471.26 413.504C460.474 444.56 459.38 479.249 470.373 512.826C470.585 513.475 470.801 514.121 471.021 514.765ZM476.227 521.121C475.054 518.179 473.966 515.183 472.965 512.135C472.965 512.135 472.954 512.124 472.941 512.107C472.934 512.099 472.927 512.09 472.921 512.08L472.915 512.071L472.911 512.065L472.907 512.058C472.906 512.055 472.904 512.052 472.902 512.048L472.898 512.04L472.896 512.035L472.892 512.026C472.89 512.02 472.887 512.014 472.886 512.008C472.884 512.003 472.883 511.997 472.881 511.992C472.88 511.986 472.879 511.981 472.879 511.975L472.878 511.967L472.878 511.962C461.219 476.378 463.369 439.535 476.387 407.258C478.945 403.974 481.378 400.582 483.676 397.09C487.045 403.74 489.896 410.65 492.228 417.818C504.581 455.475 501.471 495.723 483.59 531.134C483.59 531.221 483.503 531.221 483.503 531.307C481.209 527.807 478.78 524.41 476.227 521.121ZM503.138 514.403C513.9 482.127 514.102 447.421 503.372 414.536L503.33 414.412C528.778 442.387 563.795 460.243 601.349 464.449C590.819 465.599 580.253 467.851 569.795 471.281C543.81 479.77 521.021 494.648 503.138 514.403ZM455.362 542.875C448.859 544.112 442.363 545.778 435.909 547.89C408.887 556.758 385.306 572.464 367.103 593.375C378.135 561.956 379.008 528.226 369.476 495.982C392.465 520.26 422.684 536.653 455.362 542.875ZM364.428 600.458C382.876 577.12 407.746 559.674 436.686 550.222C445.292 547.412 454.024 545.376 462.8 544.11C466.993 544.703 471.219 545.13 475.47 545.385C456.897 573.887 430.031 594.529 397.465 605.239C385.025 609.298 372.068 611.716 359.024 612.407C360.995 608.474 362.797 604.488 364.428 600.458ZM383.069 620.883C389.156 619.653 395.14 618.063 401.006 616.121C428.259 607.195 451.808 591.803 470.357 570.998C460.201 602.09 460.128 635.52 470.539 667.166C472.091 671.902 473.851 676.512 475.804 680.992C461.546 661.494 442.773 645.49 420.621 634.26C408.563 628.148 395.954 623.68 383.069 620.883ZM342.228 638.777C345.27 634.886 348.137 630.842 350.817 626.658C353.38 630.677 356.106 634.557 358.983 638.291C360.21 641.351 361.345 644.471 362.386 647.647C375.085 686.513 371.975 727.97 353.489 764.418C352.839 765.699 352.173 766.969 351.491 768.227C350.831 768.231 350.171 768.23 349.512 768.225C345.292 760.34 341.736 752.025 338.899 743.343C327.605 708.775 328.816 672.158 342.228 638.777ZM334.772 593.596C334.649 593.245 334.526 592.894 334.404 592.542L333.799 590.815C333.756 590.685 333.713 590.577 333.67 590.469C333.627 590.362 333.583 590.254 333.54 590.124L333.195 589.174C323.52 558.599 323.261 526.729 332.331 496.328C314.363 515.156 291.903 529.32 267.024 537.525C260.469 539.681 253.734 541.388 246.889 542.659C280.836 549.359 311.945 567.254 334.772 593.596ZM239.107 543.91C277.819 549.643 313.371 570.119 337.683 601.245C339.216 604.999 340.887 608.702 342.697 612.321C295.531 609.557 252.598 584.683 226.856 545.126C230.96 544.868 235.048 544.463 239.107 543.91ZM230.99 569.795C253.922 595.822 284.759 613.683 318.862 620.687C313.235 621.869 307.641 623.369 302.102 625.191C270.942 635.371 244.376 654.738 225.356 680.686C240.312 646.875 243.335 607.651 230.99 569.795ZM194.85 543.866C199.858 544.584 204.914 545.063 210.011 545.299C207.779 549.597 205.753 553.959 203.934 558.375C185.459 581.885 160.487 599.456 131.405 608.954C116.952 613.688 102.288 616.142 87.8058 616.515C87.4847 615.961 87.1671 615.406 86.8528 614.847C105.173 585.169 133.655 561.558 169.317 549.878C177.782 547.105 186.32 545.115 194.85 543.866ZM230.782 514.589C249.533 492.939 273.943 476.579 301.405 467.567C305.465 466.185 309.612 465.062 313.931 464.026C302.01 461.089 290.521 456.857 279.636 451.329C261.006 441.886 244.555 429.005 231.156 413.519C231.339 414.058 231.519 414.6 231.697 415.143C242.699 448.784 241.594 483.512 230.782 514.589ZM226.099 407.366C227.207 410.168 228.239 413.02 229.192 415.92C240.517 450.582 239.268 487.304 225.753 520.696C223.202 523.956 220.774 527.323 218.476 530.789C215.107 524.138 212.343 517.315 210.011 510.319C197.658 472.662 200.768 432.587 218.735 397.09C221.051 400.616 223.508 404.044 226.099 407.366ZM199.31 413.507C188.402 445.899 188.173 480.705 199.04 513.86C199.104 514.053 199.169 514.246 199.234 514.438C186.491 500.188 171.064 488.296 153.516 479.401C137.108 471.083 119.679 465.81 101.924 463.65C112.163 462.435 122.373 460.178 132.446 456.858C158.531 448.336 181.396 433.376 199.31 413.507ZM204.157 369.139C205.95 373.579 207.953 377.966 210.183 382.321C205.066 382.567 199.949 383.056 194.859 383.786C178.984 381.368 163.425 376.408 148.685 368.935C123.046 355.936 102.022 336.485 87.3859 312.566C87.7558 311.913 88.1303 311.264 88.5091 310.618C133.655 312.075 176.223 333.624 204.157 369.139ZM231.73 357.593C242.009 326.394 242.076 292.839 231.615 260.973C230.112 256.376 228.413 251.896 226.53 247.54C240.745 266.821 259.391 282.656 281.362 293.794C293.456 299.958 306.123 304.43 319.063 307.21C313.069 308.44 307.145 310.013 301.319 311.93C274.439 320.754 250.396 336.617 231.73 357.593ZM240.169 383.825C235.853 383.201 231.5 382.756 227.115 382.493C245.515 354.424 273.071 333.35 304.947 322.899C317.3 318.84 330.085 316.421 343.042 315.73C341.03 319.716 339.194 323.759 337.535 327.848C319.107 351.059 294.312 368.413 265.477 377.831C257.135 380.556 248.675 382.552 240.169 383.825ZM247.879 385.139C254.074 383.916 260.239 382.315 266.341 380.336C293.145 371.539 316.565 356.014 334.706 335.354C323.888 366.402 323.029 399.795 332.417 431.724C319.978 418.509 305.379 407.713 288.966 399.335C275.839 392.685 262.081 387.927 247.879 385.139ZM228.281 361.601C224.334 366.345 220.653 371.329 217.267 376.534C213.984 369.97 211.22 363.147 208.974 356.324C196.535 318.321 199.645 277.728 217.699 241.971C218.131 241.108 218.584 240.265 219.038 239.423C219.299 238.938 219.56 238.453 219.817 237.964C223.737 245.425 227.089 253.309 229.801 261.578C240.64 294.6 239.993 329.485 228.281 361.601ZM202.338 254.782C190.161 287.671 189.254 323.38 199.99 357.274L200.508 359.001C200.508 359.037 200.523 359.087 200.541 359.147C200.565 359.231 200.595 359.332 200.595 359.433L201.027 360.728C201.122 361.007 201.218 361.286 201.314 361.565C175.476 331.904 139.111 313.02 100.051 308.863C121.182 306.667 141.838 300.102 160.779 289.39C177.018 280.109 190.94 268.318 202.338 254.782ZM214.094 228.001C207.912 228.143 201.745 228.634 195.628 229.479C152.358 223.152 112.107 198.631 87.3937 159.224C86.8198 158.145 86.2324 157.071 85.6316 156.002C137.495 156.565 186.321 183.622 214.094 228.001ZM226.752 211.22C222.829 216.193 219.19 221.419 215.861 226.876C211.879 219.295 208.502 211.325 205.776 203.02C191.822 160.48 197.591 116.123 218.041 79.8929C218.349 80.4154 218.661 80.936 218.975 81.4545C241.488 122.807 242.921 170.277 226.752 211.22ZM244.479 230.222C261.811 227.167 278.683 221.138 294.492 212.262C314.53 200.81 331.04 185.536 343.633 167.878C327.877 202.256 324.499 242.415 337.163 281.097C337.361 281.703 337.562 282.306 337.767 282.907C313.742 255.022 280.85 236.418 244.479 230.222ZM221.621 236.905C270.058 238.261 315.974 263.737 342.697 304.157C336.508 304.499 330.353 305.191 324.26 306.233C309.822 303.608 295.684 298.874 282.226 292.066C256.994 279.304 236.252 260.282 221.621 236.905ZM240.056 229.532C235.304 228.859 230.496 228.397 225.646 228.152C244.132 199.478 272.121 177.972 304.688 167.262C318.704 162.676 333.085 160.192 347.444 159.793C334.457 180.386 316.387 198.172 293.801 211.053C276.719 220.786 258.494 226.864 240.056 229.532ZM323.103 153.445C315.967 154.716 308.862 156.494 301.837 158.798C273.33 168.141 248.326 185.232 229.404 207.949C242.956 170.732 242.281 128.571 224.925 90.5337C237.785 108.736 254.463 124.035 273.846 135.221C289.585 144.285 306.219 150.306 323.103 153.445ZM347.461 151.048C340.649 151.185 333.815 151.764 327.002 152.801C308.975 149.925 291.172 143.767 274.451 134.098C252.116 121.149 233.373 102.694 219.985 80.6507C219.761 80.2386 219.534 79.8271 219.305 79.4162C270.989 79.9477 319.709 106.84 347.461 151.048ZM352.575 151.027C351.886 151.019 351.197 151.015 350.507 151.016C349.243 148.957 347.934 146.934 346.582 144.949C342.494 136.392 339.167 127.393 336.658 118.033C326.203 79.0258 331.388 38.2623 351.143 3.1479C351.278 2.92249 351.412 2.69667 351.545 2.47044C351.996 3.23747 352.453 3.99978 352.916 4.75732C378.306 51.8925 376.508 106.853 352.575 151.027ZM355.592 151.093C373.934 121.922 402.15 98.7343 437.369 87.1992C452.681 82.184 468.227 79.7275 483.541 79.5939C459.211 120.481 418.679 146.057 374.867 152.874C368.501 151.894 362.064 151.295 355.592 151.093ZM378.93 153.553C418.025 146.49 454.178 124.544 478.267 90.1232C460.552 127.89 459.423 169.9 472.483 207.156C448.316 178.757 414.902 160.042 378.93 153.553ZM355.508 159.788C377.365 160.37 399.005 165.789 419.061 175.986C442.903 188.077 463.03 206.128 477.37 228.411C471.76 228.682 466.189 229.243 460.668 230.09C442.665 227.209 424.885 221.055 408.184 211.398C387.927 199.698 371.001 183.914 358.217 165.175C357.346 163.356 356.443 161.56 355.508 159.788ZM190.973 230.193C183.234 231.497 175.591 233.376 168.114 235.839C139.897 245.082 115.399 261.593 96.6897 283.627C97.9672 279.995 99.1158 276.3 100.131 272.547C109.654 237.283 106.614 200.676 91.6637 167.879C112.479 196.972 142.448 217.848 177.441 227.204C181.927 228.398 186.442 229.395 190.973 230.193ZM90.0056 308.123C108.525 277.903 136.9 255.441 170.965 244.217C183.663 240.071 196.794 237.653 210.183 236.962C210.011 237.221 209.838 237.566 209.751 237.826C207.607 242.055 205.661 246.348 203.915 250.695C192.143 265.448 177.447 278.26 160.088 288.18C138.294 300.651 114.632 307.139 91.0372 308.169C90.6935 308.152 90.3496 308.137 90.0056 308.123ZM94.0701 286.796C95.8897 282.014 97.4814 277.117 98.8357 272.115C109.115 234.07 104.677 194.434 86.2832 159.849C85.7173 158.946 85.1597 158.036 84.6105 157.119C83.4668 159.145 82.3648 161.203 81.3056 163.291C62.8194 199.739 59.7096 241.196 72.4081 280.062C75.0783 288.235 78.3865 296.083 82.2852 303.553C85.8714 297.683 89.8087 292.089 94.0701 286.796ZM80.7517 306.117C80.508 305.661 80.2665 305.204 80.0272 304.746C53.8104 262.878 7.95797 234.448 -44.6214 232.49C-45.8531 232.527 -47.0869 232.549 -48.3226 232.556C-47.5606 233.904 -46.8204 235.26 -46.102 236.625C-18.5559 280.419 28.2367 305.809 76.9799 308.139C77.8673 308.1 78.7541 308.069 79.6402 308.046C80.0066 307.4 80.3771 306.757 80.7517 306.117ZM78.2028 310.636C64.2165 311.136 50.0729 313.581 36.1228 318.15C-0.357203 330.099 -29.324 354.549 -47.5864 385.201C-45.9986 385.235 -44.4167 385.293 -42.841 385.374C-18.3503 384.315 5.65117 377.413 26.9639 365.135C43.5166 355.655 57.9018 343.428 69.6327 329.082C71.4986 324.304 73.6023 319.589 75.9421 314.953C76.6756 313.499 77.4293 312.06 78.2028 310.636ZM68.1635 332.992C56.8083 346.185 43.1701 357.497 27.655 366.43C8.72555 377.215 -12.2784 383.908 -33.821 386.103C7.26912 390.629 43.5388 411.258 68.561 441.482C67.9076 439.708 67.2864 437.923 66.699 436.128C55.5425 402.082 56.2039 366.127 68.1635 332.992ZM95.1602 439.516C101.265 422.899 104.509 405.179 104.624 386.986C104.785 364.271 100.016 342.65 91.3211 323.135C105.72 343.277 124.858 359.785 147.562 371.267C160.305 377.687 173.649 382.3 187.282 385.057C180.687 386.324 174.162 388.003 167.769 390.094C139.341 399.378 114.162 416.633 95.1602 439.516ZM89.6449 462.65C108.153 432.374 136.847 409.672 170.533 398.644C182.886 394.585 195.671 392.167 208.628 391.389C205.751 397.028 203.223 402.778 201.046 408.613C182.934 430.023 159.198 446.068 131.841 455.044C117.99 459.589 103.81 462.114 89.6449 462.65ZM89.6808 464.608C89.7728 464.604 89.8649 464.601 89.9569 464.597C111.504 465.514 132.784 470.995 152.566 481.042C171.458 490.598 187.834 503.663 201.011 519.438C203.122 525.084 205.574 530.706 208.369 536.23C187.983 535.021 168.373 529.666 149.974 520.338C124.931 507.649 104.088 488.41 89.6808 464.608ZM94.8991 487.455C108.792 504.363 126.14 518.317 145.913 528.37C159.127 535.061 172.973 539.816 187.257 542.587C181 543.808 174.751 545.427 168.54 547.46C135.048 558.42 107.793 579.74 89.1498 606.708C98.7605 586.522 103.913 564.303 104.107 541.326C104.26 522.421 100.998 504.269 94.8991 487.455ZM78.0596 464.606C75.1271 469.952 72.519 475.436 70.2382 481.03C42.3688 516.264 -0.553164 539.121 -48.5346 539.676C-30.2497 508.811 -1.13646 484.179 35.6018 472.146C49.2782 467.688 63.3511 465.148 77.4159 464.581C77.6305 464.59 77.845 464.598 78.0596 464.606ZM70.2067 445.76C72.524 451.535 75.1741 457.177 78.0949 462.622C77.9873 462.626 77.8798 462.63 77.7722 462.634C56.1105 461.754 34.7063 456.222 14.7905 446.148C-11.8977 432.648 -33.5631 412.146 -48.2872 386.895C-46.476 386.881 -44.6663 386.835 -42.8588 386.757C3.03481 389.142 43.6237 411.743 70.2067 445.76ZM68.5055 485.468C55.9912 518.999 55.0406 556.09 66.2671 590.47C66.7216 591.854 67.1937 593.229 67.6831 594.595C64.9899 591.427 62.1579 588.351 59.1903 585.375C33.2723 559.385 -0.156535 543.747 -36.1855 540.435C-0.202136 537.197 33.1804 521.638 59.0128 495.811C62.3474 492.486 65.5132 489.035 68.5055 485.468ZM85.0145 611.482C81.0161 603.935 77.6298 595.99 74.9056 587.706C62.2071 549.272 65.4896 508.506 84.0623 472.576C86.5615 476.466 89.2264 480.237 92.0474 483.88C99.0887 501.69 102.89 521.112 102.724 541.412C102.516 566.641 96.1301 590.48 85.0145 611.482ZM69.1033 598.409C65.7183 594.224 62.095 590.191 58.24 586.325C29.8224 557.743 -7.92487 541.821 -48.1306 541.175C-21.6638 586.134 26.1045 614.221 77.3806 616.425C74.2712 610.633 71.5053 604.619 69.1033 598.409ZM78.8783 619.151C76.8075 619.083 74.742 618.975 72.683 618.825C62.9485 619.516 53.2032 621.143 43.5547 623.723C4.42531 634.121 -28.3944 658.988 -49.0098 693.756C5.17672 693.088 52.8892 663.93 79.7417 620.666C79.4513 620.163 79.1635 619.658 78.8783 619.151ZM81.6695 623.918C63.0019 659.314 58.1186 701.935 71.5301 742.912C74.6537 752.408 78.6281 761.465 83.3828 770.002C96.2381 747.172 102.989 721.282 103.074 695.064C103.113 676.098 99.738 657.649 93.2289 640.417C89.0359 635.182 85.1755 629.673 81.6695 623.918ZM95.7425 643.476C101.45 659.809 104.406 677.169 104.369 694.977C104.296 718.116 99.0653 740.941 89.1077 761.734C110.143 731.287 140.984 709.596 177.178 700.159C181.316 699.069 185.474 698.153 189.642 697.409C174.366 694.751 159.569 689.823 145.395 682.625C126.072 672.877 109.295 659.547 95.7425 643.476ZM201.346 671.81C190.02 658.494 176.371 647.076 160.778 638.06C142.232 627.336 122.113 620.681 101.475 618.226C111.741 617.051 122.057 614.839 132.269 611.545C159.874 602.482 183.242 586.401 201.043 565.926C189.42 598.741 188.956 634.12 199.99 667.856C200.42 669.174 200.872 670.492 201.346 671.81ZM218.862 689.305C214.728 681.547 211.211 673.347 208.456 664.92C196.016 627.09 199.04 586.842 216.921 551.258C220.197 556.298 223.732 561.117 227.505 565.702C228.029 567.153 228.533 568.615 229.016 570.088C242.478 611.127 237.584 653.834 218.862 689.305ZM220.737 690.808C239.704 660.613 268.35 638.191 302.706 626.919C309.65 624.656 316.695 622.887 323.79 621.619C329.806 622.661 335.915 623.366 342.092 623.722C323.52 651.791 295.877 672.865 263.914 683.402C249.909 687.958 235.409 690.453 220.737 690.808ZM244.15 697.454C251.819 696.144 259.352 694.277 266.679 691.867C294.13 682.9 318.543 666.503 337.296 644.781C326.099 676.799 325.728 711.454 336.481 744.207C338.188 749.408 340.149 754.481 342.352 759.413C329.844 742.03 313.713 727.32 294.66 716.224C278.803 706.934 261.733 700.647 244.15 697.454ZM215.093 700.561C218.599 706.325 222.45 711.822 226.609 717.031C228.535 722.078 230.206 727.255 231.613 732.548C242.049 771.568 236.902 812.172 217.237 847.24C217.107 847.456 216.977 847.674 216.848 847.892C212.009 839.295 207.935 830.106 204.746 820.385C191.962 781.432 195.158 739.889 213.644 703.355C214.119 702.417 214.602 701.486 215.093 700.561ZM193.591 698.044C199.935 698.981 206.359 699.53 212.853 699.692C194.472 728.796 166.255 751.926 131.057 763.468C115.799 768.474 100.144 771.029 84.5476 771.175C105.244 736.434 138.179 711.693 177.437 701.369C182.798 699.97 188.189 698.863 193.591 698.044ZM229.161 720.145C253.031 748.525 286.277 767.831 322.713 774.474C283.887 781.497 247.934 803.184 223.831 837.142C239.065 804.319 242.31 767.585 232.909 732.202C231.814 728.112 230.563 724.091 229.161 720.145ZM346.371 768.167C324.636 767.536 303.124 762.12 283.178 751.979C259.336 739.888 239.209 721.837 224.869 699.553C229.972 699.308 235.042 698.821 240.06 698.098C258.836 701.015 277.08 707.462 293.969 717.347C315.996 730.219 333.644 747.835 346.371 768.167ZM326.298 775.085C321.037 775.917 315.788 777.024 310.567 778.409C271.658 788.749 238.987 813.394 218.352 847.856C218.259 848.022 218.166 848.188 218.072 848.353C233.674 848.215 249.336 845.667 264.599 840.682C298.87 829.489 327.435 807.084 346.385 776.961C339.616 776.766 332.908 776.134 326.298 775.085ZM349.455 777.02C348.696 778.255 347.921 779.478 347.13 780.688C342.455 789.903 338.677 799.658 335.873 809.848C325.326 848.177 329.946 888.29 348.711 923.194C349.194 923.986 349.67 924.784 350.139 925.586C350.213 925.462 350.287 925.337 350.361 925.213L350.413 925.126L350.538 924.916L350.593 924.824L350.711 924.628L350.853 924.392C350.998 924.152 351.144 923.912 351.291 923.673C376.996 876.667 375.371 821.449 351.514 777.025C351.311 777.026 351.107 777.026 350.903 777.026C350.42 777.026 349.938 777.024 349.455 777.02ZM354.581 776.983C369.184 800.375 389.946 819.397 415.177 832.13C436.378 842.879 459.273 848.429 482.368 848.693C469.018 826.108 449.954 807.192 427.186 793.955C410.766 784.448 393.089 778.156 374.899 775.181C368.18 776.221 361.397 776.824 354.581 776.983ZM378.579 774.566C395.495 777.702 412.162 783.728 427.877 792.832C447.27 804.095 464.014 819.417 476.896 837.681C461.879 804.721 458.927 767.967 468.642 732.634C469.834 728.297 471.202 724.039 472.74 719.867C453.788 742.594 428.712 759.723 400.229 769.08C393.119 771.424 385.89 773.255 378.579 774.566ZM457.75 697.715C440.269 700.752 423.265 706.836 407.399 715.879C388.094 726.922 371.705 741.629 358.97 759.063C374.972 723.644 377.09 684.109 364.891 646.87C364.647 646.123 364.397 645.38 364.142 644.639C388.161 672.686 421.2 691.442 457.75 697.715ZM480.324 691.14C431.879 689.717 386.056 664.171 359.456 623.808C365.792 623.503 372.044 622.826 378.198 621.786C392.448 624.442 406.397 629.16 419.671 635.901C444.93 648.678 465.69 667.728 480.324 691.14ZM482.394 690.049C478.487 682.6 475.145 674.73 472.44 666.475C461.727 633.688 462.265 598.996 473.793 567.013C477.808 562.199 481.568 557.116 485.058 551.776C488.255 558.254 491.019 564.818 493.265 571.641C505.704 609.643 502.594 650.323 484.54 685.993C483.864 687.345 483.135 688.697 482.394 690.049ZM499.749 673.498C512.267 639.954 513.054 603.433 501.73 568.877C501.496 568.168 501.257 567.458 501.012 566.748C527.226 596.7 564.199 615.585 603.812 619.324C582.14 621.332 560.943 627.955 541.464 639.01C525.392 648.143 511.349 659.82 499.749 673.498ZM488.082 699.967C494.148 699.855 500.187 699.385 506.172 698.568C550.583 705.082 591.793 730.791 616.278 772.055C564.524 771.384 515.79 744.335 488.082 699.967ZM475.404 716.584C479.257 711.704 482.835 706.581 486.113 701.237C490.061 708.774 493.413 716.696 496.121 724.947C510.096 767.554 504.287 811.958 483.76 848.197C464.106 812.84 459.193 771.941 469.938 732.893C471.471 727.321 473.297 721.879 475.404 716.584ZM510.953 697.84C518.776 696.524 526.492 694.612 534.038 692.126C562.88 682.723 587.194 665.784 605.519 644.194C592.294 681.485 593.314 723.598 611.008 761.512C590.224 731.736 559.918 710.41 524.45 700.851C519.97 699.644 515.468 698.641 510.953 697.84ZM612.099 620.19C593.529 650.307 565.304 672.641 531.36 683.748C518.662 687.894 505.445 690.312 492.055 691.003C492.142 690.744 492.315 690.398 492.487 690.053C494.606 685.873 496.531 681.631 498.261 677.336C510.237 662.436 525.044 649.781 542.155 640.046C564.231 627.494 588.215 621.054 612.099 620.19ZM607.866 641.363C592.225 682.479 594.232 729.956 617.307 771.174C637.863 734.964 643.704 690.564 629.755 647.992C627.076 639.793 623.756 631.921 619.841 624.429C616.227 630.317 612.228 635.976 607.866 641.363ZM621.471 621.714C648.093 665.21 695.77 694.543 750.316 695.393C750.264 695.301 750.212 695.21 750.161 695.118C750.072 694.961 749.984 694.803 749.895 694.645C749.826 694.521 749.757 694.397 749.688 694.272C749.602 694.118 749.517 693.964 749.432 693.81C721.595 647.955 672.858 621.7 622.37 620.161C622.073 620.68 621.774 621.198 621.471 621.714ZM624 617.242C637.942 616.73 652.041 614.286 665.947 609.731C701.553 598.102 730.999 574.372 749.903 542.456C723.547 542.711 697.654 549.777 674.759 562.919C658.222 572.43 644.122 584.57 632.682 598.511C630.193 604.938 627.292 611.195 624 617.242ZM633.996 594.995C645.127 582.034 658.603 570.711 674.24 561.71C693.945 550.41 715.897 543.545 738.416 541.624C696.353 537.754 659.129 517.032 633.549 486.327C634.246 488.183 634.91 490.05 635.54 491.923C646.948 526.828 645.572 562.887 633.996 594.995ZM616.396 612.763C617.062 611.533 617.714 610.292 618.349 609.039C636.49 573.282 639.6 532.689 627.161 494.686C624.742 487.345 621.718 480.09 618.09 473.094C615.626 476.908 613.007 480.603 610.242 484.171C603.106 501.675 599.119 520.762 598.995 540.721C598.81 566.692 605.118 591.218 616.396 612.763ZM462.298 698.428C467.013 699.099 471.782 699.562 476.593 699.813C458.106 728.487 430.118 749.993 397.551 760.703C383.439 765.32 368.957 767.807 354.5 768.18C354.874 767.474 355.242 766.765 355.605 766.053C368.753 746.001 386.551 729.206 408.004 717.002C425.261 707.16 443.677 701.054 462.298 698.428ZM202.733 675.503C204.74 680.633 207.067 685.751 209.665 690.83C188.76 689.794 168.546 684.352 149.628 674.766C124.383 661.992 103.722 642.775 89.3608 619.135C91.1269 619.072 92.8963 618.978 94.6683 618.854C117.491 620.54 139.799 627.387 160.174 639.183C176.714 648.759 191.061 661.073 202.733 675.503ZM92.3234 443.033C89.4062 446.757 86.6486 450.619 84.0623 454.611C80.5205 447.702 77.5835 440.533 75.2511 433.365L73.5234 433.969L75.2511 433.278C62.8117 395.276 65.9216 354.683 83.9759 318.926C84.6228 317.648 85.2863 316.381 85.966 315.127C85.9904 315.166 86.0149 315.205 86.0393 315.244C97.2473 336.737 103.513 361.187 103.328 387.072C103.206 406.809 99.3074 425.692 92.3234 443.033ZM131.661 765.541C163.624 755.069 189.895 735.183 208.407 709.963C192.808 745.095 190.744 784.291 202.846 821.076C204.524 826.197 206.445 831.173 208.592 835.993C182.823 800.251 142.726 777.012 98.8975 772.422C109.927 771.295 120.893 768.993 131.661 765.541ZM89.3179 773.103C139.383 775.215 185.603 801.869 212.467 844.058C213.213 845.503 213.98 846.932 214.768 848.346C191.752 848.047 168.938 842.499 147.807 831.786C121.385 818.389 99.9099 798.142 85.2228 773.213C86.588 773.194 87.9531 773.158 89.3179 773.103ZM-45.9676 549.566C-47.4569 547.317 -48.8919 545.022 -50.2701 542.682C-70.6109 578.846 -76.3221 623.078 -62.4444 665.525C-59.2629 675.197 -55.1935 684.419 -50.3121 693.103C-25.2548 648.905 -23.7368 594.915 -45.9676 549.566ZM-41.7899 555.56C-16.1558 590.54 23.0987 613.123 65.7281 618.162C58.1945 619.025 50.6718 620.445 43.2092 622.427C7.61964 631.957 -22.7716 653.249 -43.6432 683.079C-24.8102 642.894 -24.1458 596.238 -41.7899 555.56ZM14.0057 754.572C-12.538 741.083 -34.1131 720.712 -48.8321 695.677C2.24027 696.265 49.8925 722.525 77.7961 764.943C78.8436 767.047 79.9364 769.122 81.0735 771.168C58.0214 770.855 35.1729 765.279 14.0057 754.572ZM58.4957 649.891C32.0017 676.302 -2.31603 691.975 -39.1009 694.716C6.0969 698.111 47.7865 721.387 74.489 757.866C72.4858 753.286 70.6902 748.585 69.1113 743.776C56.1575 704.209 59.9878 663.096 76.6828 628.205C71.3465 635.897 65.2722 643.156 58.4957 649.891ZM75.8544 296.119C73.6541 291.191 71.6952 286.122 69.9893 280.925C57.8588 243.974 59.8856 204.601 75.6447 169.325C49.6132 204.709 9.46242 227.562 -34.2969 231.832C11.0775 236.538 50.6696 260.87 75.8544 296.119ZM-44.5816 231.109C-45.614 231.07 -46.649 231.042 -47.6865 231.024C-29.3955 200.223 -0.327433 175.646 36.3002 163.635C51.5756 158.632 67.0785 156.165 82.3519 156.001C81.2128 158.026 80.115 160.082 79.0597 162.168L79.0105 162.265C51.5968 203.701 5.27144 229.614 -44.5816 231.109ZM-42.0199 244.986C-21.2061 274.102 8.75129 294.905 43.7284 304.331C51.7214 306.445 59.7759 307.944 67.8369 308.808C56.9963 309.926 46.1136 312.208 35.3454 315.732C3.3555 326.201 -22.9447 346.121 -41.4848 371.387C-23.8012 331.207 -23.9344 285.06 -42.0199 244.986ZM-47.2481 237.19C-47.9473 236.077 -48.6338 234.954 -49.3076 233.82C-69.8277 270.079 -75.6332 314.501 -61.6596 357.102C-58.5562 366.557 -54.608 375.579 -49.8853 384.086C-48.6911 382.075 -47.4516 380.09 -46.1677 378.133C-23.8289 333.919 -24.1232 281.15 -47.2481 237.19ZM343.045 914.567C328.048 881.675 325.034 844.889 334.663 809.589C336.801 801.815 339.502 794.293 342.733 787.068C323.663 813.31 296.89 832.873 265.463 843.187C255.12 846.541 244.595 848.809 234.054 849.992C277.751 855.044 317.632 878.58 343.045 914.567ZM226.319 850.666C223.749 850.825 221.181 850.919 218.617 850.949C246.025 897.095 295.842 925.362 348.809 925.96C348.712 925.786 348.615 925.612 348.519 925.437C322.615 881.912 276.605 853.888 226.319 850.666ZM351.565 925.966C351.721 925.69 351.876 925.413 352.031 925.135C378.245 881.716 424.534 853.954 475.011 851.114C477.308 851.252 479.609 851.339 481.911 851.373C463.606 881.969 434.631 906.369 398.161 918.327C382.707 923.394 367.016 925.86 351.565 925.966ZM357.578 914.198C383.232 878.471 423.117 855.18 466.845 850.403C448.681 848.331 430.844 843.008 414.054 834.548C391.447 823.116 372.377 806.701 357.999 786.678C361.342 794.185 364.113 802.012 366.273 810.107C375.637 845.197 372.522 881.628 357.578 914.198ZM146.684 834.118C168.624 845.171 192.35 850.869 216.258 850.959C244.185 898.851 295.859 928 350.563 928C366.544 928 382.785 925.496 398.766 920.4C436.212 908.132 465.846 882.941 484.344 851.39C500.537 851.375 516.899 848.784 532.832 843.704C570.492 831.339 600.266 805.914 618.778 774.089C634.592 774.036 650.737 771.53 666.459 766.49C747.919 739.802 792.407 651.965 765.715 570.519C762.416 560.433 758.175 550.912 753.121 542.022C754.501 539.618 755.822 537.169 757.083 534.677C775.914 497.625 779.111 455.477 766.153 415.92C762.809 405.707 758.502 396.074 753.365 387.089C754.625 384.875 755.836 382.623 756.996 380.335C775.742 343.369 778.938 301.308 765.98 261.837C744.776 196.997 684.617 155.526 619.872 154.867C592.093 106.693 540.398 77.2626 485.543 77.0432C449.486 15.1873 373.785 -15.4602 303.045 7.74016C265.573 19.9899 235.923 45.2429 217.451 76.8704C201.528 76.9013 185.347 79.3956 169.418 84.609C132.9 96.5929 102.665 121.066 83.4997 153.996C67.6505 154.041 51.5484 156.536 35.6955 161.735C-45.6785 188.423 -90.2528 276.347 -63.4737 357.706C-60.2265 367.642 -56.0446 377.111 -51.0127 386.016C-72.2519 422.975 -78.3566 468.45 -64.083 512.048C-60.7611 522.213 -56.4858 531.803 -51.3885 540.751C-72.4606 577.576 -78.4929 622.83 -64.2584 666.216C-51.3872 705.601 -23.8306 737.643 13.1419 756.386C34.902 767.477 58.5166 773.09 82.237 773.225C97.1868 799.188 119.351 820.294 146.684 834.118ZM751.265 694.393L751.375 694.578C772.036 658.286 777.913 613.758 763.9 571.037C760.761 561.456 756.764 552.393 752.022 543.906C750.447 546.564 748.799 549.167 747.082 551.711C725.104 596.778 726.499 650.399 751.265 694.393ZM743.078 557.366C724.071 582.98 697.651 602.087 666.725 612.236C655.358 615.963 643.904 618.307 632.487 619.36C641.171 620.184 649.844 621.75 658.428 624.068C693.605 633.549 723.636 654.603 744.448 683.936C726.025 643.908 725.613 597.644 743.078 557.366ZM531.968 841.026C516.852 845.963 501.343 848.51 485.89 848.693C486.653 847.331 487.395 845.957 488.116 844.573C515.364 802.1 562.177 775.548 612.69 773.99C613.666 774.025 614.643 774.051 615.622 774.068C597.357 804.677 568.411 829.09 531.968 841.026ZM602.409 773.274C558.407 777.596 518.106 800.658 492.11 836.33C507.399 802.275 510.547 762.649 498.021 724.429C496.452 719.628 494.665 714.936 492.669 710.364C518.727 745.994 558.928 768.783 602.409 773.274ZM625.658 630.48C651.207 666.853 692.002 691.826 738.736 696.001C694.441 699.608 653.622 722.252 627.082 757.667C641.723 723.941 644.57 684.941 632.26 647.301C630.362 641.503 628.153 635.892 625.658 630.48ZM623.971 764.395C652.2 722.815 699.495 697.272 750.037 696.881C731.753 727.749 702.642 752.383 665.941 764.417C650.688 769.418 635.201 771.889 619.939 772.058C621.353 769.541 622.698 766.986 623.971 764.395ZM738.898 232.903C702.755 236.078 669.208 251.658 643.228 277.556C637.219 283.545 631.763 289.943 626.885 296.687C643.011 261.191 645.176 221.536 632.943 184.191C631.394 179.459 629.638 174.852 627.688 170.376C653.968 206.032 694.664 228.959 738.898 232.903ZM750.586 232.202C699.881 231.549 652.617 205.666 624.634 163.789C623.451 161.387 622.211 159.026 620.916 156.707C673.759 157.612 723.38 186.02 750.586 232.202ZM751.632 539.462C752.74 537.493 753.809 535.495 754.837 533.468C773.323 497.02 776.433 455.563 763.734 416.697C760.63 407.196 756.663 398.133 751.909 389.592C750.672 391.676 749.39 393.726 748.064 395.74C726.24 439.243 726.396 490.914 748.469 534.367C749.553 536.04 750.608 537.739 751.632 539.462ZM666.811 457.722C698.055 447.515 724.68 428.07 743.711 402.017C726.129 441.891 726.108 487.635 743.736 527.486C717.973 492.116 678.282 469.334 635.232 464.503C645.789 463.357 656.355 461.112 666.811 457.722ZM751.988 234.634C726.988 278.772 725.534 332.649 747.696 377.932C749.255 380.263 750.754 382.645 752.193 385.075C753.255 383.177 754.281 381.251 755.269 379.299C773.755 342.765 776.951 301.222 764.166 262.269C760.962 252.499 756.862 243.267 751.988 234.634ZM743.469 371.924C717.789 337.215 678.648 314.813 636.175 309.827C643.635 308.931 651.074 307.474 658.433 305.454C693.854 296.046 724.193 274.919 745.071 245.313C726.565 285.324 726.016 331.584 743.469 371.924ZM487.002 79.6032C539.868 80.3485 589.549 108.695 616.812 154.867C615.844 154.876 614.875 154.895 613.906 154.922C563.49 153.31 516.752 126.728 489.532 84.3331C488.714 82.7376 487.871 81.1609 487.002 79.6032ZM570.061 162.6C581.222 158.939 592.506 156.619 603.739 155.551C559.583 151.188 519.141 127.901 493.168 91.9266C495.336 96.7893 497.274 101.809 498.964 106.978C511.026 143.719 509.091 182.705 493.646 217.736C512.146 192.706 538.3 172.982 570.061 162.6ZM468.07 77.9648C457.565 79.1184 447.024 81.3665 436.591 84.7808C403.816 95.5073 377.013 116.154 358.409 142.307C376.612 102.487 377.804 55.4955 358.687 13.5135C384.224 49.5196 424.246 73.0814 468.07 77.9648ZM475.065 77.3571C425.474 74.0331 380.083 46.7264 354.028 4.13121C353.635 3.40281 353.236 2.67627 352.83 1.95165C405.939 2.4787 455.922 30.7732 483.403 77.0495C480.63 77.0768 477.85 77.1789 475.065 77.3571ZM344.45 13.4115C329.19 46.2408 325.882 82.9863 335.362 118.379C337.296 125.597 339.713 132.601 342.588 139.355C316.715 104.777 277.423 82.5577 234.867 77.8205C278.757 73.0146 318.815 49.504 344.45 13.4115ZM350.067 2.46198C323.892 46.2876 277.254 74.3167 226.536 77.12C224.292 76.9923 222.041 76.9132 219.784 76.8835C238.077 46.1101 267.131 21.5564 303.736 9.55391C319.198 4.50043 334.897 2.04491 350.358 1.9472C350.261 2.11866 350.164 2.29026 350.067 2.46198ZM215.995 79.4183C200.799 79.5933 185.381 82.0535 170.195 87.0273C134.696 98.6216 105.32 122.244 86.4101 154.015C87.9737 154.04 89.5345 154.089 91.092 154.161C140.931 151.977 186.952 125.48 213.824 83.4379C214.528 82.0876 215.252 80.7476 215.995 79.4183ZM209.915 91.4889C184.137 127.206 144.043 150.322 100.3 154.866C143.378 159.464 183.168 182.035 209.111 217.221C207.196 212.797 205.477 208.262 203.962 203.625C191.361 165.342 194.54 125.606 209.915 91.4889ZM13.9267 447.875C30.2725 456.207 47.6648 461.447 65.3622 463.597C55.1492 464.806 44.9843 467.047 34.9971 470.332C2.41778 480.982 -24.2629 501.462 -42.8328 527.415C-24.3728 486.754 -24.3504 439.729 -42.7655 399.044C-28.3333 419.493 -9.01619 436.245 13.9267 447.875ZM-49.8655 538.148C-49.5246 537.578 -49.1801 537.011 -48.8319 536.445C-24.1361 491.053 -24.0213 435.739 -48.4874 390.322C-48.8409 389.741 -49.1908 389.157 -49.5369 388.571C-69.8324 424.676 -75.54 468.835 -61.6642 511.185C-58.5456 520.703 -54.5754 529.71 -49.8655 538.148ZM283.696 443.297C302.355 452.711 322.224 458.152 342.87 459.275C328.53 437.251 308.575 419.287 284.992 407.281C266.247 397.867 246.378 392.426 225.733 391.303C240.072 413.413 260.027 431.292 283.696 443.297ZM342.956 468.689C329.739 469.38 316.695 471.799 304.17 475.944C271.862 486.481 244.046 507.901 225.56 536.316C238.69 535.625 251.734 533.207 264.346 529.061C296.568 518.438 324.383 497.105 342.956 468.689ZM359.283 459.275C372.413 458.584 385.371 456.166 397.983 452.02C430.204 441.483 458.02 420.15 476.593 391.821C463.462 392.512 450.418 394.931 437.979 398.99C405.153 409.7 378.028 430.514 359.283 459.275ZM476.334 536.662C450.245 496.5 406.88 471.367 359.11 468.689C373.45 490.8 393.405 508.678 417.074 520.684C435.733 530.098 455.688 535.539 476.334 536.662ZM342.438 433.71C344.77 440.792 347.621 447.788 351.076 454.611C369.303 418.768 372.5 378.175 360.147 340.086C357.814 332.918 354.877 325.922 351.422 319.099C333.108 354.942 329.912 395.449 342.438 433.624V433.71ZM350.99 473.526C350.903 473.613 350.903 473.699 350.903 473.699C332.849 509.369 329.739 550.049 342.265 587.965C344.511 595.047 347.448 601.957 350.817 608.693C368.958 572.937 372.154 532.43 359.628 494.341C357.296 487.259 354.359 480.263 350.99 473.526Z" fill="#F7F6ED"/>
</svg>
