<svg width="40" height="40" viewBox="0 0 40 40" fill="none" xmlns="http://www.w3.org/2000/svg">
<circle cx="20" cy="20" r="19.5" stroke="#B38A4C"/>
<path d="M29 14.8186C29 13.3212 27.6788 12 26.1813 12H14.8186C13.3212 12 12 13.3212 12 14.8186V26.1813C12 27.6787 13.3212 29 14.8186 29H20.544V22.5699H18.4301V19.7513H20.544V18.6062C20.544 16.6684 21.9534 14.9948 23.715 14.9948H26.0052V17.8135H23.715C23.4508 17.8135 23.1865 18.0777 23.1865 18.6062V19.7513H26.0052V22.5699H23.1865V29H26.1813C27.6788 29 29 27.6787 29 26.1813V14.8186Z" fill="#B38A4C"/>
</svg>
