<svg width="40" height="40" viewBox="0 0 40 40" fill="none" xmlns="http://www.w3.org/2000/svg">
<circle cx="20" cy="20" r="19.5" stroke="#B38A4C"/>
<path d="M28.4357 13H12.5643C12.4147 13.0002 12.2712 13.0635 12.1654 13.1761C12.0596 13.2886 12.0001 13.4413 12 13.6004V14.8083C12 14.864 12.0567 14.9278 12.1031 14.9537L20.4455 20.0217C20.4668 20.0347 20.4911 20.0414 20.5157 20.0412C20.5408 20.0413 20.5655 20.0341 20.5872 20.0205L28.6774 14.9586C28.7229 14.9316 28.8435 14.8602 28.8887 14.8273C28.9435 14.7877 29 14.7517 29 14.6806V13.6002C28.9998 13.4411 28.9403 13.2885 28.8345 13.176C28.7287 13.0635 28.5853 13.0002 28.4357 13Z" fill="#B38A4C"/>
<path d="M28.9296 16.6296C28.9079 16.6164 28.8833 16.6095 28.8583 16.6097C28.8333 16.6099 28.8087 16.617 28.7872 16.6305L24.2089 19.4955C24.1906 19.5068 24.175 19.5223 24.1632 19.5409C24.1514 19.5595 24.1436 19.5807 24.1405 19.603C24.1375 19.6252 24.1391 19.6478 24.1454 19.6693C24.1517 19.6907 24.1625 19.7104 24.1769 19.7268L28.7558 24.9766C28.7689 24.9917 28.7849 25.0038 28.8026 25.0121C28.8204 25.0203 28.8396 25.0246 28.8589 25.0245C28.8963 25.0244 28.9322 25.0086 28.9586 24.9805C28.9851 24.9523 28.9999 24.9142 29 24.8744V16.7599C29.0001 16.7335 28.9936 16.7075 28.9813 16.6846C28.9689 16.6618 28.9511 16.6428 28.9296 16.6296Z" fill="#B38A4C"/>
<path d="M22.8895 20.4575C22.8678 20.4324 22.8386 20.4159 22.8068 20.4108C22.775 20.4058 22.7426 20.4125 22.7149 20.4298L20.8797 21.5783C20.7722 21.6444 20.6504 21.6796 20.5262 21.6805C20.4021 21.6813 20.2798 21.6478 20.1715 21.5833L18.5565 20.602C18.5304 20.5862 18.5003 20.5796 18.4705 20.5832C18.4407 20.5869 18.4127 20.6005 18.3907 20.6221L12.2579 26.6724C12.2418 26.6884 12.2295 26.7082 12.2218 26.7301C12.2142 26.7521 12.2115 26.7756 12.2139 26.7989C12.2164 26.8222 12.2239 26.8445 12.2359 26.8641C12.2479 26.8838 12.264 26.9001 12.283 26.9119C12.3784 26.9716 12.4705 27 12.5641 27H28.2732C28.3007 27.0001 28.3276 26.9915 28.3505 26.9754C28.3735 26.9594 28.3915 26.9365 28.4023 26.9096C28.4134 26.8829 28.4168 26.8533 28.4121 26.8245C28.4075 26.7958 28.395 26.7691 28.3763 26.7478L22.8895 20.4575Z" fill="#B38A4C"/>
<path d="M17.0413 19.9064C17.0575 19.8905 17.07 19.8706 17.0777 19.8486C17.0854 19.8265 17.0882 19.8029 17.0857 19.7795C17.0832 19.7561 17.0756 19.7337 17.0635 19.714C17.0514 19.6943 17.0351 19.6779 17.0159 19.6662L12.2104 16.747C12.189 16.734 12.1647 16.7273 12.14 16.7274C12.1154 16.7276 12.0912 16.7346 12.0699 16.7478C12.0486 16.7611 12.0309 16.78 12.0186 16.8028C12.0064 16.8255 12 16.8513 12 16.8775V24.5372C11.9998 24.5665 12.0078 24.5952 12.0228 24.6197C12.0378 24.6442 12.0592 24.6635 12.0844 24.6752C12.1096 24.6869 12.1375 24.6905 12.1646 24.6855C12.1917 24.6805 12.2168 24.6672 12.2369 24.6471L17.0413 19.9064Z" fill="#B38A4C"/>
</svg>
