<svg width="29" height="25" viewBox="0 0 29 25" fill="none" xmlns="http://www.w3.org/2000/svg">
<rect width="28.4585" height="23.737" transform="translate(0.30365 0.333328)" fill="#F7F6ED"/>
<path d="M6.64214 23.941C4.70179 23.941 3.1495 23.2295 1.98529 21.8066C0.864197 20.3405 0.30365 18.6158 0.30365 16.6323C0.30365 14.9938 0.605483 13.4631 1.20915 12.0401C1.81281 10.6172 2.5674 9.32364 3.4729 8.15943C4.42151 6.99521 5.41325 5.98192 6.44811 5.11954C7.52608 4.21404 8.51782 3.45946 9.42332 2.85579C10.3288 2.209 11.0618 1.7347 11.6224 1.43286C12.2261 1.13103 12.5063 0.980113 12.4632 0.980113L13.9508 2.98515C13.5627 3.15762 13.0453 3.50257 12.3985 4.02C11.7517 4.49431 11.105 5.07642 10.4582 5.76632C9.85451 6.45622 9.31552 7.21081 8.84121 8.03007C8.3669 8.80621 8.12975 9.56079 8.12975 10.2938C8.12975 10.725 8.38846 11.1562 8.90589 11.5874C9.42332 11.9755 9.98386 12.4498 10.5875 13.0103C11.1912 13.5277 11.7517 14.1745 12.2692 14.9507C12.7866 15.6837 13.0453 16.5892 13.0453 17.6672C13.0453 18.6158 12.8513 19.4782 12.4632 20.2543C12.1183 21.0304 11.6439 21.6988 11.0403 22.2593C10.4797 22.7768 9.81139 23.1864 9.03525 23.4882C8.2591 23.7901 7.4614 23.941 6.64214 23.941ZM22.5531 24.0703C21.5613 24.0703 20.6558 23.8547 19.8366 23.4235C19.0173 22.9924 18.3058 22.4103 17.7022 21.6772C17.0985 20.9442 16.6242 20.1034 16.2792 19.1548C15.9774 18.163 15.8265 17.1066 15.8265 15.9855C15.8265 13.7433 16.3008 11.6736 17.2494 9.77639C18.2412 7.83603 19.3191 6.17595 20.4833 4.79614C21.8631 3.15762 23.437 1.67002 25.2049 0.333328L27.0805 2.07965C26.6925 2.33836 26.2182 2.74799 25.6576 3.30854C25.1402 3.86909 24.6443 4.53743 24.17 5.31357C23.7388 6.04659 23.3508 6.82274 23.0058 7.642C22.704 8.46126 22.5531 9.25896 22.5531 10.0351C22.5531 10.5525 22.8764 10.9837 23.5232 11.3287C24.17 11.6736 24.8815 12.1048 25.6576 12.6222C26.4338 13.1397 27.1452 13.808 27.792 14.6273C28.4388 15.4034 28.7622 16.503 28.7622 17.9259C28.7622 18.7883 28.5897 19.586 28.2448 20.319C27.8998 21.052 27.4255 21.6988 26.8218 22.2593C26.2613 22.8199 25.5929 23.2726 24.8168 23.6176C24.0838 23.9194 23.3292 24.0703 22.5531 24.0703Z" fill="#B38A4C"/>
</svg>
