<svg width="29" height="24" viewBox="0 0 29 24" fill="none" xmlns="http://www.w3.org/2000/svg">
<path d="M6.64214 23.6076C4.70179 23.6076 3.1495 22.8962 1.98529 21.4733C0.864197 20.0072 0.30365 18.2825 0.30365 16.299C0.30365 14.6605 0.605483 13.1297 1.20915 11.7068C1.81281 10.2839 2.5674 8.99031 3.4729 7.8261C4.42151 6.66188 5.41325 5.64859 6.44811 4.78621C7.52608 3.88071 8.51782 3.12613 9.42332 2.52246C10.3288 1.87568 11.0618 1.40137 11.6224 1.09953C12.2261 0.797701 12.5063 0.646785 12.4632 0.646785L13.9508 2.65182C13.5627 2.82429 13.0453 3.16925 12.3985 3.68667C11.7517 4.16098 11.105 4.74309 10.4582 5.43299C9.85451 6.1229 9.31552 6.87748 8.84121 7.69674C8.3669 8.47288 8.12975 9.22746 8.12975 9.96049C8.12975 10.3917 8.38846 10.8229 8.90589 11.2541C9.42332 11.6421 9.98386 12.1164 10.5875 12.677C11.1912 13.1944 11.7517 13.8412 12.2692 14.6173C12.7866 15.3504 13.0453 16.2559 13.0453 17.3338C13.0453 18.2825 12.8513 19.1448 12.4632 19.921C12.1183 20.6971 11.6439 21.3655 11.0403 21.926C10.4797 22.4434 9.81139 22.8531 9.03525 23.1549C8.2591 23.4567 7.4614 23.6076 6.64214 23.6076ZM22.5531 23.737C21.5613 23.737 20.6558 23.5214 19.8366 23.0902C19.0173 22.659 18.3058 22.0769 17.7022 21.3439C17.0985 20.6109 16.6242 19.7701 16.2792 18.8214C15.9774 17.8297 15.8265 16.7733 15.8265 15.6522C15.8265 13.41 16.3008 11.3403 17.2494 9.44306C18.2412 7.50271 19.3191 5.84262 20.4833 4.46282C21.8631 2.82429 23.437 1.33669 25.2049 0L27.0805 1.74632C26.6925 2.00503 26.2182 2.41466 25.6576 2.97521C25.1402 3.53576 24.6443 4.2041 24.17 4.98024C23.7388 5.71327 23.3508 6.48941 23.0058 7.30867C22.704 8.12793 22.5531 8.92563 22.5531 9.70177C22.5531 10.2192 22.8764 10.6504 23.5232 10.9953C24.17 11.3403 24.8815 11.7715 25.6576 12.2889C26.4338 12.8063 27.1452 13.4747 27.792 14.2939C28.4388 15.0701 28.7622 16.1696 28.7622 17.5925C28.7622 18.4549 28.5897 19.2526 28.2448 19.9857C27.8998 20.7187 27.4255 21.3655 26.8218 21.926C26.2613 22.4866 25.5929 22.9393 24.8168 23.2843C24.0838 23.5861 23.3292 23.737 22.5531 23.737Z" fill="#B38A4C"/>
</svg>
