<svg width="92" height="92" viewBox="0 0 92 92" fill="none" xmlns="http://www.w3.org/2000/svg">
<path d="M92 46C92 20.6357 71.3643 0 46 0C20.6357 0 0 20.6357 0 46C0 63.2495 9.54536 78.3089 23.6298 86.1814C23.7308 86.2552 23.8404 86.3174 23.9581 86.3652C30.5072 89.9555 38.019 92 46 92C53.981 92 61.4928 89.9555 68.0419 86.365C68.1596 86.3174 68.2692 86.255 68.3702 86.1812C82.4546 78.3089 92 63.2495 92 46ZM3.06673 46C3.06673 22.3269 22.3269 3.06673 46 3.06673C69.6731 3.06673 88.9333 22.3269 88.9333 46C88.9333 61.2177 80.9737 74.6106 69 82.2374V73.6007C69 65.4726 64.6239 57.864 57.5767 53.747C57.0768 53.4558 56.4558 53.471 55.9698 53.7823C50.0006 57.6432 41.9996 57.6432 36.0304 53.7823C35.5458 53.471 34.9233 53.4556 34.4235 53.747C27.3761 57.864 23 65.4724 23 73.6005V82.2372C11.0263 74.6106 3.06673 61.2177 3.06673 46ZM26.0667 84.0156V73.6007C26.0667 66.8601 29.5444 60.5306 35.1977 56.8706C41.7649 60.7099 50.2351 60.7099 56.8025 56.8706C62.4558 60.5306 65.9334 66.8603 65.9334 73.6007V84.0156C59.973 87.1536 53.1909 88.9334 46.0002 88.9334C38.8094 88.9334 32.0271 87.1536 26.0667 84.0156Z" fill="url(#paint0_linear)"/>
<path d="M46 50.6C54.4548 50.6 61.3333 43.7214 61.3333 35.2667C61.3333 26.8121 54.4548 19.9333 46 19.9333C37.5452 19.9333 30.6667 26.8119 30.6667 35.2665C30.6667 43.7212 37.5452 50.6 46 50.6ZM46 23C52.7636 23 58.2667 28.5031 58.2667 35.2667C58.2667 42.0303 52.7636 47.5335 46 47.5335C39.2364 47.5335 33.7333 42.0303 33.7333 35.2667C33.7333 28.5031 39.2364 23 46 23Z" fill="url(#paint1_linear)"/>
<defs>
<linearGradient id="paint0_linear" x1="5.63068" y1="75.508" x2="82.0143" y2="11.5791" gradientUnits="userSpaceOnUse">
<stop stop-color="#CEC067"/>
<stop offset="0.3591" stop-color="#755638"/>
<stop offset="1" stop-color="#FBD690"/>
</linearGradient>
<linearGradient id="paint1_linear" x1="5.63068" y1="75.508" x2="82.0143" y2="11.5791" gradientUnits="userSpaceOnUse">
<stop stop-color="#CEC067"/>
<stop offset="0.3591" stop-color="#755638"/>
<stop offset="1" stop-color="#FBD690"/>
</linearGradient>
</defs>
</svg>
