<svg width="94" height="94" viewBox="0 0 94 94" fill="none" xmlns="http://www.w3.org/2000/svg">
<path d="M12.1798 22.7323C11.2993 22.7323 10.4504 22.383 9.82413 21.7565L0.595261 12.5276C-0.637932 11.2944 0.1651 9.17793 1.90263 9.06888L6.81375 8.76062L3.60913 5.55598C3.07139 5.01823 3.07139 4.14634 3.60913 3.60878C4.14706 3.07103 5.01876 3.07103 5.5565 3.60878L8.76112 6.81342L9.06938 1.90227C9.17862 0.161611 11.2971 -0.635923 12.5281 0.594894L21.7571 9.82382C22.433 10.4996 22.786 11.4343 22.7262 12.3881L22.4089 17.4421C30.1114 10.8745 40.0384 7.10827 50.5543 7.10827C74.5665 7.10827 94 26.5395 94 50.554C94 61.3918 89.9867 71.772 82.6989 79.7823C82.1869 80.3446 81.3161 80.3857 80.7537 79.8741C80.1912 79.3622 80.1501 78.4914 80.6618 77.9289C87.4872 70.4268 91.2461 60.705 91.2461 50.554C91.2461 28.1164 72.9918 9.862 50.5543 9.862C40.0395 9.862 30.1453 13.8919 22.7445 20.7967L29.0274 27.0795C34.7095 21.8638 42.2748 18.672 50.5543 18.672C68.1339 18.672 82.436 32.9741 82.436 50.5539C82.436 55.6134 81.2155 60.6528 78.9059 65.1278C78.9057 65.128 78.9057 65.1281 78.9055 65.1283C73.5539 75.4979 62.7761 82.4358 50.5541 82.4358C35.4941 82.4358 22.396 71.7985 19.3348 57.0362C19.1804 56.2915 19.6589 55.5627 20.4035 55.4083C21.148 55.2539 21.8768 55.7323 22.0312 56.477C24.8197 69.9227 36.8151 79.6818 50.5539 79.6818C61.4977 79.6818 71.4239 73.6212 76.4582 63.8654C76.4582 63.8652 76.4584 63.865 76.4584 63.8648C78.5973 59.7202 79.6819 55.2418 79.6819 50.5539C79.6819 34.4927 66.6152 21.4259 50.5541 21.4259C43.0323 21.4259 36.1553 24.3087 30.9741 29.0261L37.201 35.2531C40.7745 32.1305 45.4469 30.2358 50.5541 30.2358C61.7573 30.2358 70.8718 39.3504 70.8718 50.5537C70.8718 61.757 61.7573 70.8715 50.5541 70.8715C39.3509 70.8715 30.2362 61.757 30.2362 50.5537C30.2362 45.4464 32.1309 40.774 35.2536 37.2005L29.0263 30.9732C24.3454 36.1127 21.4695 42.9233 21.4269 50.3842C21.4226 51.1419 20.8069 51.7533 20.0501 51.7533H20.042C19.2816 51.7489 18.6687 51.1289 18.673 50.3684C18.72 42.1553 21.9036 34.6623 27.079 29.0256L20.7957 22.7423C13.9206 30.0932 9.8625 39.9287 9.8625 50.5535C9.86268 72.9917 28.1168 91.2461 50.5543 91.2461C59.8494 91.2461 68.9384 88.0306 76.1468 82.1921C76.7382 81.7137 77.6046 81.8046 78.0836 82.3954C78.5622 82.9864 78.4711 83.8535 77.8803 84.3321C70.183 90.5666 60.4784 94 50.5543 94C26.5421 94 7.1086 74.5687 7.1086 50.554C7.1086 41.1516 10.0633 32.2031 15.653 24.6761C16.2317 23.8967 16.8345 23.1412 17.4574 22.4074C12.0596 22.7465 12.3506 22.7323 12.1798 22.7323ZM32.9903 50.554C32.9903 60.2388 40.8694 68.118 50.5543 68.118C60.239 68.118 68.1181 60.2388 68.1181 50.554C68.1181 40.8693 60.239 32.9901 50.5543 32.9901C46.2064 32.9901 42.2232 34.5788 39.1528 37.2051L45.4188 43.4712C46.8626 42.4215 48.6368 41.8001 50.5543 41.8001C55.3811 41.8001 59.3082 45.7272 59.3082 50.554C59.3082 55.3809 55.3811 59.308 50.5543 59.308C45.7273 59.308 41.8002 55.3809 41.8002 50.554C41.8002 48.6364 42.4217 46.8621 43.4713 45.4185L37.2052 39.1525C34.5791 42.2229 32.9903 46.2062 32.9903 50.554ZM51.5281 51.5278C50.9902 52.0656 50.1185 52.0656 49.5807 51.5278L45.4532 47.4003C44.884 48.3173 44.5543 49.3978 44.5543 50.5542C44.5543 53.8628 47.2459 56.5543 50.5545 56.5543C53.863 56.5543 56.5545 53.8626 56.5545 50.5542C56.5545 47.2459 53.863 44.5542 50.5545 44.5542C49.398 44.5542 48.3176 44.8839 47.4005 45.4529L51.5283 49.5806C52.0658 50.1182 52.0658 50.9901 51.5281 51.5278ZM19.9776 12.2155C19.988 12.0501 19.9267 11.888 19.8096 11.771L11.7172 3.67873L11.3575 9.40981L19.6343 17.6866L19.9776 12.2155ZM17.6869 19.6338L9.41013 11.357L3.67908 11.7167L11.7715 19.8091C11.8885 19.9263 12.0518 19.9885 12.216 19.9771L17.6869 19.6338Z" fill="url(#paint0_linear)"/>
<defs>
<linearGradient id="paint0_linear" x1="88.2469" y1="77.1495" x2="10.2028" y2="11.8308" gradientUnits="userSpaceOnUse">
<stop stop-color="#CEC067"/>
<stop offset="0.3591" stop-color="#755638"/>
<stop offset="1" stop-color="#FBD690"/>
</linearGradient>
</defs>
</svg>
