<svg width="101" height="74" viewBox="0 0 101 74" fill="none" xmlns="http://www.w3.org/2000/svg">
<path d="M99.2719 35.4623H90.7272C94.2795 27.3896 93.8954 20.8545 92.5513 16.4338C90.2472 8.55325 82.4705 0 70.9496 0C67.8774 0 64.8051 0.576623 61.6369 1.72987C56.1644 3.74805 52.5162 5.95844 50.884 7.11169C49.2519 5.95844 45.6996 3.74805 40.1312 1.72987C36.9629 0.576623 33.7947 0 30.8184 0C19.2975 0 11.5209 8.55325 9.21673 16.4338C7.87262 21.1429 7.39259 28.2545 11.9049 37.1922H1.53612C0.672053 37.1922 0 37.8649 0 38.7299C0 39.5948 0.672053 40.2675 1.53612 40.2675H13.7291C14.2091 41.1325 14.7852 41.9974 15.4572 42.8623C25.442 57.2779 47.1397 72.9429 51.076 73.9039V74C51.076 74 51.1721 74 51.2681 73.9039C51.3641 73.9039 51.4601 73.9039 51.5561 73.9039V73.8078C54.9164 72.174 75.75 58.7195 86.6949 42.7662C87.751 41.3247 88.615 39.8831 89.3831 38.4416H99.4639C100.328 38.4416 101 37.7688 101 36.9039C101 36.039 100.136 35.4623 99.2719 35.4623ZM83.9107 41.1325C73.7338 56.0286 55.0124 68.0416 50.98 70.6364C46.8517 68.0416 28.2262 55.9325 17.9534 41.1325C17.7614 40.8442 17.5694 40.5558 17.3774 40.2675H31.4905C32.0665 40.2675 32.6426 39.9792 32.9306 39.4026L39.3631 26.7169L49.4439 52.5688C49.6359 53.1455 50.308 53.5299 50.884 53.5299C50.884 53.5299 50.884 53.5299 50.98 53.5299C51.6521 53.5299 52.2281 53.0494 52.4202 52.3766L61.2529 22.1039L65.9572 37.3844C66.1492 37.961 66.6293 38.3455 67.2053 38.4416C67.7814 38.5377 68.3574 38.2494 68.7414 37.7688L72.4857 32.2909L75.654 37.6727C75.942 38.1532 76.4221 38.4416 76.9981 38.4416H85.6388C85.0627 39.4026 84.4867 40.2675 83.9107 41.1325ZM87.3669 35.4623H77.9582L74.0219 28.7351C73.7338 28.2545 73.2538 27.9662 72.6778 27.9662C72.1017 27.9662 71.6217 28.1584 71.3337 28.639L68.0694 33.4442L62.789 16.2416C62.597 15.5688 61.9249 15.1844 61.2529 15.0883C60.5808 15.0883 59.9087 15.5688 59.7167 16.2416L50.788 47.0909L41.0913 22.2961C40.8992 21.7195 40.3232 21.3351 39.7472 21.3351C39.0751 21.3351 38.5951 21.6234 38.307 22.2L30.7224 37.0961H15.4572C11.6169 30.0805 10.5608 23.3532 12.289 17.2987C14.3051 10.4753 20.9297 3.17143 30.9145 3.17143C33.6027 3.17143 36.3869 3.74805 39.1711 4.70909C46.1797 7.3039 49.924 10.2831 50.02 10.2831C50.596 10.7636 51.3641 10.7636 51.9401 10.2831C51.9401 10.2831 55.6844 7.3039 62.789 4.70909C65.5732 3.65195 68.3574 3.17143 71.0456 3.17143C80.9344 3.17143 87.6549 10.4753 89.6711 17.2987C91.3032 22.8727 90.4392 29.0234 87.3669 35.4623Z" fill="url(#paint0_linear)"/>
<defs>
<linearGradient id="paint0_linear" x1="6.18151" y1="60.7347" x2="68.0479" y2="-9.93631" gradientUnits="userSpaceOnUse">
<stop stop-color="#CEC067"/>
<stop offset="0.3591" stop-color="#755638"/>
<stop offset="1" stop-color="#FBD690"/>
</linearGradient>
</defs>
</svg>
