<svg  width="703" height="752" viewBox="0 0 703 752" fill="none" xmlns="http://www.w3.org/2000/svg">
<path opacity="0.06" d="M678.068 375.899C703.869 329.591 709.257 274.374 692.782 223.922C667.499 146.949 596.315 94.4256 515.288 92.8716C470.007 17.0384 376.442 -18.0811 292.41 9.47576C248.787 23.7722 212.004 53.1938 188.483 92.4572C169.314 92.768 150.249 95.8759 132.012 101.885C83.6237 117.735 44.3533 151.404 21.4542 196.78C-1.4449 242.155 -5.48592 293.747 10.3673 342.127C14.0975 353.522 18.9674 364.607 24.6663 375.071C-1.23766 421.482 -6.62569 476.803 9.84924 527.255C25.7025 575.531 59.3776 614.898 104.761 637.793C130.873 651.054 158.745 657.891 187.758 658.306C222.055 715.491 284.535 751.025 351.264 751.025C371.365 751.025 391.259 747.814 410.428 741.494C453.947 727.198 490.834 697.776 514.355 658.617C533.628 658.409 552.693 655.198 570.929 649.189C670.711 616.66 725.317 508.918 692.678 409.051C688.844 397.655 683.974 386.466 678.068 375.899ZM18.553 339.537L20.6253 338.708C5.7046 293.125 9.43477 244.434 31.0905 201.545C52.7462 158.759 89.8407 126.955 135.432 111.934C150.663 106.961 166.413 104.06 182.473 103.231C182.266 103.542 182.059 103.957 181.955 104.267C159.263 149.021 155.119 199.784 170.247 247.542L170.868 249.614C170.868 249.718 170.972 249.925 170.972 250.132L171.49 251.686C174.495 260.492 178.121 269.091 182.473 277.586C165.273 278.414 148.073 281.522 131.598 286.909C90.3588 300.377 54.8185 327.83 31.1941 364.297C26.9459 356.009 23.4229 347.41 20.6253 338.812L18.553 339.537ZM341.627 369.891C316.863 368.544 293.031 362.017 270.65 350.725C242.26 336.325 218.324 314.881 201.124 288.36C225.888 289.707 249.72 296.233 272.205 307.525C300.492 321.925 324.427 343.473 341.627 369.891ZM265.78 360.36C278.836 366.99 292.617 372.066 306.916 375.589C301.735 376.832 296.762 378.179 291.892 379.836C251.171 393.2 216.045 420.032 192.42 455.669C188.379 447.692 185.064 439.508 182.266 431.117C167.449 385.948 171.179 337.879 192.731 295.301C210.76 322.754 235.939 345.235 265.78 360.36ZM295.207 389.885C310.232 384.912 325.878 382.012 341.731 381.183C319.454 415.266 286.089 440.855 247.44 453.597C232.313 458.57 216.667 461.471 200.917 462.3C223.091 428.216 256.455 402.524 295.207 389.885ZM407.734 361.189C392.606 366.161 377.064 369.062 361.314 369.891C383.799 335.393 416.334 310.426 455.708 297.58C470.629 292.711 486.275 289.81 502.025 288.981C479.747 322.961 446.383 348.55 407.734 361.189ZM452.393 287.427C422.344 297.269 395.508 314.259 373.956 336.74C385.042 299.548 384.524 260.596 372.401 223.404C369.5 214.702 365.977 206 361.729 197.608C386.286 198.955 409.91 205.378 432.084 216.567C460.164 230.76 483.892 252.101 500.885 278.207C484.306 279.243 468.039 282.247 452.393 287.427ZM361.107 381.183C418.407 384.394 470.422 414.541 501.714 462.714C476.95 461.367 453.014 454.841 430.633 443.548C402.243 429.148 378.307 407.704 361.107 381.183ZM411.05 371.341C451.771 357.977 487 331.042 510.521 295.301C514.562 303.278 517.982 311.566 520.779 320.164C535.596 365.333 531.866 413.609 510.418 456.084C510.418 456.187 510.314 456.187 510.314 456.291C483.892 415.992 442.653 386.984 395.715 375.589C401.206 374.345 406.18 372.999 411.05 371.341ZM276.971 297.994C253.657 286.184 228.686 279.347 202.782 277.793C224.852 244.124 257.906 218.846 296.14 206.311C310.957 201.442 326.292 198.541 341.835 197.712C319.868 241.223 315.413 290.328 329.09 336.843C314.169 320.993 296.658 308.043 276.971 297.994ZM250.653 463.75C280.494 453.908 307.434 436.918 328.986 414.334C318.107 450.8 318.417 489.028 330.022 525.701L330.437 526.841C330.54 527.151 330.644 527.359 330.748 527.669L331.473 529.741C334.271 537.822 337.586 545.799 341.42 553.465C284.846 550.15 233.349 520.314 202.471 472.866C218.946 471.831 235.214 468.826 250.653 463.75ZM567.821 454.012C553.211 458.777 538.083 461.678 522.748 462.61C522.748 462.507 522.852 462.507 522.852 462.403C545.958 416.717 549.999 364.815 534.146 316.227L534.042 315.917C531.037 306.904 527.307 297.891 522.955 289.189C582.12 293.022 635.171 325.24 665.738 376.003C643.46 412.884 608.749 440.544 567.821 454.012ZM351.471 364.297C347.326 356.112 343.907 347.721 341.109 339.226V339.122C326.085 293.332 329.919 244.745 351.885 201.752C356.03 209.937 359.553 218.328 362.35 226.927C377.168 272.613 373.334 321.304 351.471 364.297ZM134.914 297.165C149.731 292.296 165.066 289.396 180.608 288.463C157.191 334.357 153.046 386.363 169.107 435.364C172.112 444.377 175.842 453.39 180.297 462.196C155.844 460.746 132.323 454.323 110.253 443.134C79.79 427.698 54.5077 404.181 37.2038 375.071C59.3776 338.19 94.089 310.53 134.914 297.165ZM351.264 387.192C351.264 387.192 351.264 387.088 351.367 386.984C355.408 395.065 358.931 403.456 361.729 411.951C376.753 457.638 372.919 506.225 351.16 549.114C347.119 541.034 343.596 532.746 340.902 524.251C325.878 478.772 329.608 429.977 351.264 387.192ZM373.541 413.92C406.698 448.936 452.393 470.277 500.678 473.177C478.4 507.364 446.176 532.124 407.113 544.97C392.192 549.839 376.65 552.74 361.004 553.569C382.97 509.747 387.322 460.538 373.541 413.92ZM671.644 365.229C638.28 313.43 582.223 281.212 520.572 278.207C544.404 232.417 548.755 180.411 532.695 131.099C529.69 121.775 525.856 112.659 521.194 103.749C594.968 107.686 659.521 156.895 682.524 227.237C697.755 273.235 693.818 322.029 671.644 365.229ZM512.49 270.645C494.15 242.466 468.66 219.571 438.301 204.239C414.262 192.118 388.669 185.177 362.143 183.726C384.421 150.161 417.578 124.883 455.812 112.348C473.012 106.65 490.938 103.749 509.071 103.439C514.459 113.28 519.018 123.64 522.541 134.414C537.461 179.79 533.835 227.962 512.49 270.645ZM452.496 102.195C411.05 115.767 375.406 143.427 351.782 180.204C318.521 128.198 262.672 95.7723 201.021 92.6644C223.194 58.2701 256.766 32.4744 295.829 19.6283C341.42 4.7103 390.223 8.33619 433.017 30.0916C461.615 44.5952 485.757 66.2471 502.957 92.9752C485.757 93.804 468.868 96.9119 452.496 102.195ZM341.42 183.83C324.531 184.762 307.849 187.87 291.788 193.154C250.445 206.725 214.698 234.178 190.97 270.645C187.032 262.771 183.717 254.587 181.023 246.403C166.102 200.82 169.832 152.129 191.488 109.24C192.524 107.168 193.664 105.2 194.7 103.128C253.347 104.267 309.092 134.932 341.42 183.83ZM31.1941 385.845C49.4305 414.23 75.0236 437.333 105.383 452.769C129.526 464.993 155.43 471.831 182.266 473.074C158.434 518.967 154.186 570.973 170.247 620.078C173.252 629.298 177.189 638.519 181.852 647.635C156.777 646.392 132.53 639.865 109.839 628.366C67.0452 606.714 35.2351 569.626 20.2108 523.94C4.97929 477.839 8.91669 428.941 31.1941 385.845ZM190.555 480.222C223.816 531.399 279.458 563.618 340.695 567.14C318.417 600.809 285.26 626.087 246.922 638.726C229.722 644.32 211.9 647.324 193.871 647.635C188.483 637.793 183.924 627.33 180.401 616.556C165.48 571.18 169.107 522.904 190.555 480.222ZM250.238 648.878C291.788 635.307 327.536 607.543 351.16 570.662C384.317 622.668 440.27 655.198 502.025 658.409C479.851 692.804 446.279 718.599 407.216 731.445C361.625 746.363 312.822 742.738 270.029 720.982C241.431 706.478 217.288 684.827 200.088 658.099C217.288 657.27 234.178 654.162 250.238 648.878ZM361.522 567.244C378.722 566.415 395.404 563.307 411.361 558.023C453.429 544.245 488.14 517.621 512.179 480.844C516.013 488.613 519.329 496.487 522.023 504.671C536.943 550.254 533.213 599.048 511.557 641.834C510.521 643.906 509.381 645.978 508.242 648.05C449.491 646.91 393.746 616.142 361.522 567.244ZM521.09 646.703C544.093 601.327 548.03 549.736 532.177 501.356C529.068 491.928 525.131 482.501 520.365 473.281C537.876 472.556 554.869 469.448 571.24 464.061C612.583 450.49 648.123 423.036 671.748 386.466C676.099 394.858 679.726 403.56 682.627 412.366C697.548 457.948 693.818 506.639 672.058 549.529C650.299 592.418 613.308 624.222 567.717 639.14C552.486 644.113 536.633 647.014 520.572 647.842C520.676 647.532 520.883 647.117 521.09 646.703Z" fill="url(#paint0_linear)"/>
<defs>
<linearGradient id="paint0_linear" x1="43.4115" y1="616.421" x2="658.088" y2="135.663" gradientUnits="userSpaceOnUse">
<stop stop-color="#CEC067"/>
<stop offset="0.3591" stop-color="#755638"/>
<stop offset="1" stop-color="#FBD690"/>
</linearGradient>
</defs>
</svg>
