<svg width="24" height="24" viewBox="0 0 24 24" fill="none" xmlns="http://www.w3.org/2000/svg">
<path d="M12 2.41077C8.6856 2.41077 6 5.08557 6 8.39877C6 14.1276 12 21.5988 12 21.5988C12 21.5988 18 14.1264 18 8.39877C18 5.08677 15.3144 2.41077 12 2.41077ZM12 11.712C11.1407 11.712 10.3166 11.3706 9.70897 10.763C9.10136 10.1554 8.76 9.33127 8.76 8.47197C8.76 7.61266 9.10136 6.78856 9.70897 6.18094C10.3166 5.57332 11.1407 5.23197 12 5.23197C12.8593 5.23197 13.6834 5.57332 14.291 6.18094C14.8986 6.78856 15.24 7.61266 15.24 8.47197C15.24 9.33127 14.8986 10.1554 14.291 10.763C13.6834 11.3706 12.8593 11.712 12 11.712Z" fill="#B29972"/>
</svg>
