<svg width="235" height="515" viewBox="0 0 235 515" fill="none" xmlns="http://www.w3.org/2000/svg">
<path opacity="0.75" d="M160.213 472.015C146.844 472.015 133.571 468.853 121.305 462.673C100.749 452.277 85.4635 434.455 78.2761 412.561C63.47 367.337 88.1947 318.471 133.428 303.667C178.66 288.864 227.535 313.584 242.341 358.809C249.528 380.751 247.755 404.13 237.31 424.682C226.912 445.234 209.087 460.517 187.189 467.703C178.325 470.577 169.221 472.015 160.213 472.015ZM79.6177 412.082C86.7093 433.641 101.707 451.127 121.928 461.379C142.148 471.631 165.148 473.356 186.71 466.314C208.273 459.271 225.762 444.228 236.016 424.011C246.27 403.794 247.995 380.799 240.951 359.24C226.385 314.782 178.325 290.445 133.859 305.009C89.3926 319.573 65.0512 367.576 79.6177 412.082C79.6177 412.034 79.6177 412.034 79.6177 412.082Z" fill="url(#paint0_linear)"/>
<path opacity="0.75" d="M308.513 472.254C295.145 472.254 281.872 469.092 269.606 462.912C249.05 452.516 233.764 434.695 226.577 412.801C219.389 390.907 221.162 367.48 231.608 346.928C242.006 326.376 259.831 311.093 281.728 303.907C326.961 289.104 375.836 313.824 390.642 359.049C405.448 404.321 380.723 453.139 335.49 467.99C326.626 470.817 317.522 472.254 308.513 472.254ZM227.918 412.322C234.962 433.88 250.008 451.367 270.228 461.571C290.449 471.823 313.449 473.548 335.011 466.505C379.477 451.941 403.819 403.89 389.252 359.432C382.208 337.874 367.163 320.387 346.942 310.135C326.722 299.883 303.722 298.158 282.16 305.201C260.597 312.243 243.108 327.286 232.854 347.503C222.6 367.768 220.875 390.764 227.918 412.322Z" fill="url(#paint1_linear)"/>
<path opacity="0.75" d="M309.041 215.374C272.72 215.374 238.844 192.282 226.96 155.921C212.154 110.696 236.879 61.8302 282.112 47.0268C327.345 32.2233 376.219 56.9436 391.025 102.168C398.213 124.11 396.44 147.489 385.994 168.041C375.596 188.594 357.771 203.876 335.874 211.062C326.961 213.984 317.905 215.374 309.041 215.374ZM228.302 155.441C242.916 199.9 290.928 224.237 335.395 209.673C356.957 202.63 374.446 187.587 384.7 167.37C394.954 147.153 396.679 124.158 389.636 102.599C375.021 58.1413 327.009 33.8043 282.543 48.3682C238.077 62.9321 213.736 110.983 228.302 155.441Z" fill="url(#paint2_linear)"/>
<path opacity="0.75" d="M160.692 215.278C147.324 215.278 134.051 212.116 121.784 205.936C101.228 195.54 85.9432 177.719 78.7558 155.825C71.5684 133.931 73.3413 110.504 83.787 89.9521C94.1848 69.3998 112.01 54.1173 133.907 46.9312C179.14 32.1278 228.014 56.848 242.821 102.073C250.008 124.014 248.235 147.393 237.789 167.946C227.392 188.498 209.567 203.78 187.669 210.967C178.805 213.841 169.701 215.278 160.692 215.278ZM80.0974 155.346C87.1411 176.904 102.187 194.391 122.407 204.643C142.628 214.895 165.628 216.62 187.19 209.577C208.752 202.535 226.242 187.492 236.496 167.275C246.75 147.058 248.475 124.062 241.431 102.504C226.865 57.9978 178.805 33.7087 134.338 48.2726C112.776 55.315 95.2869 70.358 85.0328 90.5749C74.7788 110.792 73.0538 133.788 80.0974 155.346Z" fill="url(#paint3_linear)"/>
<path opacity="0.75" d="M86.4715 343.479C50.1511 343.479 16.2744 320.387 4.39118 284.025C-10.4149 238.801 14.3098 189.935 59.5426 175.132C104.775 160.328 153.65 185.048 168.456 230.273C183.262 275.546 158.537 324.364 113.305 339.215C104.392 342.089 95.336 343.479 86.4715 343.479ZM5.73283 283.546C20.2993 328.004 68.3592 352.342 112.825 337.778C134.388 330.735 151.877 315.692 162.131 295.475C172.385 275.258 174.11 252.263 167.066 230.704C152.452 186.246 104.44 161.909 59.9739 176.473C15.5077 191.037 -8.83368 239.088 5.73283 283.546Z" fill="url(#paint4_linear)"/>
<path opacity="0.5" d="M86.039 428.898C72.7184 428.898 59.4456 425.784 47.227 419.556C26.7189 409.16 11.4336 391.386 4.29413 369.54C-10.512 324.411 14.2128 275.642 59.3498 260.886C81.1995 253.7 104.583 255.52 125.091 265.916C145.599 276.312 160.884 294.086 168.024 315.932C182.83 361.109 158.153 409.831 112.968 424.634C104.151 427.461 95.0952 428.898 86.039 428.898ZM86.2307 257.628C77.3183 257.628 68.358 259.066 59.6852 261.892C15.0753 276.504 -9.26614 324.603 5.30036 369.157C12.392 390.715 27.4376 408.25 47.7061 418.55C67.9747 428.802 91.0223 430.575 112.632 423.484C157.194 408.872 181.584 360.773 166.969 316.219C159.878 294.613 144.832 277.079 124.564 266.827C112.489 260.694 99.4076 257.628 86.2307 257.628Z" fill="url(#paint5_linear)"/>
<path opacity="0.5" d="M86.4741 257.772C73.1534 257.772 59.8807 254.658 47.6621 248.43C27.1539 238.034 11.8687 220.26 4.7292 198.415C-10.1248 153.286 14.5999 104.516 59.7369 89.7124C104.874 74.909 153.653 99.6293 168.411 144.758C175.598 166.652 173.825 189.983 163.427 210.487C153.03 230.992 135.253 246.274 113.403 253.412C104.538 256.335 95.4823 257.772 86.4741 257.772ZM5.73544 198.079C12.827 219.686 27.8727 237.22 48.1412 247.472C68.4097 257.724 91.4574 259.497 113.068 252.406C134.678 245.316 152.215 230.273 162.469 210.008C172.723 189.743 174.496 166.7 167.404 145.094C152.79 100.54 104.682 76.1546 60.0723 90.7664C15.5103 105.378 -8.87897 153.525 5.73544 198.079Z" fill="url(#paint6_linear)"/>
<path opacity="0.5" d="M234.818 172.305C221.498 172.305 208.225 169.191 196.006 162.963C175.498 152.567 160.213 134.793 153.073 112.948L153.6 112.756L153.073 112.948C138.219 67.8187 162.896 19.0489 208.033 4.29335C253.17 -10.5101 301.949 14.2102 316.707 59.3391C323.894 81.2328 322.121 104.564 311.724 125.068C301.326 145.573 283.549 160.855 261.699 167.993C252.883 170.868 243.826 172.305 234.818 172.305ZM154.08 112.612C161.171 134.219 176.217 151.753 196.485 162.005C216.754 172.257 239.801 174.03 261.412 166.939C283.022 159.849 300.559 144.806 310.813 124.541C321.067 104.276 322.84 81.2328 315.749 59.6266C301.086 15.0725 252.978 -9.26448 208.416 5.29941C163.854 19.9112 139.465 68.0583 154.08 112.612Z" fill="url(#paint7_linear)"/>
<path opacity="0.5" d="M234.387 514.748C198.163 514.748 164.334 491.705 152.451 455.439L152.978 455.247L152.451 455.439C145.263 433.593 147.084 410.214 157.482 389.71C167.88 369.205 185.657 353.923 207.506 346.785C229.356 339.598 252.739 341.419 273.247 351.815C293.755 362.211 309.041 379.984 316.18 401.83C330.986 447.007 306.309 495.729 261.124 510.532C252.26 513.359 243.252 514.748 234.387 514.748ZM234.387 343.479C225.475 343.479 216.515 344.916 207.842 347.743C186.232 354.833 168.694 369.876 158.44 390.141C148.186 410.406 146.413 433.449 153.505 455.056C168.119 499.61 216.227 523.994 260.789 509.383C305.351 494.771 329.74 446.672 315.126 402.118C308.034 380.511 292.989 362.977 272.72 352.725C260.645 346.593 247.564 343.479 234.387 343.479Z" fill="url(#paint8_linear)"/>
<path opacity="0.3" d="M86.614 171.778C79.1391 171.778 71.6163 170.772 64.1893 168.808C42.1478 162.867 23.7001 148.783 12.2003 129.045C12.1044 128.853 12.1523 128.661 12.344 128.566C12.5357 128.47 12.7273 128.518 12.8232 128.709C36.2542 168.999 88.2911 182.988 128.732 159.849C169.557 136.518 183.836 84.3469 160.501 43.5776C160.405 43.386 160.453 43.1943 160.644 43.0985C160.836 43.0027 161.028 43.0506 161.124 43.2422C184.603 84.3948 170.276 136.997 129.116 160.52C115.987 167.946 101.372 171.778 86.614 171.778Z" fill="url(#paint9_linear)"/>
<path opacity="0.3" d="M160.74 128.997C153.265 128.997 145.743 127.991 138.364 126.026C116.322 120.134 97.8744 106.001 86.3746 86.311C86.2787 86.1193 86.3267 85.9277 86.5183 85.8319C86.71 85.7361 86.9017 85.784 86.9975 85.9756C110.476 126.218 162.465 140.111 202.907 117.068C243.731 93.7845 257.962 41.6132 234.675 0.796026C234.579 0.604396 234.627 0.412766 234.819 0.31695C235.01 0.221135 235.202 0.269043 235.298 0.460673C258.777 41.6132 244.45 94.2157 203.29 117.738C190.065 125.164 175.499 128.997 160.74 128.997Z" fill="url(#paint10_linear)"/>
<path opacity="0.3" d="M308.896 129.476C293.994 129.476 279.236 125.547 265.963 117.882C246.078 106.384 231.895 87.844 225.953 65.6628C220.012 43.4816 223.126 20.3423 234.626 0.460673C234.722 0.269043 234.962 0.221135 235.105 0.31695C235.297 0.412766 235.345 0.652303 235.249 0.796026C223.845 20.486 220.779 43.4816 226.672 65.4712C232.566 87.4607 246.605 105.857 266.347 117.259C307.028 140.782 359.256 126.841 382.783 86.1672C382.879 85.9756 383.118 85.9277 383.262 86.0235C383.454 86.1193 383.502 86.3589 383.406 86.5026C371.906 106.384 353.362 120.565 331.177 126.505C323.798 128.517 316.323 129.476 308.896 129.476Z" fill="url(#paint11_linear)"/>
<path opacity="0.3" d="M234.148 514.508C234.004 514.508 233.908 514.461 233.812 514.317C222.456 494.387 219.533 471.2 225.571 449.067C231.656 426.933 245.983 408.489 265.916 397.087C285.753 385.781 308.801 382.811 330.842 388.751C352.884 394.692 371.331 408.824 382.783 428.562C382.879 428.754 382.831 428.946 382.64 429.041C382.448 429.137 382.256 429.089 382.161 428.898C358.73 388.607 306.741 374.618 266.251 397.71C246.462 408.968 232.279 427.269 226.241 449.21C220.204 471.152 223.127 494.148 234.387 513.934C234.483 514.125 234.435 514.317 234.243 514.413C234.291 514.461 234.243 514.508 234.148 514.508Z" fill="url(#paint12_linear)"/>
<path opacity="0.3" d="M308.369 471.871C308.226 471.871 308.13 471.823 308.034 471.679C300.607 458.744 289.826 447.917 276.888 440.396C257.195 428.994 234.243 425.928 212.202 431.772C190.208 437.617 171.808 451.702 160.404 471.392C160.309 471.584 160.069 471.631 159.925 471.536C159.734 471.44 159.686 471.2 159.781 471.057C183.548 430.048 236.256 416.011 277.272 439.773C290.305 447.342 301.182 458.217 308.705 471.296C308.801 471.488 308.753 471.679 308.561 471.775C308.513 471.823 308.465 471.871 308.369 471.871Z" fill="url(#paint13_linear)"/>
<path opacity="0.3" d="M234.244 514.461C234.196 514.461 234.1 514.461 234.052 514.413C233.86 514.317 233.813 514.077 233.908 513.934C257.148 473.5 243.252 421.424 203.003 397.902C183.357 386.404 160.405 383.29 138.364 389.039C116.322 394.836 97.8746 408.825 86.4226 428.467C86.3268 428.658 86.0872 428.706 85.9434 428.61C85.7518 428.515 85.7039 428.275 85.7997 428.131C97.3954 408.298 115.987 394.165 138.22 388.368C160.405 382.523 183.596 385.685 203.386 397.279C223.127 408.777 237.215 427.269 243.108 449.354C249.002 471.44 245.983 494.483 234.579 514.269C234.483 514.413 234.34 514.461 234.244 514.461Z" fill="url(#paint14_linear)"/>
<path opacity="0.3" d="M160.165 471.536C160.117 471.536 160.021 471.536 159.973 471.488C159.782 471.392 159.734 471.152 159.83 471.009C171.234 451.319 174.3 428.371 168.407 406.333C162.561 384.344 148.473 365.947 128.78 354.545C109.086 343.143 86.1345 340.077 64.0931 345.97C42.0996 351.815 23.6998 365.9 12.2958 385.59C12.1999 385.781 11.9604 385.829 11.8166 385.733C11.6249 385.637 11.577 385.398 11.6729 385.254C23.1727 365.373 41.7163 351.192 63.9014 345.251C86.0866 339.359 109.23 342.425 129.115 353.923C149 365.42 163.184 383.961 169.125 406.142C175.019 428.323 171.952 451.462 160.452 471.344C160.405 471.488 160.309 471.536 160.165 471.536Z" fill="url(#paint15_linear)"/>
<path opacity="0.3" d="M11.961 385.589C11.7693 385.589 11.5776 385.446 11.5776 385.206C11.5776 385.015 11.7214 384.823 11.961 384.823C58.4396 384.679 96.5329 346.736 96.9163 300.314C97.2996 253.317 59.35 214.799 12.3922 214.416C12.2005 214.416 12.0089 214.272 12.0089 214.033C12.0089 213.841 12.1526 213.649 12.3922 213.649C59.7813 214.033 98.0662 252.886 97.6829 300.266C97.4912 323.022 88.5309 344.437 72.3832 360.486C56.1875 376.631 34.7211 385.542 11.961 385.589Z" fill="url(#paint16_linear)"/>
<path opacity="0.3" d="M12.2 300.122C12.0083 300.122 11.8167 299.979 11.8167 299.739C11.8167 299.547 11.9604 299.356 12.2 299.356C58.7744 299.26 96.9636 261.269 97.2511 214.703C97.5865 167.706 59.589 129.236 12.5833 128.901C12.3916 128.901 12.2 128.757 12.2 128.518C12.2 128.326 12.3437 128.134 12.5833 128.134C59.9724 128.47 98.3052 167.275 97.9698 214.655C97.8261 237.459 88.8178 258.922 72.6701 275.019C56.5224 291.164 35.056 300.074 12.2 300.122Z" fill="url(#paint17_linear)"/>
<path opacity="0.3" d="M234.099 514.604C234.051 514.604 233.956 514.604 233.908 514.556C233.716 514.461 233.668 514.221 233.764 514.077C249.097 487.632 277.559 471.2 308.178 471.2C308.273 471.2 308.369 471.2 308.417 471.2C308.609 471.2 308.8 471.344 308.8 471.583C308.8 471.775 308.657 471.967 308.417 471.967C308.321 471.967 308.226 471.967 308.178 471.967C277.847 471.967 249.624 488.255 234.435 514.461C234.339 514.508 234.195 514.604 234.099 514.604Z" fill="url(#paint18_linear)"/>
<path opacity="0.3" d="M234.147 514.461C234.003 514.461 233.907 514.413 233.812 514.269C218.67 488.064 190.495 471.727 160.212 471.679C160.021 471.679 159.829 471.535 159.829 471.296C159.829 471.104 159.973 470.913 160.212 470.913C190.735 471.009 219.197 487.441 234.435 513.886C234.53 514.077 234.482 514.269 234.291 514.365C234.243 514.413 234.195 514.461 234.147 514.461Z" fill="url(#paint19_linear)"/>
<path opacity="0.3" d="M160.069 471.583C159.926 471.583 159.83 471.536 159.734 471.392C144.64 445.186 116.466 428.85 86.1826 428.754C85.991 428.754 85.7993 428.61 85.7993 428.371C85.7993 428.179 85.9431 427.988 86.1826 427.988C116.705 428.083 145.12 444.564 160.357 471.009C160.453 471.2 160.405 471.392 160.213 471.488C160.213 471.583 160.117 471.583 160.069 471.583Z" fill="url(#paint20_linear)"/>
<path opacity="0.3" d="M85.9908 428.562C85.9429 428.562 85.847 428.562 85.7991 428.515C85.6074 428.419 85.5595 428.179 85.6553 428.035C93.1303 415.148 97.0594 400.441 97.1073 385.542C97.1552 362.785 88.3387 341.371 72.2388 325.226C56.1869 309.081 34.7684 300.218 12.0083 300.17C11.8166 300.17 11.6249 300.027 11.6249 299.787C11.6249 299.595 11.7687 299.404 12.0083 299.404C34.9601 299.452 56.5223 308.41 72.7659 324.699C88.9616 340.94 97.874 362.546 97.826 385.494C97.7781 400.537 93.8011 415.34 86.2783 428.371C86.2783 428.515 86.1345 428.562 85.9908 428.562Z" fill="url(#paint21_linear)"/>
<path opacity="0.3" d="M85.9908 428.658C85.847 428.658 85.7512 428.61 85.6553 428.467C70.5139 402.261 42.2913 385.925 12.0083 385.877C11.8166 385.877 11.6249 385.733 11.6249 385.494C11.6249 385.302 11.7687 385.11 12.0083 385.11C42.5308 385.158 70.993 401.638 86.2783 428.083C86.3741 428.275 86.3262 428.467 86.1345 428.562C86.0866 428.658 86.0387 428.658 85.9908 428.658Z" fill="url(#paint22_linear)"/>
<path opacity="0.3" d="M11.961 385.685C11.913 385.685 11.8172 385.685 11.7693 385.637C11.5776 385.541 11.5297 385.302 11.6256 385.158C26.815 358.953 26.9587 326.376 11.913 300.074C11.8172 299.883 11.8651 299.691 12.0568 299.595C12.2485 299.5 12.4401 299.547 12.536 299.739C27.7254 326.28 27.5816 359.144 12.2485 385.541C12.2005 385.637 12.1047 385.685 11.961 385.685Z" fill="url(#paint23_linear)"/>
<path opacity="0.3" d="M12.1525 299.931C12.1046 299.931 12.0087 299.931 11.9608 299.883C11.7692 299.787 11.7212 299.547 11.8171 299.404C26.9107 273.246 26.9586 240.717 11.9608 214.559C11.865 214.368 11.9129 214.176 12.1046 214.08C12.2962 213.984 12.4879 214.032 12.5837 214.224C27.6773 240.669 27.6294 273.438 12.44 299.835C12.3921 299.883 12.2962 299.931 12.1525 299.931Z" fill="url(#paint24_linear)"/>
<path opacity="0.3" d="M12.3442 214.559C12.2963 214.559 12.2005 214.559 12.1525 214.512C11.9609 214.416 11.913 214.176 12.0088 214.032C27.1982 187.827 27.342 155.25 12.2963 128.949C12.2005 128.757 12.2484 128.565 12.44 128.47C12.6317 128.374 12.8234 128.422 12.9192 128.613C28.1086 155.154 27.9649 188.019 12.6317 214.464C12.5838 214.464 12.44 214.559 12.3442 214.559Z" fill="url(#paint25_linear)"/>
<path opacity="0.3" d="M12.4878 214.607C12.2482 214.607 12.0565 214.464 12.0565 214.224C12.0565 214.033 12.2003 213.841 12.4398 213.841H12.4878C27.3418 213.841 42.0041 209.96 54.8935 202.535C74.635 191.229 88.8182 172.88 94.7598 150.938C100.701 128.949 97.7785 106.001 86.4703 86.2632C86.3744 86.0716 86.4223 85.8799 86.614 85.7841C86.8057 85.6883 86.9973 85.7362 87.0932 85.9278C98.4972 105.857 101.468 128.997 95.4785 151.178C89.489 173.311 75.1621 191.803 55.2769 203.253C42.2437 210.679 27.4376 214.607 12.4878 214.607Z" fill="url(#paint26_linear)"/>
<path opacity="0.3" d="M12.6315 128.997C12.3919 128.997 12.2482 128.853 12.2482 128.613C12.2482 128.422 12.3919 128.23 12.6315 128.23C12.6315 128.23 12.6315 128.23 12.6794 128.23C42.9145 128.23 71.1371 111.989 86.3265 85.8798C86.4223 85.6882 86.6619 85.6403 86.8057 85.7361C86.9973 85.8319 87.0452 86.0714 86.9494 86.2152C71.6162 112.612 43.1541 128.997 12.6315 128.997Z" fill="url(#paint27_linear)"/>
<path opacity="0.3" d="M86.7573 86.359C86.5177 86.359 86.374 86.2153 86.374 85.9757C86.374 85.7841 86.5177 85.5925 86.7573 85.5925C117.04 85.5925 145.263 69.3518 160.452 43.1464C160.548 42.9548 160.788 42.9069 160.931 43.0027C161.123 43.0985 161.171 43.338 161.075 43.4818C145.79 69.9746 117.28 86.359 86.7573 86.359Z" fill="url(#paint28_linear)"/>
<path opacity="0.3" d="M160.932 43.6734C160.692 43.6734 160.501 43.5297 160.501 43.2901C160.501 43.0985 160.645 42.9069 160.884 42.9069H160.932C191.215 42.9069 219.486 26.6183 234.675 0.412883C234.771 0.221252 235.01 0.173345 235.154 0.26916C235.346 0.364975 235.394 0.604513 235.298 0.748235C219.965 27.2411 191.503 43.6734 160.932 43.6734Z" fill="url(#paint29_linear)"/>
<path opacity="0.3" d="M234.771 86.5506C220.157 86.5506 205.398 82.8138 191.838 75.0049C178.805 67.4834 167.976 56.6084 160.453 43.5776C160.357 43.386 160.405 43.1943 160.597 43.0985C160.788 43.0027 160.98 43.0506 161.076 43.2422C168.551 56.1294 179.284 66.9085 192.174 74.3821C232.854 97.9047 285.083 83.9636 308.658 43.2901C308.753 43.0985 308.993 43.0506 309.137 43.1464C309.328 43.2422 309.376 43.4818 309.281 43.6255C293.372 71.1723 264.479 86.5506 234.771 86.5506Z" fill="url(#paint30_linear)"/>
<path opacity="0.3" d="M308.993 43.7691C278.423 43.7691 249.912 27.289 234.627 0.843999C234.531 0.652369 234.579 0.460739 234.771 0.364924C234.963 0.269109 235.154 0.317017 235.25 0.508647C250.44 26.762 278.662 43.0505 308.993 43.0984C309.185 43.0984 309.376 43.2422 309.376 43.4817C309.328 43.6254 309.185 43.7691 308.993 43.7691Z" fill="url(#paint31_linear)"/>
<path d="M385.706 257.533C397.637 236.118 400.129 210.583 392.51 187.252C380.818 151.657 347.9 127.368 310.43 126.649C289.49 91.5809 246.222 75.3403 207.362 88.0837C187.189 94.6949 170.179 108.301 159.302 126.458C150.438 126.601 141.621 128.039 133.188 130.817C110.811 138.147 92.6509 153.717 82.0614 174.7C71.472 195.684 69.6032 219.542 76.9344 241.915C78.6594 247.185 80.9114 252.311 83.5468 257.149C71.5678 278.612 69.0762 304.195 76.6948 327.526C84.026 349.85 99.5987 368.055 120.586 378.643C132.661 384.775 145.55 387.937 158.967 388.129C174.827 414.573 203.72 431.006 234.578 431.006C243.874 431.006 253.074 429.521 261.939 426.598C282.063 419.987 299.121 406.381 309.998 388.272C318.911 388.176 327.727 386.691 336.161 383.913C382.304 368.87 407.556 319.046 392.462 272.863C390.689 267.593 388.437 262.419 385.706 257.533ZM80.7198 240.717L81.6781 240.334C74.7782 219.254 76.5032 196.738 86.5176 176.904C96.5321 157.118 113.686 142.411 134.769 135.464C141.813 133.165 149.096 131.823 156.523 131.44C156.427 131.584 156.331 131.775 156.284 131.919C145.79 152.615 143.873 176.09 150.869 198.175L151.156 199.133C151.156 199.181 151.204 199.277 151.204 199.373L151.444 200.091C152.834 204.164 154.511 208.14 156.523 212.068C148.569 212.452 140.615 213.889 132.996 216.38C113.926 222.608 97.4904 235.303 86.5655 252.167C84.601 248.334 82.9718 244.358 81.6781 240.382L80.7198 240.717ZM230.122 254.754C218.67 254.131 207.65 251.113 197.3 245.891C184.171 239.232 173.102 229.315 165.148 217.051C176.6 217.674 187.621 220.692 198.018 225.914C211.1 232.573 222.168 242.538 230.122 254.754ZM195.048 250.346C201.085 253.413 207.458 255.76 214.07 257.389C211.675 257.964 209.375 258.587 207.123 259.353C188.291 265.533 172.048 277.941 161.123 294.421C159.254 290.733 157.721 286.948 156.427 283.067C149.575 262.18 151.3 239.951 161.267 220.261C169.604 232.956 181.248 243.352 195.048 250.346ZM208.656 264C215.604 261.701 222.839 260.359 230.17 259.976C219.868 275.737 204.439 287.571 186.566 293.463C179.571 295.763 172.335 297.104 165.052 297.487C175.306 281.726 190.735 269.845 208.656 264ZM260.693 250.73C253.697 253.029 246.51 254.371 239.226 254.754C249.624 238.801 264.67 227.255 282.878 221.315C289.778 219.063 297.013 217.721 304.296 217.338C293.994 233.052 278.565 244.885 260.693 250.73ZM281.345 216.62C267.449 221.171 255.039 229.028 245.072 239.424C250.199 222.225 249.96 204.212 244.353 187.013C243.012 182.988 241.383 178.964 239.418 175.084C250.774 175.707 261.699 178.677 271.953 183.851C284.938 190.414 295.911 200.283 303.769 212.356C296.103 212.835 288.58 214.224 281.345 216.62ZM239.13 259.976C265.628 261.461 289.682 275.402 304.153 297.679C292.701 297.056 281.632 294.038 271.282 288.816C258.153 282.157 247.085 272.24 239.13 259.976ZM262.226 255.425C281.057 249.245 297.349 236.789 308.226 220.261C310.094 223.949 311.676 227.782 312.969 231.758C319.821 252.646 318.096 274.971 308.178 294.613C308.178 294.661 308.13 294.661 308.13 294.709C295.911 276.073 276.84 262.659 255.134 257.389C257.674 256.814 259.974 256.191 262.226 255.425ZM200.223 221.506C189.441 216.045 177.894 212.883 165.915 212.164C176.121 196.594 191.406 184.905 209.087 179.108C215.939 176.856 223.031 175.515 230.218 175.132C220.06 195.253 217.999 217.961 224.324 239.471C217.424 232.142 209.327 226.153 200.223 221.506ZM188.052 298.158C201.852 293.607 214.31 285.75 224.277 275.306C219.245 292.17 219.389 309.848 224.756 326.807L224.947 327.334C224.995 327.478 225.043 327.573 225.091 327.717L225.426 328.675C226.72 332.412 228.254 336.101 230.026 339.646C203.864 338.113 180.05 324.316 165.771 302.374C173.39 301.895 180.912 300.506 188.052 298.158ZM334.723 293.655C327.967 295.859 320.971 297.2 313.88 297.631C313.88 297.583 313.928 297.583 313.928 297.535C324.613 276.408 326.482 252.407 319.15 229.938L319.102 229.794C317.713 225.626 315.988 221.458 313.975 217.434C341.336 219.207 365.869 234.106 380.004 257.581C369.702 274.636 353.65 287.427 334.723 293.655ZM234.674 252.167C232.758 248.382 231.176 244.502 229.883 240.573V240.525C222.935 219.35 224.708 196.882 234.866 177C236.783 180.785 238.412 184.665 239.705 188.642C246.557 209.769 244.785 232.285 234.674 252.167ZM134.53 221.123C141.382 218.871 148.473 217.53 155.661 217.099C144.832 238.322 142.915 262.371 150.342 285.032C151.731 289.199 153.456 293.367 155.517 297.44C144.209 296.769 133.332 293.799 123.126 288.625C109.038 281.486 97.3467 270.611 89.3447 257.149C99.5987 240.094 115.651 227.303 134.53 221.123ZM234.578 262.755C234.578 262.755 234.578 262.707 234.626 262.659C236.495 266.395 238.124 270.276 239.418 274.204C246.366 295.332 244.593 317.8 234.531 337.634C232.662 333.897 231.033 330.065 229.787 326.136C222.839 305.105 224.564 282.54 234.578 262.755ZM244.88 275.115C260.214 291.307 281.345 301.176 303.674 302.518C293.372 318.327 278.47 329.777 260.405 335.718C253.505 337.969 246.318 339.311 239.083 339.694C249.241 319.429 251.253 296.673 244.88 275.115ZM382.735 252.598C367.306 228.644 341.384 213.745 312.873 212.356C323.894 191.181 325.907 167.131 318.48 144.327C317.09 140.015 315.317 135.8 313.161 131.68C347.277 133.5 377.129 156.256 387.766 188.785C394.81 210.056 392.989 232.621 382.735 252.598ZM309.136 208.859C300.655 195.828 288.867 185.24 274.828 178.15C263.711 172.545 251.876 169.335 239.61 168.664C249.912 153.142 265.245 141.453 282.926 135.656C290.88 133.021 299.169 131.68 307.555 131.536C310.046 136.087 312.155 140.878 313.784 145.86C320.684 166.844 319.007 189.121 309.136 208.859ZM281.393 130.961C262.226 137.237 245.743 150.028 234.818 167.035C219.437 142.986 193.61 127.991 165.1 126.553C175.354 110.648 190.879 98.7192 208.943 92.7786C230.026 85.8799 252.595 87.5567 272.384 97.6173C285.609 104.324 296.774 114.337 304.728 126.697C296.774 127.08 288.963 128.518 281.393 130.961ZM230.026 168.712C222.216 169.143 214.502 170.58 207.075 173.024C187.956 179.3 171.425 191.995 160.452 208.859C158.631 205.218 157.098 201.433 155.852 197.648C148.952 176.569 150.677 154.052 160.692 134.219C161.171 133.26 161.698 132.35 162.177 131.392C189.298 131.919 215.077 146.1 230.026 168.712ZM86.5655 262.132C94.9988 275.258 106.834 285.942 120.873 293.08C132.038 298.733 144.017 301.895 156.427 302.47C145.407 323.693 143.442 347.742 150.869 370.451C152.259 374.714 154.079 378.978 156.236 383.194C144.64 382.619 133.428 379.601 122.934 374.283C103.145 364.271 88.4343 347.12 81.4864 325.992C74.4428 304.674 76.2636 282.061 86.5655 262.132ZM160.261 305.775C175.642 329.442 201.373 344.341 229.691 345.97C219.389 361.54 204.056 373.229 186.327 379.074C178.373 381.661 170.131 383.05 161.794 383.194C159.302 378.643 157.194 373.804 155.565 368.822C148.665 347.838 150.342 325.513 160.261 305.775ZM187.86 383.769C207.075 377.493 223.606 364.654 234.531 347.599C249.864 371.648 275.738 386.691 304.296 388.176C294.042 404.082 278.518 416.011 260.453 421.951C239.37 428.85 216.802 427.173 197.012 417.113C183.787 410.406 172.623 400.393 164.669 388.033C172.623 387.649 180.433 386.212 187.86 383.769ZM239.322 346.018C247.276 345.635 254.991 344.197 262.37 341.754C281.824 335.382 297.876 323.07 308.992 306.063C310.765 309.656 312.298 313.297 313.544 317.082C320.444 338.161 318.719 360.725 308.705 380.511C308.226 381.469 307.698 382.428 307.171 383.386C280.003 382.859 254.224 368.63 239.322 346.018ZM313.113 382.763C323.75 361.779 325.571 337.921 318.24 315.549C316.803 311.189 314.982 306.829 312.778 302.566C320.875 302.23 328.734 300.793 336.304 298.302C355.423 292.026 371.858 279.331 382.783 262.419C384.796 266.3 386.473 270.324 387.814 274.396C394.714 295.475 392.989 317.992 382.927 337.826C372.864 357.659 355.758 372.367 334.675 379.266C327.632 381.565 320.3 382.907 312.873 383.29C312.921 383.146 313.017 382.955 313.113 382.763Z" fill="url(#paint32_linear)"/>
<defs>
<linearGradient id="paint0_linear" x1="73.9349" y1="385.655" x2="246.652" y2="385.655" gradientUnits="userSpaceOnUse">
<stop stop-color="#CEC067"/>
<stop offset="0.3591" stop-color="#755638"/>
<stop offset="1" stop-color="#FBD690"/>
</linearGradient>
<linearGradient id="paint1_linear" x1="222.203" y1="385.91" x2="394.918" y2="385.91" gradientUnits="userSpaceOnUse">
<stop stop-color="#CEC067"/>
<stop offset="0.3591" stop-color="#755638"/>
<stop offset="1" stop-color="#FBD690"/>
</linearGradient>
<linearGradient id="paint2_linear" x1="222.626" y1="129.026" x2="395.344" y2="129.026" gradientUnits="userSpaceOnUse">
<stop stop-color="#CEC067"/>
<stop offset="0.3591" stop-color="#755638"/>
<stop offset="1" stop-color="#FBD690"/>
</linearGradient>
<linearGradient id="paint3_linear" x1="74.3767" y1="128.926" x2="247.131" y2="128.926" gradientUnits="userSpaceOnUse">
<stop stop-color="#CEC067"/>
<stop offset="0.3591" stop-color="#755638"/>
<stop offset="1" stop-color="#FBD690"/>
</linearGradient>
<linearGradient id="paint4_linear" x1="0.0547666" y1="257.126" x2="172.734" y2="257.126" gradientUnits="userSpaceOnUse">
<stop stop-color="#CEC067"/>
<stop offset="0.3591" stop-color="#755638"/>
<stop offset="1" stop-color="#FBD690"/>
</linearGradient>
<linearGradient id="paint5_linear" x1="-0.0183255" y1="342.698" x2="172.295" y2="342.698" gradientUnits="userSpaceOnUse">
<stop stop-color="#CEC067"/>
<stop offset="0.3591" stop-color="#755638"/>
<stop offset="1" stop-color="#FBD690"/>
</linearGradient>
<linearGradient id="paint6_linear" x1="0.388482" y1="171.611" x2="172.74" y2="171.611" gradientUnits="userSpaceOnUse">
<stop stop-color="#CEC067"/>
<stop offset="0.3591" stop-color="#755638"/>
<stop offset="1" stop-color="#FBD690"/>
</linearGradient>
<linearGradient id="paint7_linear" x1="148.727" y1="86.1496" x2="321.079" y2="86.1496" gradientUnits="userSpaceOnUse">
<stop stop-color="#CEC067"/>
<stop offset="0.3591" stop-color="#755638"/>
<stop offset="1" stop-color="#FBD690"/>
</linearGradient>
<linearGradient id="paint8_linear" x1="148.133" y1="428.569" x2="320.482" y2="428.569" gradientUnits="userSpaceOnUse">
<stop stop-color="#CEC067"/>
<stop offset="0.3591" stop-color="#755638"/>
<stop offset="1" stop-color="#FBD690"/>
</linearGradient>
<linearGradient id="paint9_linear" x1="12.1499" y1="107.401" x2="172.452" y2="107.401" gradientUnits="userSpaceOnUse">
<stop stop-color="#CEC067"/>
<stop offset="0.3591" stop-color="#755638"/>
<stop offset="1" stop-color="#FBD690"/>
</linearGradient>
<linearGradient id="paint10_linear" x1="86.2912" y1="64.6098" x2="246.548" y2="64.6098" gradientUnits="userSpaceOnUse">
<stop stop-color="#CEC067"/>
<stop offset="0.3591" stop-color="#755638"/>
<stop offset="1" stop-color="#FBD690"/>
</linearGradient>
<linearGradient id="paint11_linear" x1="223.012" y1="64.8829" x2="383.468" y2="64.8829" gradientUnits="userSpaceOnUse">
<stop stop-color="#CEC067"/>
<stop offset="0.3591" stop-color="#755638"/>
<stop offset="1" stop-color="#FBD690"/>
</linearGradient>
<linearGradient id="paint12_linear" x1="222.535" y1="450.131" x2="382.903" y2="450.131" gradientUnits="userSpaceOnUse">
<stop stop-color="#CEC067"/>
<stop offset="0.3591" stop-color="#755638"/>
<stop offset="1" stop-color="#FBD690"/>
</linearGradient>
<linearGradient id="paint13_linear" x1="159.741" y1="450.033" x2="308.745" y2="450.033" gradientUnits="userSpaceOnUse">
<stop stop-color="#CEC067"/>
<stop offset="0.3591" stop-color="#755638"/>
<stop offset="1" stop-color="#FBD690"/>
</linearGradient>
<linearGradient id="paint14_linear" x1="85.7115" y1="449.98" x2="245.99" y2="449.98" gradientUnits="userSpaceOnUse">
<stop stop-color="#CEC067"/>
<stop offset="0.3591" stop-color="#755638"/>
<stop offset="1" stop-color="#FBD690"/>
</linearGradient>
<linearGradient id="paint15_linear" x1="11.6369" y1="406.941" x2="172.083" y2="406.941" gradientUnits="userSpaceOnUse">
<stop stop-color="#CEC067"/>
<stop offset="0.3591" stop-color="#755638"/>
<stop offset="1" stop-color="#FBD690"/>
</linearGradient>
<linearGradient id="paint16_linear" x1="11.5834" y1="299.65" x2="97.6379" y2="299.65" gradientUnits="userSpaceOnUse">
<stop stop-color="#CEC067"/>
<stop offset="0.3591" stop-color="#755638"/>
<stop offset="1" stop-color="#FBD690"/>
</linearGradient>
<linearGradient id="paint17_linear" x1="11.8545" y1="214.161" x2="98.0058" y2="214.161" gradientUnits="userSpaceOnUse">
<stop stop-color="#CEC067"/>
<stop offset="0.3591" stop-color="#755638"/>
<stop offset="1" stop-color="#FBD690"/>
</linearGradient>
<linearGradient id="paint18_linear" x1="233.709" y1="492.873" x2="308.779" y2="492.873" gradientUnits="userSpaceOnUse">
<stop stop-color="#CEC067"/>
<stop offset="0.3591" stop-color="#755638"/>
<stop offset="1" stop-color="#FBD690"/>
</linearGradient>
<linearGradient id="paint19_linear" x1="159.838" y1="492.683" x2="234.49" y2="492.683" gradientUnits="userSpaceOnUse">
<stop stop-color="#CEC067"/>
<stop offset="0.3591" stop-color="#755638"/>
<stop offset="1" stop-color="#FBD690"/>
</linearGradient>
<linearGradient id="paint20_linear" x1="85.8606" y1="449.827" x2="160.44" y2="449.827" gradientUnits="userSpaceOnUse">
<stop stop-color="#CEC067"/>
<stop offset="0.3591" stop-color="#755638"/>
<stop offset="1" stop-color="#FBD690"/>
</linearGradient>
<linearGradient id="paint21_linear" x1="11.6906" y1="364.01" x2="97.8725" y2="364.01" gradientUnits="userSpaceOnUse">
<stop stop-color="#CEC067"/>
<stop offset="0.3591" stop-color="#755638"/>
<stop offset="1" stop-color="#FBD690"/>
</linearGradient>
<linearGradient id="paint22_linear" x1="11.6748" y1="406.903" x2="86.3492" y2="406.903" gradientUnits="userSpaceOnUse">
<stop stop-color="#CEC067"/>
<stop offset="0.3591" stop-color="#755638"/>
<stop offset="1" stop-color="#FBD690"/>
</linearGradient>
<linearGradient id="paint23_linear" x1="11.6059" y1="342.602" x2="23.872" y2="342.602" gradientUnits="userSpaceOnUse">
<stop stop-color="#CEC067"/>
<stop offset="0.3591" stop-color="#755638"/>
<stop offset="1" stop-color="#FBD690"/>
</linearGradient>
<linearGradient id="paint24_linear" x1="11.796" y1="256.968" x2="23.9322" y2="256.968" gradientUnits="userSpaceOnUse">
<stop stop-color="#CEC067"/>
<stop offset="0.3591" stop-color="#755638"/>
<stop offset="1" stop-color="#FBD690"/>
</linearGradient>
<linearGradient id="paint25_linear" x1="11.9604" y1="171.449" x2="24.2269" y2="171.449" gradientUnits="userSpaceOnUse">
<stop stop-color="#CEC067"/>
<stop offset="0.3591" stop-color="#755638"/>
<stop offset="1" stop-color="#FBD690"/>
</linearGradient>
<linearGradient id="paint26_linear" x1="12.0541" y1="150.179" x2="98.4694" y2="150.179" gradientUnits="userSpaceOnUse">
<stop stop-color="#CEC067"/>
<stop offset="0.3591" stop-color="#755638"/>
<stop offset="1" stop-color="#FBD690"/>
</linearGradient>
<linearGradient id="paint27_linear" x1="12.2558" y1="107.367" x2="86.9945" y2="107.367" gradientUnits="userSpaceOnUse">
<stop stop-color="#CEC067"/>
<stop offset="0.3591" stop-color="#755638"/>
<stop offset="1" stop-color="#FBD690"/>
</linearGradient>
<linearGradient id="paint28_linear" x1="86.3898" y1="64.6909" x2="161.17" y2="64.6909" gradientUnits="userSpaceOnUse">
<stop stop-color="#CEC067"/>
<stop offset="0.3591" stop-color="#755638"/>
<stop offset="1" stop-color="#FBD690"/>
</linearGradient>
<linearGradient id="paint29_linear" x1="160.517" y1="21.955" x2="235.359" y2="21.955" gradientUnits="userSpaceOnUse">
<stop stop-color="#CEC067"/>
<stop offset="0.3591" stop-color="#755638"/>
<stop offset="1" stop-color="#FBD690"/>
</linearGradient>
<linearGradient id="paint30_linear" x1="160.413" y1="64.8059" x2="309.357" y2="64.8059" gradientUnits="userSpaceOnUse">
<stop stop-color="#CEC067"/>
<stop offset="0.3591" stop-color="#755638"/>
<stop offset="1" stop-color="#FBD690"/>
</linearGradient>
<linearGradient id="paint31_linear" x1="234.551" y1="22.0388" x2="309.337" y2="22.0388" gradientUnits="userSpaceOnUse">
<stop stop-color="#CEC067"/>
<stop offset="0.3591" stop-color="#755638"/>
<stop offset="1" stop-color="#FBD690"/>
</linearGradient>
<linearGradient id="paint32_linear" x1="92.2153" y1="368.76" x2="376.466" y2="146.438" gradientUnits="userSpaceOnUse">
<stop stop-color="#CEC067"/>
<stop offset="0.3591" stop-color="#755638"/>
<stop offset="1" stop-color="#FBD690"/>
</linearGradient>
</defs>
</svg>
