<svg width="141" height="154" viewBox="0 0 141 154" fill="none" xmlns="http://www.w3.org/2000/svg">
<path opacity="0.75" d="M47.8193 140.909C43.8291 140.909 39.8676 139.965 36.2063 138.12C30.0709 135.017 25.5087 129.697 23.3634 123.161C18.9442 109.66 26.3239 95.0723 39.8247 90.653C53.3255 86.2338 67.9132 93.6135 72.3324 107.114C74.4776 113.664 73.9485 120.644 70.8307 126.779C67.7273 132.915 62.407 137.477 55.8712 139.622C53.2253 140.48 50.508 140.909 47.8193 140.909ZM23.7639 123.018C25.8805 129.454 30.357 134.674 36.3923 137.734C42.4276 140.795 49.2924 141.31 55.7281 139.207C62.1639 137.105 67.384 132.614 70.4446 126.579C73.5051 120.544 74.02 113.679 71.9176 107.243C67.5699 93.971 53.2253 86.7058 39.9534 91.0535C26.6814 95.4012 19.4162 109.731 23.7639 123.018C23.7639 123.003 23.7639 123.003 23.7639 123.018Z" fill="url(#paint0_linear)"/>
<path opacity="0.75" d="M92.0831 140.98C88.0929 140.98 84.1314 140.037 80.4701 138.192C74.3347 135.088 69.7725 129.768 67.6272 123.232C65.482 116.696 66.0111 109.703 69.1289 103.567C72.2324 97.4318 77.5526 92.8696 84.0885 90.7243C97.5893 86.3051 112.177 93.6848 116.596 107.186C121.015 120.701 113.636 135.274 100.135 139.708C97.4891 140.551 94.7718 140.98 92.0831 140.98ZM68.0277 123.089C70.13 129.525 74.6208 134.745 80.6561 137.791C86.6914 140.852 93.5562 141.367 99.9919 139.264C113.264 134.917 120.529 120.572 116.181 107.3C114.079 100.864 109.588 95.6441 103.553 92.5836C97.5178 89.523 90.6529 89.0081 84.2172 91.1105C77.7814 93.2128 72.5613 97.7036 69.5008 103.739C66.4402 109.788 65.9253 116.653 68.0277 123.089Z" fill="url(#paint1_linear)"/>
<path opacity="0.75" d="M114.294 102.666C103.453 102.666 93.3416 95.7726 89.7948 84.9176C85.3755 71.4168 92.7552 56.8291 106.256 52.4099C119.757 47.9907 134.345 55.3703 138.764 68.8711C140.909 75.4213 140.38 82.4005 137.262 88.5359C134.159 94.6713 128.838 99.2336 122.302 101.379C119.642 102.251 116.954 102.666 114.294 102.666ZM90.2095 84.7746C90.2095 84.7889 90.2238 84.8032 90.2238 84.8032C94.5715 98.0465 108.902 105.312 122.174 100.964C128.61 98.8617 133.83 94.371 136.89 88.3357C139.951 82.3004 140.466 75.4356 138.363 68.9998C136.261 62.5641 131.77 57.344 125.735 54.2834C119.7 51.2228 112.835 50.708 106.399 52.8103C93.1128 57.1723 85.8618 71.5026 90.2095 84.7746Z" fill="url(#paint2_linear)"/>
<path opacity="0.75" d="M92.2404 64.2947C81.3997 64.2947 71.2884 57.4012 67.7416 46.5463C63.3224 33.0455 70.7021 18.4578 84.2028 14.0385C97.7036 9.61932 112.291 16.999 116.711 30.4998C118.856 37.0499 118.327 44.0292 115.209 50.1646C112.105 56.3 106.785 60.8623 100.249 63.0075C97.5892 63.8799 94.8862 64.2947 92.2404 64.2947ZM68.1421 46.4033C72.5041 59.6752 86.8344 66.9405 100.106 62.5928C106.542 60.4904 111.762 55.9997 114.823 49.9644C117.883 43.9291 118.398 37.0643 116.296 30.6285C111.934 17.3565 97.6035 10.0913 84.3316 14.439C71.0596 18.7867 63.7943 33.1313 68.1421 46.4033Z" fill="url(#paint3_linear)"/>
<path opacity="0.75" d="M47.9623 64.2666C43.9722 64.2666 40.0106 63.3227 36.3494 61.4778C30.2139 58.3743 25.6517 53.0541 23.5064 46.5182C21.3612 39.9823 21.8904 32.9888 25.0081 26.8534C28.1116 20.718 33.4318 16.1557 39.9677 14.0105C53.4685 9.59125 68.0562 16.9709 72.4754 30.4717C74.6207 37.0219 74.0915 44.0011 70.9737 50.1365C67.8703 56.2719 62.55 60.8342 56.0142 62.9794C53.3684 63.8375 50.651 64.2666 47.9623 64.2666ZM23.9069 46.3752C26.0092 52.8109 30.5 58.031 36.5353 61.0916C42.5706 64.1522 49.4354 64.667 55.8712 62.5647C62.3069 60.4623 67.527 55.9716 70.5876 49.9363C73.6481 43.901 74.163 37.0362 72.0607 30.6004C67.7129 17.3142 53.3684 10.0632 40.0964 14.4109C33.6606 16.5133 28.4405 21.004 25.38 27.0393C22.3194 33.0746 21.8045 39.9394 23.9069 46.3752Z" fill="url(#paint4_linear)"/>
<path opacity="0.75" d="M25.8091 102.538C14.9684 102.538 4.85709 95.6442 1.31027 84.7892C-3.10895 71.2884 4.27072 56.7007 17.7715 52.2815C31.2723 47.8622 45.86 55.2419 50.2792 68.7427C54.6985 82.2578 47.3188 96.8312 33.818 101.265C31.1579 102.123 28.4549 102.538 25.8091 102.538ZM1.71072 84.6462C6.05843 97.9181 20.403 105.183 33.675 100.836C40.1107 98.7333 45.3308 94.2426 48.3914 88.2073C51.452 82.172 51.9668 75.3072 49.8645 68.8714C45.5025 55.5995 31.1722 48.3342 17.9002 52.6819C4.62826 57.0296 -2.63699 71.3742 1.71072 84.6462Z" fill="url(#paint5_linear)"/>
<path opacity="0.5" d="M25.6803 128.037C21.7045 128.037 17.7429 127.108 14.096 125.249C7.97487 122.145 3.41263 116.839 1.28168 110.318C-3.13754 96.8454 4.24213 82.2863 17.7143 77.8814C24.2359 75.7361 31.2151 76.2796 37.3362 79.3831C43.4573 82.4865 48.0196 87.7924 50.1505 94.314C54.5697 107.8 47.2044 122.345 33.7179 126.765C31.0864 127.608 28.3834 128.037 25.6803 128.037ZM25.7376 76.9089C23.0774 76.9089 20.403 77.3379 17.8144 78.1817C4.49956 82.5437 -2.76569 96.9026 1.58202 110.203C3.69867 116.639 8.18939 121.873 14.239 124.948C20.2886 128.009 27.1677 128.538 33.6178 126.421C46.9184 122.059 54.1979 107.7 49.8359 94.3998C47.7192 87.9498 43.2285 82.7153 37.1789 79.6548C33.5749 77.8242 29.6705 76.9089 25.7376 76.9089Z" fill="url(#paint6_linear)"/>
<path opacity="0.5" d="M25.8091 76.952C21.8333 76.952 17.8717 76.0224 14.2248 74.1632C8.10365 71.0597 3.54141 65.7538 1.41046 59.2322C-3.02306 45.76 4.35661 31.2009 17.8288 26.7817C31.301 22.3625 45.8601 29.7421 50.265 43.2143C52.4103 49.7502 51.8811 56.7151 48.7776 62.8362C45.6742 68.9573 40.3682 73.5196 33.8467 75.6505C31.2009 76.5229 28.4978 76.952 25.8091 76.952ZM1.7108 59.1321C3.82745 65.5821 8.31817 70.8166 14.3678 73.8771C20.4174 76.9377 27.2965 77.4668 33.7466 75.3502C40.1966 73.2335 45.431 68.7428 48.4916 62.6932C51.5522 56.6436 52.0813 49.7645 49.9647 43.3144C45.6027 30.0139 31.2438 22.7343 17.9289 27.0963C4.62834 31.4583 -2.65122 45.8315 1.7108 59.1321Z" fill="url(#paint7_linear)"/>
<path opacity="0.5" d="M70.0871 51.4377C66.1113 51.4377 62.1497 50.5081 58.5028 48.6488C52.3816 45.5454 47.8194 40.2395 45.6885 33.7179L45.8458 33.6607L45.6885 33.7179C41.2549 20.2457 48.6203 5.6866 62.0925 1.28168C75.5647 -3.13754 90.1238 4.24213 94.5287 17.7143C96.674 24.2502 96.1448 31.2151 93.0413 37.3362C89.9379 43.4573 84.6319 48.0196 78.1104 50.1505C75.4789 51.0086 72.7758 51.4377 70.0871 51.4377ZM45.9888 33.6178C48.1054 40.0678 52.5962 45.3023 58.6458 48.3628C64.6954 51.4234 71.5745 51.9525 78.0246 49.8359C84.4746 47.7192 89.709 43.2285 92.7696 37.1789C95.8302 31.1293 96.3593 24.2502 94.2427 17.8001C89.8664 4.49956 75.5075 -2.76569 62.2069 1.58202C48.9063 5.94403 41.6268 20.3172 45.9888 33.6178Z" fill="url(#paint8_linear)"/>
<path opacity="0.5" d="M114.322 77.0664C103.51 77.0664 93.4131 70.1873 89.8663 59.361C85.4471 45.8888 92.8267 31.3297 106.299 26.9247C119.771 22.5055 134.33 29.8852 138.735 43.3574C140.88 49.8932 140.351 56.8582 137.248 62.9793C134.144 69.1004 128.838 73.6626 122.317 75.7936C119.671 76.6517 116.982 77.0664 114.322 77.0664ZM90.1809 59.2465C94.5429 72.5614 108.916 79.8267 122.217 75.4647C128.667 73.348 133.901 68.8573 136.962 62.8077C140.022 56.7581 140.551 49.8789 138.435 43.4289C134.073 30.1283 119.7 22.8488 106.399 27.2108C93.0985 31.5728 85.8332 45.946 90.1809 59.2465Z" fill="url(#paint9_linear)"/>
<path opacity="0.5" d="M114.279 128.18C103.467 128.18 93.3702 121.301 89.8234 110.475L89.9807 110.418L89.8234 110.475C87.6781 103.953 88.2216 96.9742 91.3251 90.8531C94.4285 84.7319 99.7345 80.1697 106.256 78.0388C119.728 73.6195 134.287 80.9992 138.692 94.4714C143.111 107.958 135.746 122.503 122.26 126.922C119.628 127.766 116.925 128.18 114.279 128.18ZM90.138 110.361C90.138 110.361 90.138 110.375 90.138 110.361C94.5 123.675 108.873 130.941 122.174 126.579C135.474 122.217 142.754 107.858 138.392 94.5572C134.03 81.2423 119.671 73.9771 106.356 78.3391C99.9061 80.4557 94.6717 84.9465 91.6111 90.9961C88.5505 97.0457 88.0357 103.925 90.138 110.361Z" fill="url(#paint10_linear)"/>
<path opacity="0.5" d="M69.9583 153.666C59.1463 153.666 49.0493 146.787 45.5025 135.961L45.6598 135.904L45.5025 135.961C43.3572 129.439 43.9007 122.46 47.0041 116.339C50.1076 110.218 55.4135 105.656 61.9351 103.525C68.4567 101.379 75.4359 101.923 81.557 105.026C87.6781 108.13 92.2404 113.436 94.3713 119.957C98.7905 133.444 91.4252 147.989 77.9387 152.408C75.2929 153.252 72.6042 153.666 69.9583 153.666ZM69.9583 102.538C67.2982 102.538 64.6238 102.967 62.0352 103.811C55.5852 105.927 50.3507 110.418 47.2902 116.468C44.2296 122.517 43.7005 129.396 45.8171 135.846C50.1791 149.147 64.538 156.427 77.8386 152.065C91.1391 147.703 98.4187 133.344 94.0567 120.043C91.94 113.593 87.4493 108.359 81.3997 105.298C77.7957 103.467 73.8913 102.538 69.9583 102.538Z" fill="url(#paint11_linear)"/>
<path opacity="0.3" d="M25.852 51.2807C23.6209 51.2807 21.3756 50.9803 19.1588 50.394C12.58 48.6206 7.0739 44.4159 3.6415 38.5236C3.6129 38.4664 3.6272 38.4092 3.6844 38.3806C3.74161 38.3519 3.79882 38.3663 3.82742 38.4235C10.8209 50.4512 26.3526 54.6273 38.4232 47.7195C50.6082 40.7546 54.8701 25.1801 47.9052 13.0094C47.8766 12.9522 47.8909 12.895 47.9481 12.8664C48.0053 12.8377 48.0625 12.8521 48.0911 12.9093C55.099 25.1944 50.8228 40.8976 38.5376 47.9198C34.6189 50.1365 30.2569 51.2807 25.852 51.2807Z" fill="url(#paint12_linear)"/>
<path opacity="0.3" d="M47.9767 38.5089C45.7456 38.5089 43.5003 38.2086 41.2978 37.6222C34.719 35.8631 29.2129 31.6441 25.7805 25.7661C25.7519 25.7089 25.7662 25.6517 25.8234 25.6231C25.8806 25.5945 25.9378 25.6088 25.9664 25.666C32.9742 37.6794 48.4915 41.8269 60.5622 34.9478C72.7472 27.9972 76.9948 12.4227 70.0442 0.237641C70.0156 0.180434 70.0299 0.123227 70.0871 0.0946239C70.1443 0.0660206 70.2015 0.0803223 70.2301 0.137529C77.2379 12.4227 72.9617 28.1259 60.6766 35.148C56.7293 37.3648 52.3816 38.5089 47.9767 38.5089Z" fill="url(#paint13_linear)"/>
<path opacity="0.3" d="M92.1974 38.652C87.7496 38.652 83.3447 37.4792 79.3831 35.191C73.4479 31.7585 69.2146 26.2238 67.4412 19.6021C65.6678 12.9804 66.5974 6.07273 70.0298 0.137529C70.0584 0.0803223 70.1299 0.0660206 70.1729 0.0946239C70.2301 0.123227 70.2444 0.194736 70.2158 0.237641C66.812 6.11563 65.8967 12.9804 67.6558 19.5449C69.4149 26.1094 73.6053 31.6012 79.4975 35.005C91.6397 42.0272 107.229 37.8654 114.251 25.7232C114.279 25.666 114.351 25.6517 114.394 25.6803C114.451 25.7089 114.465 25.7804 114.437 25.8233C111.004 31.7585 105.469 35.9918 98.8477 37.7653C96.6453 38.3659 94.4142 38.652 92.1974 38.652Z" fill="url(#paint14_linear)"/>
<path opacity="0.3" d="M114.294 51.4809C109.831 51.4809 105.441 50.3081 101.479 48.0055C89.237 40.9119 85.0466 25.1801 92.1402 12.9378C92.1688 12.8806 92.2403 12.8663 92.2832 12.8949C92.3404 12.9235 92.3547 12.995 92.3261 13.0379C85.2897 25.1801 89.4515 40.7689 101.579 47.8053C107.457 51.2091 114.308 52.1244 120.887 50.3796C127.451 48.6348 132.943 44.4301 136.347 38.5521C136.375 38.4949 136.447 38.4806 136.49 38.5092C136.547 38.5378 136.561 38.6093 136.533 38.6522C133.1 44.5874 127.551 48.8207 120.93 50.5798C118.741 51.1805 116.51 51.4809 114.294 51.4809Z" fill="url(#paint15_linear)"/>
<path opacity="0.3" d="M136.361 89.7946C122.217 89.6944 110.775 78.1101 110.875 63.9657C110.918 57.1581 113.593 50.7653 118.412 45.9599C123.232 41.1545 129.625 38.4944 136.433 38.4658C136.49 38.4658 136.547 38.5087 136.547 38.5802C136.547 38.6374 136.504 38.6946 136.433 38.6946C122.546 38.7376 111.176 50.0788 111.09 63.9657C111.004 77.9957 122.331 89.4799 136.361 89.58C136.418 89.58 136.475 89.6229 136.475 89.6944C136.475 89.7373 136.433 89.7946 136.361 89.7946Z" fill="url(#paint16_linear)"/>
<path opacity="0.3" d="M136.347 115.352C122.202 115.252 110.761 103.668 110.861 89.5234C110.904 82.7301 113.579 76.3373 118.398 71.5319C123.204 66.7266 129.596 64.0664 136.404 64.0378C136.461 64.0378 136.518 64.0807 136.518 64.1523C136.518 64.2095 136.475 64.2667 136.404 64.2667C122.531 64.3382 111.176 75.6651 111.09 89.5377C110.99 103.568 122.331 115.052 136.361 115.152C136.418 115.152 136.476 115.195 136.476 115.266C136.476 115.338 136.418 115.352 136.347 115.352Z" fill="url(#paint17_linear)"/>
<path opacity="0.3" d="M92.0401 140.852C91.9972 140.852 91.9686 140.838 91.94 140.795C88.5505 134.831 87.6924 127.923 89.5087 121.316C91.325 114.708 95.6012 109.202 101.565 105.813C107.486 102.452 114.365 101.565 120.93 103.339C127.508 105.112 133 109.331 136.433 115.209C136.461 115.266 136.447 115.323 136.39 115.352C136.332 115.381 136.275 115.366 136.247 115.309C129.267 103.296 113.75 99.1195 101.679 105.984C95.7728 109.345 91.5253 114.808 89.7232 121.359C87.9212 127.909 88.7793 134.774 92.1402 140.68C92.1688 140.737 92.1545 140.795 92.0973 140.823C92.083 140.852 92.0687 140.852 92.0401 140.852Z" fill="url(#paint18_linear)"/>
<path opacity="0.3" d="M69.8868 153.594C69.8439 153.594 69.8153 153.58 69.7867 153.537C66.3972 147.588 65.5248 140.666 67.3268 134.058C69.1432 127.451 73.4194 121.945 79.3689 118.541C85.2898 115.166 92.1689 114.279 98.7476 116.052C105.326 117.826 110.833 122.045 114.251 127.937C114.279 127.994 114.265 128.051 114.208 128.08C114.151 128.109 114.093 128.094 114.065 128.037C107.071 116.009 91.5539 111.833 79.469 118.727C73.5624 122.088 69.3291 127.551 67.5271 134.101C65.7251 140.651 66.5975 147.516 69.9583 153.423C69.987 153.48 69.9727 153.537 69.9154 153.566C69.9297 153.58 69.9154 153.594 69.8868 153.594Z" fill="url(#paint19_linear)"/>
<path opacity="0.3" d="M92.0401 140.866C91.9972 140.866 91.9686 140.852 91.94 140.809C89.7233 136.948 86.5054 133.715 82.6439 131.47C76.766 128.066 69.9154 127.151 63.3367 128.896C56.7722 130.641 51.2804 134.845 47.8766 140.723C47.848 140.78 47.7764 140.795 47.7335 140.766C47.6763 140.738 47.662 140.666 47.6906 140.623C54.7843 128.381 70.5161 124.191 82.7584 131.284C86.6484 133.544 89.8949 136.79 92.1403 140.695C92.1689 140.752 92.1546 140.809 92.0974 140.838C92.0831 140.852 92.0688 140.866 92.0401 140.866Z" fill="url(#paint20_linear)"/>
<path opacity="0.3" d="M69.9155 153.58C69.9012 153.58 69.8725 153.58 69.8582 153.566C69.801 153.538 69.7867 153.466 69.8153 153.423C76.7517 141.352 72.6042 125.807 60.5908 118.784C54.7271 115.352 47.8766 114.422 41.2978 116.139C34.719 117.869 29.2129 122.045 25.7948 127.909C25.7662 127.966 25.6947 127.98 25.6518 127.952C25.5945 127.923 25.5802 127.852 25.6088 127.809C29.0699 121.888 34.6189 117.669 41.2549 115.938C47.8766 114.194 54.7986 115.138 60.7052 118.599C66.5975 122.031 70.8022 127.551 72.5613 134.144C74.3204 140.738 73.4194 147.617 70.0156 153.523C69.987 153.566 69.9441 153.58 69.9155 153.58Z" fill="url(#paint21_linear)"/>
<path opacity="0.3" d="M47.805 140.766C47.7907 140.766 47.7621 140.766 47.7478 140.752C47.6906 140.723 47.6763 140.652 47.7049 140.609C51.1087 134.731 52.024 127.88 50.2649 121.301C48.5201 114.737 44.3154 109.245 38.4374 105.841C32.5594 102.438 25.7089 101.522 19.1301 103.281C12.5657 105.026 7.07381 109.231 3.67001 115.109C3.64141 115.166 3.5699 115.18 3.52699 115.152C3.46979 115.123 3.45549 115.052 3.48409 115.009C6.91649 109.074 12.4512 104.84 19.0729 103.067C25.6946 101.308 32.6023 102.223 38.5375 105.655C44.4727 109.088 48.706 114.623 50.4794 121.244C52.2385 127.866 51.3232 134.774 47.8908 140.709C47.8765 140.752 47.8479 140.766 47.805 140.766Z" fill="url(#paint22_linear)"/>
<path opacity="0.3" d="M3.56998 115.109C3.51277 115.109 3.45557 115.066 3.45557 114.994C3.45557 114.937 3.49847 114.88 3.56998 114.88C17.4426 114.837 28.8124 103.51 28.9269 89.6518C29.0413 75.6218 17.7143 64.1233 3.69869 64.0089C3.64149 64.0089 3.58428 63.966 3.58428 63.8944C3.58428 63.8372 3.62719 63.78 3.69869 63.78C17.8431 63.8944 29.2701 75.4931 29.1557 89.6375C29.0985 96.4308 26.4241 102.824 21.6044 107.615C16.7704 112.434 10.3633 115.094 3.56998 115.109Z" fill="url(#paint23_linear)"/>
<path opacity="0.3" d="M3.64145 89.5945C3.58425 89.5945 3.52704 89.5516 3.52704 89.4801C3.52704 89.4229 3.56994 89.3657 3.64145 89.3657C17.5427 89.3371 28.9411 77.9958 29.0269 64.0946C29.127 50.0647 17.7858 38.5804 3.75587 38.4803C3.69866 38.4803 3.64145 38.4374 3.64145 38.3659C3.64145 38.3087 3.68436 38.2515 3.75587 38.2515C17.9002 38.3516 29.3416 49.9359 29.2415 64.0803C29.1986 70.8879 26.5098 77.2951 21.6902 82.1004C16.8705 86.9201 10.4634 89.5802 3.64145 89.5945Z" fill="url(#paint24_linear)"/>
<path opacity="0.3" d="M114.194 128.109C114.151 128.109 114.122 128.094 114.093 128.051C107.043 115.781 111.276 100.077 123.547 93.0123C127.437 90.7813 131.856 89.5942 136.333 89.5942C136.39 89.5942 136.447 89.6371 136.447 89.7086C136.447 89.7659 136.404 89.8231 136.333 89.8231C136.333 89.8231 136.333 89.8231 136.318 89.8231C131.87 89.8231 127.494 90.9958 123.633 93.2126C111.476 100.206 107.271 115.781 114.265 127.951C114.294 128.009 114.279 128.066 114.222 128.094C114.236 128.109 114.222 128.109 114.194 128.109Z" fill="url(#paint25_linear)"/>
<path opacity="0.3" d="M136.332 115.366C136.29 115.366 136.261 115.352 136.232 115.309C131.67 107.386 131.699 97.546 136.275 89.6514C136.304 89.5942 136.375 89.5799 136.418 89.6085C136.475 89.6371 136.49 89.7087 136.461 89.7516C131.913 97.5889 131.899 107.343 136.418 115.194C136.447 115.251 136.433 115.309 136.375 115.337C136.361 115.366 136.347 115.366 136.332 115.366Z" fill="url(#paint26_linear)"/>
<path opacity="0.3" d="M114.208 128.081C114.193 128.081 114.165 128.081 114.151 128.066C114.093 128.038 114.079 127.966 114.108 127.923C118.684 120.057 127.179 115.166 136.29 115.166C136.304 115.166 136.318 115.166 136.333 115.166C136.39 115.166 136.447 115.209 136.447 115.281C136.447 115.338 136.404 115.395 136.333 115.395C136.318 115.395 136.304 115.395 136.29 115.395C127.265 115.395 118.842 120.243 114.294 128.052C114.279 128.066 114.236 128.081 114.208 128.081Z" fill="url(#paint27_linear)"/>
<path opacity="0.3" d="M92.0545 140.852C92.0402 140.852 92.0116 140.852 91.9973 140.838C91.9401 140.809 91.9258 140.738 91.9544 140.695C96.5309 132.815 105.026 127.923 114.151 127.923C114.222 127.923 114.279 127.966 114.279 128.038C114.279 128.095 114.236 128.152 114.165 128.152C114.151 128.152 114.151 128.152 114.136 128.152C105.098 128.152 96.6739 133 92.1403 140.823C92.126 140.838 92.0974 140.852 92.0545 140.852Z" fill="url(#paint28_linear)"/>
<path opacity="0.3" d="M69.8726 153.623C69.8583 153.623 69.8297 153.623 69.8154 153.609C69.7582 153.58 69.7439 153.508 69.7725 153.466C74.349 145.571 82.8442 140.666 91.983 140.666C92.0116 140.666 92.0402 140.666 92.0545 140.666C92.1117 140.666 92.1689 140.708 92.1689 140.78C92.1689 140.837 92.126 140.894 92.0545 140.894C92.0259 140.894 91.9973 140.894 91.983 140.894C82.93 140.894 74.5063 145.757 69.9727 153.58C69.9441 153.594 69.9012 153.623 69.8726 153.623Z" fill="url(#paint29_linear)"/>
<path opacity="0.3" d="M69.8869 153.581C69.844 153.581 69.8154 153.566 69.7868 153.523C65.2674 145.7 56.858 140.823 47.8194 140.809C47.7622 140.809 47.705 140.766 47.705 140.695C47.705 140.638 47.7479 140.58 47.8194 140.58C56.9295 140.609 65.4247 145.514 69.9727 153.409C70.0013 153.466 69.987 153.523 69.9298 153.552C69.9155 153.566 69.9012 153.581 69.8869 153.581Z" fill="url(#paint30_linear)"/>
<path opacity="0.3" d="M47.7765 140.78C47.7336 140.78 47.705 140.766 47.6764 140.723C43.1714 132.9 34.762 128.023 25.7233 127.994C25.6661 127.994 25.6089 127.951 25.6089 127.88C25.6089 127.823 25.6518 127.765 25.7233 127.765C34.8335 127.794 43.3144 132.714 47.8623 140.608C47.8909 140.666 47.8766 140.723 47.8194 140.751C47.8194 140.78 47.7908 140.78 47.7765 140.78Z" fill="url(#paint31_linear)"/>
<path opacity="0.3" d="M25.666 127.937C25.6517 127.937 25.6231 127.937 25.6088 127.923C25.5516 127.894 25.5373 127.823 25.5659 127.78C27.7969 123.933 28.9697 119.542 28.984 115.094C28.9983 108.301 26.3668 101.908 21.5614 97.0885C16.7704 92.2688 10.3775 89.623 3.5842 89.6087C3.52699 89.6087 3.46979 89.5658 3.46979 89.4943C3.46979 89.4371 3.51269 89.3799 3.5842 89.3799C10.4347 89.3942 16.8705 92.0686 21.7187 96.9312C26.5527 101.779 29.2128 108.23 29.1985 115.08C29.1842 119.571 27.9972 123.99 25.7518 127.88C25.7518 127.923 25.7089 127.937 25.666 127.937Z" fill="url(#paint32_linear)"/>
<path opacity="0.3" d="M25.666 127.966C25.6231 127.966 25.5945 127.952 25.5659 127.909C21.0466 120.086 12.6229 115.209 3.5842 115.195C3.52699 115.195 3.46979 115.152 3.46979 115.08C3.46979 115.023 3.51269 114.966 3.5842 114.966C12.6944 114.98 21.1896 119.9 25.7518 127.794C25.7804 127.852 25.7661 127.909 25.7089 127.937C25.6946 127.966 25.6803 127.966 25.666 127.966Z" fill="url(#paint33_linear)"/>
<path opacity="0.3" d="M3.56998 115.138C3.55568 115.138 3.52707 115.138 3.51277 115.123C3.45557 115.095 3.44126 115.023 3.46987 114.98C8.0035 107.157 8.04641 97.4323 3.55568 89.5807C3.52707 89.5234 3.54138 89.4662 3.59858 89.4376C3.65579 89.409 3.713 89.4233 3.7416 89.4805C8.27523 97.4037 8.23233 107.215 3.65579 115.095C3.64149 115.123 3.61288 115.138 3.56998 115.138Z" fill="url(#paint34_linear)"/>
<path opacity="0.3" d="M3.62717 89.5374C3.61287 89.5374 3.58426 89.5374 3.56996 89.5231C3.51276 89.4945 3.49845 89.423 3.52706 89.3801C8.03209 81.5714 8.04639 71.8606 3.56996 64.0519C3.54136 63.9946 3.55566 63.9374 3.61287 63.9088C3.67007 63.8802 3.72728 63.8945 3.75589 63.9517C8.26091 71.8463 8.24661 81.6286 3.71298 89.5088C3.69868 89.5231 3.67007 89.5374 3.62717 89.5374Z" fill="url(#paint35_linear)"/>
<path opacity="0.3" d="M3.68436 64.0518C3.67006 64.0518 3.64145 64.0518 3.62715 64.0375C3.56995 64.0089 3.55564 63.9374 3.58425 63.8945C8.11788 56.0715 8.16079 46.3463 3.67006 38.4947C3.64145 38.4375 3.65576 38.3803 3.71296 38.3517C3.77017 38.3231 3.82738 38.3374 3.85598 38.3946C8.38961 46.3177 8.34671 56.1287 3.77017 64.0232C3.75587 64.0232 3.71296 64.0518 3.68436 64.0518Z" fill="url(#paint36_linear)"/>
<path opacity="0.3" d="M3.72729 64.0658C3.65578 64.0658 3.59857 64.0229 3.59857 63.9514C3.59857 63.8941 3.64148 63.8369 3.71299 63.8369H3.72729C8.16081 63.8369 12.5371 62.6785 16.3843 60.4617C22.2766 57.0865 26.5099 51.609 28.2833 45.0588C30.0567 38.4944 29.1843 31.6438 25.8091 25.7516C25.7805 25.6944 25.7948 25.6371 25.852 25.6085C25.9092 25.5799 25.9664 25.5942 25.995 25.6514C29.3988 31.6009 30.2855 38.5087 28.4978 45.1303C26.7101 51.7377 22.4339 57.2582 16.4987 60.6763C12.6086 62.893 8.18941 64.0658 3.72729 64.0658Z" fill="url(#paint37_linear)"/>
<path opacity="0.3" d="M3.77011 38.509C3.69861 38.509 3.6557 38.4661 3.6557 38.3946C3.6557 38.3374 3.69861 38.2802 3.77011 38.2802C3.77011 38.2802 3.77011 38.2802 3.78442 38.2802C12.8088 38.2802 21.2325 33.4319 25.7661 25.6375C25.7947 25.5803 25.8662 25.566 25.9091 25.5946C25.9663 25.6232 25.9806 25.6947 25.952 25.7376C21.3755 33.6179 12.8803 38.509 3.77011 38.509Z" fill="url(#paint38_linear)"/>
<path opacity="0.3" d="M25.8949 25.7806C25.8234 25.7806 25.7805 25.7377 25.7805 25.6662C25.7805 25.6089 25.8234 25.5517 25.8949 25.5517C34.9335 25.5517 43.3572 20.7035 47.8909 12.8804C47.9195 12.8232 47.991 12.8089 48.0339 12.8375C48.0911 12.8661 48.1054 12.9377 48.0768 12.9806C43.5145 20.8894 35.005 25.7806 25.8949 25.7806Z" fill="url(#paint39_linear)"/>
<path opacity="0.3" d="M48.0339 13.038C47.9624 13.038 47.9052 12.9951 47.9052 12.9236C47.9052 12.8664 47.9481 12.8092 48.0196 12.8092H48.0339C57.0725 12.8092 65.5105 7.94663 70.0442 0.123613C70.0728 0.0664063 70.1443 0.0521046 70.1872 0.0807079C70.2444 0.109311 70.2587 0.18082 70.2301 0.223725C65.6535 8.13256 57.1583 13.038 48.0339 13.038Z" fill="url(#paint40_linear)"/>
<path opacity="0.3" d="M70.0728 25.838C65.7108 25.838 61.3059 24.7224 57.2585 22.3913C53.3684 20.1459 50.1363 16.8994 47.8909 13.0094C47.8623 12.9522 47.8766 12.895 47.9338 12.8664C47.991 12.8377 48.0482 12.8521 48.0768 12.9093C50.3079 16.7564 53.5114 19.9743 57.3586 22.2054C69.5007 29.2275 85.0896 25.0657 92.126 12.9236C92.1546 12.8664 92.2261 12.8521 92.269 12.8807C92.3262 12.9093 92.3405 12.9808 92.3119 13.0237C87.5638 21.2471 78.9398 25.838 70.0728 25.838Z" fill="url(#paint41_linear)"/>
<path opacity="0.3" d="M92.2261 13.0666C83.1016 13.0666 74.5921 8.14682 70.0299 0.252289C70.0013 0.195082 70.0156 0.137876 70.0728 0.109272C70.13 0.080669 70.1872 0.0949707 70.2158 0.152177C74.7494 7.9895 83.1731 12.8521 92.2261 12.8664C92.2833 12.8664 92.3405 12.9093 92.3405 12.9808C92.3262 13.0237 92.2833 13.0666 92.2261 13.0666Z" fill="url(#paint42_linear)"/>
<path opacity="0.3" d="M114.336 25.8808C105.212 25.8665 96.7168 20.9468 92.1546 13.0379C92.126 12.9807 92.1403 12.9235 92.1975 12.8949C92.2547 12.8663 92.3119 12.8806 92.3405 12.9378C96.8598 20.7751 105.284 25.652 114.322 25.6663C114.379 25.6663 114.437 25.7092 114.437 25.7807C114.451 25.8379 114.394 25.8808 114.336 25.8808Z" fill="url(#paint43_linear)"/>
<path opacity="0.3" d="M136.433 38.6665C127.322 38.6379 118.827 33.7181 114.279 25.8236C114.251 25.7664 114.265 25.7092 114.322 25.6806C114.379 25.652 114.437 25.6663 114.465 25.7235C118.985 33.5465 127.394 38.4234 136.433 38.452C136.49 38.452 136.547 38.4949 136.547 38.5664C136.533 38.6236 136.49 38.6665 136.433 38.6665Z" fill="url(#paint44_linear)"/>
<path opacity="0.3" d="M136.418 64.2522C122.274 64.2379 110.775 52.7107 110.79 38.5663C110.79 34.0756 111.991 29.6421 114.236 25.752C114.265 25.6948 114.337 25.6805 114.379 25.7091C114.437 25.7377 114.451 25.8092 114.422 25.8521C112.191 29.7136 111.004 34.1042 111.004 38.5663C110.99 52.5963 122.388 64.0233 136.418 64.0376C136.476 64.0376 136.533 64.0805 136.533 64.152C136.533 64.2093 136.49 64.2522 136.418 64.2522Z" fill="url(#paint45_linear)"/>
<path opacity="0.3" d="M136.418 64.2517C136.375 64.2517 136.347 64.2374 136.318 64.1945C131.756 56.2857 131.77 46.4604 136.347 38.5516C136.375 38.4944 136.447 38.4801 136.49 38.5087C136.547 38.5373 136.561 38.6088 136.533 38.6517C131.999 46.489 131.985 56.2285 136.504 64.0801C136.533 64.1373 136.518 64.1945 136.461 64.2231C136.461 64.2374 136.433 64.2517 136.418 64.2517Z" fill="url(#paint46_linear)"/>
<path opacity="0.3" d="M136.39 89.8381C136.347 89.8381 136.318 89.8238 136.29 89.7809C131.713 81.8577 131.727 72.0182 136.304 64.095C136.332 64.0378 136.404 64.0235 136.447 64.0521C136.504 64.0807 136.518 64.1523 136.49 64.1952C131.942 72.0468 131.942 81.8005 136.476 89.6665C136.504 89.7237 136.49 89.7809 136.433 89.8095C136.418 89.8238 136.404 89.8381 136.39 89.8381Z" fill="url(#paint47_linear)"/>
<path d="M115.123 76.8801C118.684 70.4872 119.428 62.8644 117.154 55.8995C113.664 45.2734 103.839 38.0224 92.6551 37.8079C86.4053 27.3391 73.4908 22.4908 61.8922 26.295C55.8712 28.2687 50.7941 32.3303 47.5476 37.7507C44.9018 37.7936 42.2703 38.2226 39.7532 39.0521C33.0743 41.2403 27.6539 45.8883 24.4933 52.1525C21.3326 58.4166 20.7748 65.5388 22.963 72.2177C23.4778 73.7909 24.15 75.3212 24.9366 76.7657C21.3612 83.1728 20.6175 90.8099 22.8915 97.7748C25.0796 104.439 29.7277 109.874 35.9918 113.035C39.5958 114.865 43.443 115.809 47.4475 115.866C52.1813 123.761 60.8052 128.666 70.0155 128.666C72.79 128.666 75.536 128.223 78.1818 127.351C84.1885 125.377 89.2799 121.315 92.5264 115.909C95.1865 115.881 97.818 115.437 100.335 114.608C114.108 110.117 121.645 95.2434 117.14 81.4566C116.61 79.8834 115.938 78.3389 115.123 76.8801ZM24.0928 71.8602L24.3789 71.7458C22.3194 65.453 22.8343 58.7313 25.8233 52.8104C28.8124 46.9038 33.9324 42.5131 40.2251 40.4394C42.3275 39.7529 44.5013 39.3525 46.7181 39.2381C46.6895 39.281 46.6609 39.3382 46.6466 39.3811C43.5145 45.5594 42.9424 52.5672 45.0305 59.1603L45.1163 59.4463C45.1163 59.4606 45.1306 59.4892 45.1306 59.5178L45.2021 59.7324C45.6169 60.948 46.1174 62.1351 46.7181 63.3078C44.344 63.4222 41.9699 63.8512 39.696 64.5949C34.0039 66.4542 29.0984 70.2441 25.8376 75.2783C25.2513 74.1342 24.765 72.9471 24.3789 71.7601L24.0928 71.8602ZM68.6855 76.0506C65.2674 75.8647 61.978 74.9637 58.8888 73.4048C54.9702 71.4168 51.6665 68.4564 49.2924 64.7952C52.7105 64.9811 55.9999 65.8821 59.1033 67.441C63.0077 69.4289 66.3114 72.4037 68.6855 76.0506ZM58.2166 74.7348C60.0186 75.6501 61.9208 76.3509 63.8944 76.8372C63.1793 77.0088 62.4928 77.1947 61.8207 77.4235C56.2001 79.2685 51.3518 82.9726 48.091 87.8924C47.5333 86.7911 47.0756 85.6613 46.6895 84.5029C44.6443 78.2673 45.1592 71.6314 48.1339 65.7534C50.6224 69.5433 54.0977 72.6468 58.2166 74.7348ZM62.2783 78.8108C64.3521 78.1243 66.5116 77.7239 68.6998 77.6095C65.6249 82.3147 61.0198 85.8472 55.6852 87.6063C53.5972 88.2928 51.4376 88.6933 49.2638 88.8077C52.3243 84.1024 56.9295 80.5556 62.2783 78.8108ZM77.8099 74.8492C75.7219 75.5357 73.5766 75.9362 71.4028 76.0506C74.5063 71.2881 78.997 67.8414 84.4316 66.068C86.4911 65.3958 88.6506 64.9954 90.8245 64.881C87.7496 69.5719 83.1445 73.1044 77.8099 74.8492ZM83.974 64.6665C79.8265 66.0251 76.1223 68.3706 73.1476 71.474C74.6779 66.3397 74.6064 60.9623 72.9331 55.828C72.5326 54.6267 72.0464 53.4253 71.46 52.2669C74.8495 52.4528 78.1103 53.3395 81.1708 54.8841C85.0466 56.8434 88.3217 59.7896 90.6672 63.3936C88.3789 63.5366 86.1335 63.9514 83.974 64.6665ZM71.3742 77.6095C79.283 78.0528 86.4625 82.2146 90.7816 88.8649C87.3635 88.679 84.0598 87.778 80.9706 86.2191C77.0519 84.2311 73.7483 81.2707 71.3742 77.6095ZM78.2676 76.2508C83.8882 74.4059 88.7507 70.6875 91.9972 65.7534C92.555 66.8546 93.0269 67.9987 93.4131 69.1858C95.4582 75.4213 94.9434 82.0859 91.9829 87.9496C91.9829 87.9639 91.9686 87.9639 91.9686 87.9782C88.3217 82.4148 82.6296 78.4104 76.1509 76.8372C76.9089 76.6656 77.5954 76.4796 78.2676 76.2508ZM59.7612 66.1252C56.5433 64.4948 53.0966 63.5509 49.5212 63.3364C52.5675 58.6883 57.1297 55.1987 62.407 53.4682C64.4522 52.7961 66.5688 52.3956 68.7141 52.2812C65.6821 58.2879 65.0671 65.0669 66.955 71.4883C64.8955 69.3002 62.4785 67.5125 59.7612 66.1252ZM56.1286 89.0079C60.2475 87.6493 63.9659 85.3038 66.9407 82.186C65.439 87.2202 65.4819 92.4975 67.0837 97.5603L67.1409 97.7176C67.1552 97.7605 67.1695 97.7891 67.1838 97.8321L67.2839 98.1181C67.67 99.2336 68.1277 100.335 68.6569 101.393C60.8481 100.936 53.7402 96.8166 49.4783 90.2665C51.7523 90.1234 53.9976 89.7087 56.1286 89.0079ZM99.906 87.6635C97.8895 88.3214 95.8015 88.7219 93.6848 88.8506C93.6848 88.8363 93.6991 88.8363 93.6991 88.822C96.8884 82.5149 97.4462 75.3498 95.258 68.6423L95.2437 68.5994C94.8289 67.3552 94.3141 66.1109 93.7134 64.9096C101.88 65.4387 109.202 69.8866 113.421 76.8944C110.346 81.9858 105.555 85.8043 99.906 87.6635ZM70.0441 75.2783C69.4721 74.1485 69.0001 72.99 68.614 71.8173V71.803C66.5402 65.4816 67.0694 58.7742 70.1013 52.839C70.6734 53.9688 71.1597 55.1272 71.5458 56.3143C73.5909 62.6213 73.0618 69.3431 70.0441 75.2783ZM40.1536 66.0108C42.1988 65.3386 44.3154 64.9382 46.4607 64.8095C43.2285 71.1451 42.6564 78.3246 44.8732 85.0892C45.2879 86.3335 45.8028 87.5777 46.4177 88.7934C43.0425 88.5932 39.7961 87.7065 36.7498 86.1619C32.5451 84.0309 29.0555 80.7844 26.6671 76.7657C29.7277 71.6743 34.5187 67.8557 40.1536 66.0108ZM70.0155 78.439C70.0155 78.439 70.0155 78.4247 70.0298 78.4104C70.5876 79.5259 71.0738 80.6843 71.46 81.8571C73.5337 88.1641 73.0046 94.8716 70.0012 100.792C69.4435 99.677 68.9572 98.5328 68.5854 97.3601C66.5116 91.0817 67.0265 84.3456 70.0155 78.439ZM73.0904 82.1288C77.6669 86.9628 83.974 89.9089 90.6385 90.3094C87.5637 95.0289 83.1159 98.447 77.7241 100.22C75.6647 100.893 73.5194 101.293 71.3599 101.407C74.3918 95.3579 74.9925 88.5646 73.0904 82.1288ZM114.236 75.407C109.631 68.2562 101.894 63.8083 93.3845 63.3936C96.6739 57.0723 97.2745 49.8928 95.0578 43.0852C94.643 41.7981 94.1139 40.5395 93.4703 39.3096C103.653 39.853 112.563 46.6463 115.738 56.3572C117.84 62.7071 117.297 69.4432 114.236 75.407ZM92.2689 62.3496C89.7375 58.4595 86.2193 55.2988 82.0289 53.1822C78.7109 51.5089 75.1784 50.5507 71.5172 50.3505C74.5921 45.7167 79.1686 42.2271 84.4459 40.4966C86.82 39.71 89.2942 39.3096 91.797 39.2667C92.5407 40.6253 93.1699 42.0555 93.6562 43.5429C95.7156 49.807 95.2151 56.4573 92.2689 62.3496ZM83.9883 39.095C78.2676 40.9686 73.3478 44.7871 70.087 49.8642C65.4962 42.6848 57.7876 38.2083 49.2781 37.7793C52.3386 33.0311 56.9724 29.47 62.3641 27.6966C68.6569 25.6372 75.393 26.1377 81.2995 29.1411C85.2468 31.1433 88.5791 34.1324 90.9532 37.8222C88.5791 37.9366 86.2479 38.3657 83.9883 39.095ZM68.6569 50.3648C66.3257 50.4935 64.0231 50.9225 61.8064 51.6519C56.1 53.5254 51.1659 57.3154 47.8908 62.3496C47.3474 61.2626 46.8897 60.1328 46.5179 59.003C44.4584 52.7102 44.9733 45.9885 47.9623 40.0676C48.1053 39.7815 48.2627 39.5098 48.4057 39.2238C56.5004 39.3811 64.1947 43.6144 68.6569 50.3648ZM25.8376 78.253C28.3547 82.1717 31.8872 85.361 36.0776 87.4919C39.4099 89.1795 42.9853 90.1234 46.6895 90.2951C43.4001 96.6307 42.8137 103.81 45.0305 110.589C45.4452 111.862 45.9887 113.135 46.6323 114.393C43.1713 114.222 39.8247 113.321 36.6926 111.733C30.786 108.744 26.3954 103.624 24.3217 97.3172C22.2193 90.9529 22.7628 84.2025 25.8376 78.253ZM47.8336 91.2819C52.4245 98.3469 60.1045 102.795 68.5567 103.281C65.4819 107.929 60.9053 111.419 55.6137 113.163C53.2396 113.936 50.7798 114.35 48.2913 114.393C47.5476 113.035 46.9183 111.59 46.4321 110.103C44.3726 103.839 44.8732 97.1742 47.8336 91.2819ZM56.0714 114.565C61.8064 112.691 66.7404 108.859 70.0012 103.767C74.5778 110.947 82.3007 115.437 90.8245 115.881C87.7639 120.629 83.1302 124.19 77.7384 125.963C71.4457 128.023 64.7096 127.522 58.803 124.519C54.8557 122.517 51.5234 119.528 49.1494 115.838C51.5234 115.723 53.8546 115.294 56.0714 114.565ZM71.4314 103.295C73.8055 103.181 76.108 102.752 78.3105 102.022C84.117 100.12 88.908 96.4448 92.226 91.3677C92.7552 92.4403 93.2129 93.5272 93.5847 94.6571C95.6441 100.95 95.1293 107.686 92.1402 113.592C91.9972 113.879 91.8399 114.165 91.6826 114.451C83.5735 114.293 75.8792 110.046 71.4314 103.295ZM93.456 114.265C96.631 108.001 97.1744 100.878 94.9863 94.1994C94.5572 92.898 94.0137 91.5965 93.3559 90.3237C95.7729 90.2235 98.1183 89.7945 100.378 89.0508C106.084 87.1773 110.99 83.3873 114.251 78.3389C114.851 79.4973 115.352 80.6986 115.752 81.9143C117.812 88.207 117.297 94.9288 114.294 100.85C111.29 106.771 106.184 111.161 99.8917 113.221C97.7894 113.907 95.6012 114.308 93.3845 114.422C93.3988 114.379 93.4274 114.322 93.456 114.265Z" fill="url(#paint48_linear)"/>
<defs>
<linearGradient id="paint0_linear" x1="22.0677" y1="115.129" x2="73.6193" y2="115.129" gradientUnits="userSpaceOnUse">
<stop stop-color="#CEC067"/>
<stop offset="0.3591" stop-color="#755638"/>
<stop offset="1" stop-color="#FBD690"/>
</linearGradient>
<linearGradient id="paint1_linear" x1="66.3216" y1="115.204" x2="117.873" y2="115.204" gradientUnits="userSpaceOnUse">
<stop stop-color="#CEC067"/>
<stop offset="0.3591" stop-color="#755638"/>
<stop offset="1" stop-color="#FBD690"/>
</linearGradient>
<linearGradient id="paint2_linear" x1="88.5079" y1="76.8914" x2="140.06" y2="76.8914" gradientUnits="userSpaceOnUse">
<stop stop-color="#CEC067"/>
<stop offset="0.3591" stop-color="#755638"/>
<stop offset="1" stop-color="#FBD690"/>
</linearGradient>
<linearGradient id="paint3_linear" x1="66.448" y1="38.5174" x2="118" y2="38.5174" gradientUnits="userSpaceOnUse">
<stop stop-color="#CEC067"/>
<stop offset="0.3591" stop-color="#755638"/>
<stop offset="1" stop-color="#FBD690"/>
</linearGradient>
<linearGradient id="paint4_linear" x1="22.1994" y1="38.4882" x2="73.7618" y2="38.4882" gradientUnits="userSpaceOnUse">
<stop stop-color="#CEC067"/>
<stop offset="0.3591" stop-color="#755638"/>
<stop offset="1" stop-color="#FBD690"/>
</linearGradient>
<linearGradient id="paint5_linear" x1="0.0159707" y1="76.7591" x2="51.5562" y2="76.7591" gradientUnits="userSpaceOnUse">
<stop stop-color="#CEC067"/>
<stop offset="0.3591" stop-color="#755638"/>
<stop offset="1" stop-color="#FBD690"/>
</linearGradient>
<linearGradient id="paint6_linear" x1="-0.00546968" y1="102.304" x2="51.4255" y2="102.304" gradientUnits="userSpaceOnUse">
<stop stop-color="#CEC067"/>
<stop offset="0.3591" stop-color="#755638"/>
<stop offset="1" stop-color="#FBD690"/>
</linearGradient>
<linearGradient id="paint7_linear" x1="0.114872" y1="51.2307" x2="51.5572" y2="51.2307" gradientUnits="userSpaceOnUse">
<stop stop-color="#CEC067"/>
<stop offset="0.3591" stop-color="#755638"/>
<stop offset="1" stop-color="#FBD690"/>
</linearGradient>
<linearGradient id="paint8_linear" x1="44.3913" y1="25.718" x2="95.8337" y2="25.718" gradientUnits="userSpaceOnUse">
<stop stop-color="#CEC067"/>
<stop offset="0.3591" stop-color="#755638"/>
<stop offset="1" stop-color="#FBD690"/>
</linearGradient>
<linearGradient id="paint9_linear" x1="88.5933" y1="51.3436" x2="140.036" y2="51.3436" gradientUnits="userSpaceOnUse">
<stop stop-color="#CEC067"/>
<stop offset="0.3591" stop-color="#755638"/>
<stop offset="1" stop-color="#FBD690"/>
</linearGradient>
<linearGradient id="paint10_linear" x1="88.5385" y1="102.462" x2="139.98" y2="102.462" gradientUnits="userSpaceOnUse">
<stop stop-color="#CEC067"/>
<stop offset="0.3591" stop-color="#755638"/>
<stop offset="1" stop-color="#FBD690"/>
</linearGradient>
<linearGradient id="paint11_linear" x1="44.2139" y1="127.94" x2="95.6553" y2="127.94" gradientUnits="userSpaceOnUse">
<stop stop-color="#CEC067"/>
<stop offset="0.3591" stop-color="#755638"/>
<stop offset="1" stop-color="#FBD690"/>
</linearGradient>
<linearGradient id="paint12_linear" x1="3.62648" y1="32.0625" x2="51.4725" y2="32.0625" gradientUnits="userSpaceOnUse">
<stop stop-color="#CEC067"/>
<stop offset="0.3591" stop-color="#755638"/>
<stop offset="1" stop-color="#FBD690"/>
</linearGradient>
<linearGradient id="paint13_linear" x1="25.7556" y1="19.2878" x2="73.5879" y2="19.2878" gradientUnits="userSpaceOnUse">
<stop stop-color="#CEC067"/>
<stop offset="0.3591" stop-color="#755638"/>
<stop offset="1" stop-color="#FBD690"/>
</linearGradient>
<linearGradient id="paint14_linear" x1="66.5634" y1="19.3693" x2="114.455" y2="19.3693" gradientUnits="userSpaceOnUse">
<stop stop-color="#CEC067"/>
<stop offset="0.3591" stop-color="#755638"/>
<stop offset="1" stop-color="#FBD690"/>
</linearGradient>
<linearGradient id="paint15_linear" x1="88.6878" y1="32.1823" x2="136.557" y2="32.1823" gradientUnits="userSpaceOnUse">
<stop stop-color="#CEC067"/>
<stop offset="0.3591" stop-color="#755638"/>
<stop offset="1" stop-color="#FBD690"/>
</linearGradient>
<linearGradient id="paint16_linear" x1="110.878" y1="64.1348" x2="136.554" y2="64.1348" gradientUnits="userSpaceOnUse">
<stop stop-color="#CEC067"/>
<stop offset="0.3591" stop-color="#755638"/>
<stop offset="1" stop-color="#FBD690"/>
</linearGradient>
<linearGradient id="paint17_linear" x1="110.863" y1="89.6936" x2="136.508" y2="89.6936" gradientUnits="userSpaceOnUse">
<stop stop-color="#CEC067"/>
<stop offset="0.3591" stop-color="#755638"/>
<stop offset="1" stop-color="#FBD690"/>
</linearGradient>
<linearGradient id="paint18_linear" x1="88.5844" y1="121.652" x2="136.447" y2="121.652" gradientUnits="userSpaceOnUse">
<stop stop-color="#CEC067"/>
<stop offset="0.3591" stop-color="#755638"/>
<stop offset="1" stop-color="#FBD690"/>
</linearGradient>
<linearGradient id="paint19_linear" x1="66.4207" y1="134.376" x2="114.286" y2="134.376" gradientUnits="userSpaceOnUse">
<stop stop-color="#CEC067"/>
<stop offset="0.3591" stop-color="#755638"/>
<stop offset="1" stop-color="#FBD690"/>
</linearGradient>
<linearGradient id="paint20_linear" x1="47.6786" y1="134.347" x2="92.1523" y2="134.347" gradientUnits="userSpaceOnUse">
<stop stop-color="#CEC067"/>
<stop offset="0.3591" stop-color="#755638"/>
<stop offset="1" stop-color="#FBD690"/>
</linearGradient>
<linearGradient id="paint21_linear" x1="25.5825" y1="134.331" x2="73.4215" y2="134.331" gradientUnits="userSpaceOnUse">
<stop stop-color="#CEC067"/>
<stop offset="0.3591" stop-color="#755638"/>
<stop offset="1" stop-color="#FBD690"/>
</linearGradient>
<linearGradient id="paint22_linear" x1="3.47336" y1="121.483" x2="51.3621" y2="121.483" gradientUnits="userSpaceOnUse">
<stop stop-color="#CEC067"/>
<stop offset="0.3591" stop-color="#755638"/>
<stop offset="1" stop-color="#FBD690"/>
</linearGradient>
<linearGradient id="paint23_linear" x1="3.45728" y1="89.4534" x2="29.1422" y2="89.4534" gradientUnits="userSpaceOnUse">
<stop stop-color="#CEC067"/>
<stop offset="0.3591" stop-color="#755638"/>
<stop offset="1" stop-color="#FBD690"/>
</linearGradient>
<linearGradient id="paint24_linear" x1="3.53834" y1="63.9329" x2="29.2522" y2="63.9329" gradientUnits="userSpaceOnUse">
<stop stop-color="#CEC067"/>
<stop offset="0.3591" stop-color="#755638"/>
<stop offset="1" stop-color="#FBD690"/>
</linearGradient>
<linearGradient id="paint25_linear" x1="110.694" y1="108.862" x2="136.465" y2="108.862" gradientUnits="userSpaceOnUse">
<stop stop-color="#CEC067"/>
<stop offset="0.3591" stop-color="#755638"/>
<stop offset="1" stop-color="#FBD690"/>
</linearGradient>
<linearGradient id="paint26_linear" x1="132.83" y1="102.481" x2="136.485" y2="102.481" gradientUnits="userSpaceOnUse">
<stop stop-color="#CEC067"/>
<stop offset="0.3591" stop-color="#755638"/>
<stop offset="1" stop-color="#FBD690"/>
</linearGradient>
<linearGradient id="paint27_linear" x1="114.096" y1="121.626" x2="136.447" y2="121.626" gradientUnits="userSpaceOnUse">
<stop stop-color="#CEC067"/>
<stop offset="0.3591" stop-color="#755638"/>
<stop offset="1" stop-color="#FBD690"/>
</linearGradient>
<linearGradient id="paint28_linear" x1="91.9438" y1="134.386" x2="114.284" y2="134.386" gradientUnits="userSpaceOnUse">
<stop stop-color="#CEC067"/>
<stop offset="0.3591" stop-color="#755638"/>
<stop offset="1" stop-color="#FBD690"/>
</linearGradient>
<linearGradient id="paint29_linear" x1="69.7562" y1="147.135" x2="92.1626" y2="147.135" gradientUnits="userSpaceOnUse">
<stop stop-color="#CEC067"/>
<stop offset="0.3591" stop-color="#755638"/>
<stop offset="1" stop-color="#FBD690"/>
</linearGradient>
<linearGradient id="paint30_linear" x1="47.7077" y1="147.079" x2="69.9893" y2="147.079" gradientUnits="userSpaceOnUse">
<stop stop-color="#CEC067"/>
<stop offset="0.3591" stop-color="#755638"/>
<stop offset="1" stop-color="#FBD690"/>
</linearGradient>
<linearGradient id="paint31_linear" x1="25.6272" y1="134.285" x2="47.887" y2="134.285" gradientUnits="userSpaceOnUse">
<stop stop-color="#CEC067"/>
<stop offset="0.3591" stop-color="#755638"/>
<stop offset="1" stop-color="#FBD690"/>
</linearGradient>
<linearGradient id="paint32_linear" x1="3.48938" y1="108.667" x2="29.2124" y2="108.667" gradientUnits="userSpaceOnUse">
<stop stop-color="#CEC067"/>
<stop offset="0.3591" stop-color="#755638"/>
<stop offset="1" stop-color="#FBD690"/>
</linearGradient>
<linearGradient id="paint33_linear" x1="3.48466" y1="121.471" x2="25.773" y2="121.471" gradientUnits="userSpaceOnUse">
<stop stop-color="#CEC067"/>
<stop offset="0.3591" stop-color="#755638"/>
<stop offset="1" stop-color="#FBD690"/>
</linearGradient>
<linearGradient id="paint34_linear" x1="3.464" y1="102.276" x2="7.12509" y2="102.276" gradientUnits="userSpaceOnUse">
<stop stop-color="#CEC067"/>
<stop offset="0.3591" stop-color="#755638"/>
<stop offset="1" stop-color="#FBD690"/>
</linearGradient>
<linearGradient id="paint35_linear" x1="3.52077" y1="76.7118" x2="7.1431" y2="76.7118" gradientUnits="userSpaceOnUse">
<stop stop-color="#CEC067"/>
<stop offset="0.3591" stop-color="#755638"/>
<stop offset="1" stop-color="#FBD690"/>
</linearGradient>
<linearGradient id="paint36_linear" x1="3.5698" y1="51.1823" x2="7.23103" y2="51.1823" gradientUnits="userSpaceOnUse">
<stop stop-color="#CEC067"/>
<stop offset="0.3591" stop-color="#755638"/>
<stop offset="1" stop-color="#FBD690"/>
</linearGradient>
<linearGradient id="paint37_linear" x1="3.59786" y1="44.832" x2="29.3905" y2="44.832" gradientUnits="userSpaceOnUse">
<stop stop-color="#CEC067"/>
<stop offset="0.3591" stop-color="#755638"/>
<stop offset="1" stop-color="#FBD690"/>
</linearGradient>
<linearGradient id="paint38_linear" x1="3.65799" y1="32.052" x2="25.9655" y2="32.052" gradientUnits="userSpaceOnUse">
<stop stop-color="#CEC067"/>
<stop offset="0.3591" stop-color="#755638"/>
<stop offset="1" stop-color="#FBD690"/>
</linearGradient>
<linearGradient id="paint39_linear" x1="25.7852" y1="19.3121" x2="48.105" y2="19.3121" gradientUnits="userSpaceOnUse">
<stop stop-color="#CEC067"/>
<stop offset="0.3591" stop-color="#755638"/>
<stop offset="1" stop-color="#FBD690"/>
</linearGradient>
<linearGradient id="paint40_linear" x1="47.91" y1="6.55451" x2="70.2482" y2="6.55451" gradientUnits="userSpaceOnUse">
<stop stop-color="#CEC067"/>
<stop offset="0.3591" stop-color="#755638"/>
<stop offset="1" stop-color="#FBD690"/>
</linearGradient>
<linearGradient id="paint41_linear" x1="47.8789" y1="19.3466" x2="92.3347" y2="19.3466" gradientUnits="userSpaceOnUse">
<stop stop-color="#CEC067"/>
<stop offset="0.3591" stop-color="#755638"/>
<stop offset="1" stop-color="#FBD690"/>
</linearGradient>
<linearGradient id="paint42_linear" x1="70.0073" y1="6.5795" x2="92.3286" y2="6.5795" gradientUnits="userSpaceOnUse">
<stop stop-color="#CEC067"/>
<stop offset="0.3591" stop-color="#755638"/>
<stop offset="1" stop-color="#FBD690"/>
</linearGradient>
<linearGradient id="paint43_linear" x1="92.1443" y1="19.3799" x2="114.446" y2="19.3799" gradientUnits="userSpaceOnUse">
<stop stop-color="#CEC067"/>
<stop offset="0.3591" stop-color="#755638"/>
<stop offset="1" stop-color="#FBD690"/>
</linearGradient>
<linearGradient id="paint44_linear" x1="114.258" y1="32.17" x2="136.538" y2="32.17" gradientUnits="userSpaceOnUse">
<stop stop-color="#CEC067"/>
<stop offset="0.3591" stop-color="#755638"/>
<stop offset="1" stop-color="#FBD690"/>
</linearGradient>
<linearGradient id="paint45_linear" x1="110.791" y1="44.9775" x2="136.533" y2="44.9775" gradientUnits="userSpaceOnUse">
<stop stop-color="#CEC067"/>
<stop offset="0.3591" stop-color="#755638"/>
<stop offset="1" stop-color="#FBD690"/>
</linearGradient>
<linearGradient id="paint46_linear" x1="132.914" y1="51.372" x2="136.553" y2="51.372" gradientUnits="userSpaceOnUse">
<stop stop-color="#CEC067"/>
<stop offset="0.3591" stop-color="#755638"/>
<stop offset="1" stop-color="#FBD690"/>
</linearGradient>
<linearGradient id="paint47_linear" x1="132.863" y1="76.9387" x2="136.51" y2="76.9387" gradientUnits="userSpaceOnUse">
<stop stop-color="#CEC067"/>
<stop offset="0.3591" stop-color="#755638"/>
<stop offset="1" stop-color="#FBD690"/>
</linearGradient>
<linearGradient id="paint48_linear" x1="27.5239" y1="110.084" x2="112.377" y2="43.7301" gradientUnits="userSpaceOnUse">
<stop stop-color="#CEC067"/>
<stop offset="0.3591" stop-color="#755638"/>
<stop offset="1" stop-color="#FBD690"/>
</linearGradient>
</defs>
</svg>
