<svg width="1138" height="731" viewBox="0 0 1138 731" fill="none" xmlns="http://www.w3.org/2000/svg">
<path d="M0.5 0.5H2.60177H5.19909H7.79198H10.3805H12.9645H15.5442H18.1195H20.6905H23.2572H25.8195H28.3775H30.9313H33.4808H36.0261H38.5671H41.104H43.6366H46.1651H48.6894H51.2096H53.7256H56.2376H58.7455H61.2493H63.749H66.2447H68.7365H71.2242H73.7079H76.1877H78.6635H81.1354H83.6034H86.0675H88.5277H90.984H93.4365H95.8852H98.3301H100.771H103.209H105.642H108.072H110.498H112.921H115.339H117.754H120.166H122.574H124.978H127.378H129.775H132.169H134.559H136.945H139.328H141.707H144.083H146.456H148.825H151.19H153.552H155.911H158.267H160.619H162.967H165.313H167.655H169.994H172.329H174.662H176.991H179.317H181.639H183.959H186.275H188.588H190.899H193.206H195.509H197.81H200.108H202.403H204.694H206.983H209.269H211.552H213.831H216.108H218.382H220.653H222.921H225.187H227.449H229.709H231.966H234.22H236.471H238.719H240.965H243.208H245.449H247.686H249.921H252.154H254.383H256.61H258.835H261.057H263.276H265.493H267.707H269.919H272.128H274.335H276.539H278.741H280.94H283.137H285.332H287.524H289.714H291.901H294.087H296.27H298.45H300.629H302.805H304.979H307.15H309.32H311.487H313.652H315.815H317.976H320.135H322.291H324.446H326.598H328.749H330.897H333.044H335.188H337.33H339.471H341.609H343.746H345.881H348.014H350.145H352.274H354.401H356.527H358.65H360.772H362.892H365.011H367.127H369.242H371.356H373.467H375.577H377.685H379.792H381.897H384.001H386.103H388.203H390.302H392.399H394.495H396.589H398.682H400.773H402.863H404.952H407.039H409.125H411.209H413.292H415.374H417.454H419.533H421.611H423.688H425.763H427.837H429.91H431.982H434.053H436.122H438.19H440.258H442.324H444.389H446.453H448.516H450.577H452.638H454.698H456.757H458.815H460.872H462.928H464.983H467.037H469.091H471.143H473.195H475.246H477.296H479.345H481.393H483.441H485.488H487.535H489.58H491.625H493.669H495.713H497.756H499.798H501.84H503.881H505.922H507.962H510.002H512.041H514.079H516.117H518.155H520.192H522.229H524.265H526.301H528.337H530.372H532.407H534.442H536.476H538.51H540.544H542.578H544.611H546.644H548.677H550.71H552.743H554.775H556.807H558.84H560.872H562.904H564.936H566.968H569H571.032H573.064H575.096H577.128H579.16H581.193H583.225H585.257H587.29H589.323H591.356H593.389H595.422H597.456H599.49H601.524H603.558H605.593H607.628H609.663H611.699H613.735H615.771H617.808H619.845H621.883H623.921H625.959H627.998H630.038H632.078H634.119H636.16H638.202H640.244H642.287H644.331H646.375H648.42H650.466H652.512H654.559H656.607H658.655H660.704H662.754H664.805H666.857H668.909H670.963H673.017H675.072H677.128H679.185H681.243H683.302H685.362H687.423H689.484H691.547H693.611H695.676H697.742H699.81H701.878H703.947H706.018H708.09H710.163H712.237H714.312H716.389H718.467H720.546H722.626H724.708H726.791H728.875H730.961H733.048H735.137H737.227H739.318H741.411H743.505H745.601H747.698H749.797H751.898H753.999H756.103H758.208H760.315H762.423H764.533H766.644H768.758H770.873H772.989H775.108H777.228H779.35H781.473H783.599H785.726H787.855H789.986H792.119H794.254H796.391H798.529H800.67H802.812H804.956H807.103H809.251H811.402H813.554H815.709H817.865H820.024H822.185H824.348H826.513H828.68H830.85H833.021H835.195H837.371H839.55H841.73H843.913H846.099H848.286H850.476H852.668H854.863H857.06H859.259H861.461H863.665H865.872H868.081H870.293H872.507H874.724H876.943H879.165H881.39H883.617H885.846H888.079H890.314H892.551H894.792H897.035H899.281H901.529H903.78H906.034H908.291H910.551H912.813H915.079H917.347H919.618H921.892H924.169H926.448H928.731H931.017H933.306H935.597H937.892H940.19H942.491H944.794H947.101H949.412H951.725H954.041H956.361H958.683H961.009H963.338H965.671H968.006H970.345H972.687H975.033H977.381H979.733H982.089H984.448H986.81H989.175H991.544H993.917H996.293H998.672H1001.05H1003.44H1005.83H1008.22H1010.62H1013.02H1015.43H1017.83H1020.25H1022.66H1025.08H1027.5H1029.93H1032.36H1034.79H1037.23H1039.67H1042.11H1044.56H1047.02H1049.47H1051.93H1054.4H1056.86H1059.34H1061.81H1064.29H1066.78H1069.26H1071.76H1074.25H1076.75H1079.25H1081.76H1084.27H1086.79H1089.31H1091.83H1094.36H1096.9H1099.43H1101.97H1104.52H1107.07H1109.62H1112.18H1114.74H1117.31H1119.88H1122.46H1125.04H1127.62H1130.21H1132.8H1135.4H1137.5V730.5H0.5V0.5Z" stroke="url(#paint0_linear)"/>
<defs>
<linearGradient id="paint0_linear" x1="69.6491" y1="599.961" x2="665.232" y2="-176.044" gradientUnits="userSpaceOnUse">
<stop stop-color="#CEC067"/>
<stop offset="0.3591" stop-color="#755638"/>
<stop offset="1" stop-color="#FBD690"/>
</linearGradient>
</defs>
</svg>
