<svg width="276" height="122" viewBox="0 0 276 122" fill="none" xmlns="http://www.w3.org/2000/svg">
<g clip-path="url(#clip0)">
<path opacity="0.75" d="M37.975 111.872C34.8066 111.872 31.661 111.123 28.7538 109.658C23.882 107.194 20.2594 102.971 18.556 97.7817C15.0469 87.0634 20.9067 75.4822 31.6269 71.9738C42.3471 68.4653 53.9304 74.3241 57.4394 85.0423C59.1429 90.2425 58.7227 95.7833 56.247 100.654C53.7828 105.525 49.5583 109.147 44.3685 110.85C42.2676 111.532 40.1099 111.872 37.975 111.872ZM18.8739 97.6681C20.5546 102.777 24.1091 106.922 28.9014 109.352C33.6937 111.781 39.1447 112.19 44.2549 110.521C49.3652 108.852 53.5102 105.287 55.9404 100.495C58.3706 95.7039 58.7795 90.2539 57.1101 85.1445C53.6578 74.6079 42.2676 68.84 31.7291 72.2917C21.1906 75.7433 15.4217 87.1201 18.8739 97.6681C18.8739 97.6568 18.8739 97.6568 18.8739 97.6681Z" fill="url(#paint0_linear)"/>
<path opacity="0.75" d="M73.1223 111.929C69.9539 111.929 66.8083 111.18 63.9011 109.715C59.0293 107.251 55.4067 103.027 53.7033 97.8384C51.9998 92.6496 52.42 87.0974 54.8957 82.2265C57.3599 77.3556 61.5844 73.7336 66.7742 72.0305C77.4944 68.5221 89.0777 74.3808 92.5867 85.0991C96.0958 95.8288 90.236 107.399 79.5158 110.918C77.4149 111.588 75.2572 111.929 73.1223 111.929ZM54.0212 97.7249C55.6906 102.834 59.2564 106.979 64.0487 109.397C68.841 111.827 74.292 112.235 79.4022 110.566C89.9408 107.115 95.7097 95.7266 92.2574 85.19C90.5881 80.0806 87.0222 75.9363 82.2299 73.5066C77.4376 71.0768 71.9867 70.668 66.8764 72.3371C61.7661 74.0061 57.6211 77.5713 55.1909 82.3628C52.7607 87.1656 52.3519 92.6155 54.0212 97.7249Z" fill="url(#paint1_linear)"/>
<path opacity="0.75" d="M90.7584 81.5112C82.1504 81.5112 74.1216 76.0385 71.3053 67.4208C67.7963 56.7025 73.656 45.1213 84.3763 41.6129C95.0965 38.1044 106.68 43.9632 110.189 54.6814C111.892 59.8816 111.472 65.4224 108.996 70.2934C106.532 75.1643 102.308 78.7862 97.1179 80.4893C95.0056 81.1819 92.8707 81.5112 90.7584 81.5112ZM71.6346 67.3072C71.6346 67.3186 71.646 67.3299 71.646 67.3299C75.0983 77.8438 86.4771 83.6117 97.0157 80.1601C102.126 78.491 106.271 74.9258 108.701 70.1344C111.131 65.343 111.54 59.893 109.871 54.7836C108.201 49.6743 104.636 45.53 99.8433 43.1002C95.051 40.6705 89.6001 40.2617 84.4898 41.9308C73.9399 45.3938 68.1824 56.7706 71.6346 67.3072Z" fill="url(#paint2_linear)"/>
<path opacity="0.75" d="M73.2472 51.0481C64.6392 51.0481 56.6104 45.5754 53.7941 36.9577C50.2851 26.2394 56.1448 14.6582 66.8651 11.1497C77.5853 7.64132 89.1685 13.5 92.6776 24.2183C94.381 29.4185 93.9608 34.9593 91.4852 39.8302C89.0209 44.7012 84.7964 48.3231 79.6067 50.0262C77.4944 50.7188 75.3481 51.0481 73.2472 51.0481ZM54.1121 36.8441C57.5757 47.3807 68.9546 53.1486 79.4931 49.697C84.6034 48.0279 88.7484 44.4627 91.1786 39.6713C93.6088 34.8799 94.0176 29.4299 92.3483 24.3205C88.8846 13.7839 77.5058 8.01601 66.9673 11.4677C56.4287 14.9193 50.6598 26.3075 54.1121 36.8441Z" fill="url(#paint3_linear)"/>
<path opacity="0.75" d="M38.0886 51.0254C34.9202 51.0254 31.7745 50.276 28.8674 48.8114C23.9956 46.3475 20.373 42.1238 18.6695 36.9349C16.9661 31.7461 17.3863 26.194 19.8619 21.323C22.3262 16.4521 26.5507 12.8302 31.7405 11.127C42.4607 7.61861 54.044 13.4773 57.553 24.1956C59.2564 29.3958 58.8363 34.9366 56.3606 39.8075C53.8963 44.6785 49.6718 48.3004 44.4821 50.0035C42.3812 50.6848 40.2235 51.0254 38.0886 51.0254ZM18.9875 36.8214C20.6569 41.9308 24.2227 46.075 29.015 48.5048C33.8073 50.9346 39.2582 51.3433 44.3685 49.6743C49.4788 48.0052 53.6238 44.44 56.054 39.6486C58.4842 34.8571 58.893 29.4072 57.2237 24.2978C53.7714 13.7498 42.3812 7.9933 31.8427 11.445C26.7324 13.114 22.5874 16.6792 20.1572 21.4706C17.727 26.2621 17.3182 31.7121 18.9875 36.8214Z" fill="url(#paint4_linear)"/>
<path opacity="0.75" d="M20.4981 81.409C11.8902 81.409 3.86136 75.9364 1.04503 67.3186C-2.46402 56.6003 3.39576 45.0191 14.116 41.5107C24.8362 38.0022 36.4195 43.861 39.9285 54.5793C43.4376 65.3089 37.5778 76.8787 26.8576 80.3985C24.7453 81.0798 22.599 81.409 20.4981 81.409ZM1.36301 67.205C4.81528 77.7417 16.2055 83.5096 26.744 80.0579C31.8543 78.3889 35.9993 74.8237 38.4295 70.0322C40.8597 65.2408 41.2685 59.7908 39.5992 54.6814C36.1356 44.1448 24.7567 38.3769 14.2182 41.8286C3.67966 45.2802 -2.08926 56.6684 1.36301 67.205Z" fill="url(#paint5_linear)"/>
<path opacity="0.5" d="M20.3957 101.653C17.2387 101.653 14.093 100.915 11.1972 99.4394C6.33679 96.9755 2.71417 92.7631 1.02211 87.5857C-2.48695 76.8901 3.37283 65.3316 14.0703 61.8345C19.2487 60.1314 24.7905 60.5629 29.651 63.0267C34.5114 65.4906 38.134 69.7029 39.8261 74.8804C43.3351 85.5873 37.4867 97.1345 26.7779 100.643C24.6883 101.313 22.542 101.653 20.3957 101.653ZM20.4411 61.0624C18.3289 61.0624 16.2053 61.4031 14.1498 62.073C3.57724 65.536 -2.19169 76.9355 1.26058 87.4948C2.9413 92.6042 6.50713 96.7598 11.3108 99.2009C16.1144 101.631 21.5767 102.051 26.6984 100.37C37.2596 96.9074 43.0399 85.5079 39.5763 74.9485C37.8955 69.8278 34.3297 65.6722 29.5261 63.2424C26.6643 61.7891 23.5641 61.0624 20.4411 61.0624Z" fill="url(#paint6_linear)"/>
<path opacity="0.5" d="M20.4988 61.0965C17.3418 61.0965 14.1962 60.3585 11.3003 58.8825C6.43991 56.4186 2.8173 52.2062 1.12523 47.0288C-2.39517 36.3332 3.4646 24.7747 14.1621 21.2663C24.8596 17.7578 36.4202 23.6166 39.9179 34.3121C41.6213 39.501 41.2011 45.0304 38.7368 49.89C36.2725 54.7496 32.0594 58.3715 26.881 60.0633C24.7801 60.7559 22.6338 61.0965 20.4988 61.0965ZM1.36371 46.9493C3.04442 52.07 6.61026 56.2256 11.4139 58.6554C16.2176 61.0852 21.6799 61.5053 26.8015 59.8248C31.9231 58.1444 36.0795 54.5792 38.5097 49.7765C40.9399 44.9737 41.3601 39.5123 39.6794 34.3916C36.2158 23.8323 24.8142 18.053 14.2416 21.5161C3.68037 24.9791 -2.09991 36.3899 1.36371 46.9493Z" fill="url(#paint7_linear)"/>
<path opacity="0.5" d="M55.6565 40.8408C52.4995 40.8408 49.3539 40.1027 46.4581 38.6267C41.5976 36.1629 37.975 31.9505 36.2829 26.773L36.4079 26.7276L36.2829 26.773C32.7625 16.0774 38.6109 4.51894 49.3084 1.02187C60.0059 -2.48655 71.5665 3.37217 75.0642 14.0678C76.7676 19.2566 76.3475 24.786 73.8832 29.6456C71.4189 34.5052 67.2058 38.1271 62.0273 39.8189C59.9378 40.5001 57.7915 40.8408 55.6565 40.8408ZM36.5214 26.6935C38.2021 31.8142 41.768 35.9698 46.5716 38.3996C51.3753 40.8294 56.8376 41.2495 61.9592 39.5691C67.0808 37.8887 71.2372 34.3235 73.6674 29.5207C76.0976 24.7179 76.5178 19.2566 74.8371 14.1359C71.3621 3.57655 59.9605 -2.19134 49.3993 1.26031C38.8381 4.72331 33.0578 16.1342 36.5214 26.6935Z" fill="url(#paint8_linear)"/>
<path opacity="0.5" d="M90.7811 61.1873C82.1958 61.1873 74.1784 55.726 71.3621 47.1309C67.853 36.4354 73.7128 24.8769 84.4103 21.3798C95.1078 17.8714 106.668 23.7301 110.166 34.4257C111.869 39.6145 111.449 45.144 108.985 50.0035C106.521 54.8631 102.308 58.4851 97.1292 60.1768C95.0283 60.8581 92.8933 61.1873 90.7811 61.1873ZM71.6119 47.0401C75.0755 57.6108 86.4885 63.3787 97.0497 59.9157C102.171 58.2353 106.328 54.6701 108.758 49.8673C111.188 45.0645 111.608 39.6032 109.928 34.4825C106.464 23.9231 95.051 18.1439 84.4898 21.6069C73.9286 25.0699 68.1596 36.4808 71.6119 47.0401Z" fill="url(#paint9_linear)"/>
<path opacity="0.5" d="M90.7471 101.767C82.1618 101.767 74.1444 96.3056 71.328 87.7106L71.453 87.6651L71.328 87.7106C69.6246 82.5331 70.0562 76.9923 72.5204 72.1327C74.9847 67.2731 79.1979 63.6512 84.3763 61.9594C95.0738 58.451 106.634 64.3097 110.132 75.0053C113.641 85.7122 107.793 97.2594 97.0838 100.768C94.9943 101.438 92.848 101.767 90.7471 101.767ZM71.5779 87.6197C71.5779 87.6197 71.5779 87.6311 71.5779 87.6197C75.0415 98.1904 86.4544 103.958 97.0157 100.495C107.577 97.0323 113.357 85.6328 109.894 75.0734C106.43 64.5027 95.0283 58.7349 84.4558 62.1979C79.3341 63.8783 75.1778 67.4435 72.7476 72.2463C70.3173 77.049 69.9085 82.5104 71.5779 87.6197Z" fill="url(#paint10_linear)"/>
<path opacity="0.5" d="M55.5543 122C46.9691 122 38.9516 116.539 36.1353 107.944L36.2602 107.898L36.1353 107.944C34.4319 102.766 34.8634 97.2253 37.3277 92.3658C39.792 87.5062 44.0051 83.8842 49.1835 82.1925C54.3619 80.4893 59.9037 80.9208 64.7642 83.3847C69.6246 85.8485 73.2472 90.0609 74.9393 95.2383C78.4483 105.945 72.5999 117.492 61.8911 121.001C59.7902 121.671 57.6552 122 55.5543 122ZM55.5543 81.409C53.4421 81.409 51.3185 81.7497 49.263 82.4195C44.1414 84.1 39.985 87.6652 37.5548 92.4679C35.1246 97.2707 34.7044 102.732 36.3851 107.853C39.8488 118.412 51.2503 124.191 61.8116 120.728C72.3728 117.265 78.1531 105.866 74.6894 95.3065C73.0087 90.1858 69.4429 86.0302 64.6392 83.6004C61.7775 82.147 58.6773 81.409 55.5543 81.409Z" fill="url(#paint11_linear)"/>
<path opacity="0.3" d="M20.532 40.7159C18.7604 40.7159 16.9775 40.4774 15.2173 40.0119C9.99344 38.604 5.62133 35.2659 2.89585 30.588C2.87313 30.5426 2.88449 30.4972 2.92992 30.4745C2.97534 30.4517 3.02076 30.4631 3.04348 30.5085C8.59664 40.0573 20.9294 43.3727 30.514 37.8887C40.1895 32.3592 43.5736 19.9946 38.0432 10.3323C38.0204 10.2868 38.0318 10.2414 38.0772 10.2187C38.1226 10.196 38.1681 10.2074 38.1908 10.2528C43.7553 20.006 40.3598 32.4728 30.6049 38.0477C27.4933 39.8075 24.0297 40.7159 20.532 40.7159Z" fill="url(#paint12_linear)"/>
<path opacity="0.3" d="M38.0999 30.5766C36.3284 30.5766 34.5454 30.3382 32.7966 29.8727C27.5728 28.4761 23.2006 25.1267 20.4752 20.4601C20.4525 20.4147 20.4638 20.3693 20.5092 20.3466C20.5547 20.3239 20.6001 20.3352 20.6228 20.3806C26.1873 29.9181 38.5087 33.2108 48.0933 27.7495C57.7688 22.2314 61.1416 9.86673 55.6225 0.19302C55.5997 0.147604 55.6111 0.102187 55.6565 0.0794789C55.702 0.0567707 55.7474 0.0681248 55.7701 0.113541C61.3346 9.86673 57.9391 22.3336 48.1842 27.9084C45.0499 29.6683 41.5976 30.5766 38.0999 30.5766Z" fill="url(#paint13_linear)"/>
<path opacity="0.3" d="M73.2131 30.6902C69.6814 30.6902 66.1837 29.7591 63.038 27.9425C58.3252 25.2175 54.9638 20.8235 53.5556 15.5665C52.1475 10.3095 52.8856 4.8255 55.6111 0.113541C55.6338 0.0681248 55.6906 0.0567707 55.7247 0.0794789C55.7701 0.102187 55.7815 0.158958 55.7587 0.19302C53.056 4.85956 52.3292 10.3095 53.726 15.5211C55.1228 20.7326 58.4502 25.0926 63.1289 27.7949C72.7703 33.3698 85.1485 30.0657 90.7243 20.4261C90.747 20.3806 90.8038 20.3693 90.8379 20.392C90.8833 20.4147 90.8947 20.4715 90.872 20.5055C88.1465 25.2175 83.7517 28.5783 78.4938 29.9862C76.7449 30.4631 74.9734 30.6902 73.2131 30.6902Z" fill="url(#paint14_linear)"/>
<path opacity="0.3" d="M90.7584 40.8748C87.2153 40.8748 83.7289 39.9438 80.5833 38.1158C70.8624 32.4841 67.5351 19.9946 73.1677 10.2755C73.1904 10.2301 73.2472 10.2187 73.2813 10.2414C73.3267 10.2641 73.3381 10.3209 73.3153 10.355C67.7281 19.9946 71.0328 32.3706 80.6628 37.9568C85.3302 40.6591 90.7697 41.3858 95.9936 40.0006C101.206 38.6154 105.567 35.2772 108.27 30.6107C108.292 30.5653 108.349 30.5539 108.383 30.5766C108.429 30.5994 108.44 30.6561 108.417 30.6902C105.692 35.4021 101.286 38.763 96.0276 40.1595C94.2902 40.6364 92.5186 40.8748 90.7584 40.8748Z" fill="url(#paint15_linear)"/>
<path opacity="0.3" d="M108.281 71.2925C97.0497 71.213 87.9648 62.0162 88.0443 50.787C88.0783 45.3824 90.202 40.3071 94.029 36.4921C97.856 32.6772 102.932 30.5653 108.338 30.5426C108.383 30.5426 108.429 30.5766 108.429 30.6334C108.429 30.6788 108.395 30.7242 108.338 30.7242C97.3109 30.7583 88.2828 39.7621 88.2146 50.787C88.1465 61.9254 97.1406 71.0427 108.281 71.1222C108.326 71.1222 108.372 71.1563 108.372 71.213C108.372 71.2471 108.338 71.2925 108.281 71.2925Z" fill="url(#paint16_linear)"/>
<path opacity="0.3" d="M108.27 91.5823C97.0384 91.5028 87.9534 82.306 88.0329 71.0768C88.067 65.6836 90.1906 60.6083 94.0176 56.7933C97.8333 52.9783 102.909 50.8665 108.315 50.8438C108.36 50.8438 108.406 50.8778 108.406 50.9346C108.406 50.98 108.372 51.0254 108.315 51.0254C97.2995 51.0822 88.2828 60.0746 88.2146 71.0881C88.1351 82.2265 97.1406 91.3439 108.281 91.4234C108.326 91.4234 108.372 91.4574 108.372 91.5142C108.372 91.571 108.326 91.5823 108.27 91.5823Z" fill="url(#paint17_linear)"/>
<path opacity="0.3" d="M73.0882 111.827C73.0541 111.827 73.0314 111.815 73.0087 111.781C70.3173 107.047 69.6359 101.563 71.0782 96.317C72.5204 91.0714 75.9159 86.7001 80.6514 84.0091C85.3529 81.3409 90.8152 80.637 96.0276 82.0449C101.251 83.4528 105.612 86.8022 108.338 91.4688C108.36 91.5142 108.349 91.5596 108.304 91.5823C108.258 91.605 108.213 91.5937 108.19 91.5483C102.648 82.0108 90.3268 78.6954 80.7423 84.1454C76.0522 86.8136 72.6794 91.1509 71.2485 96.3511C69.8176 101.551 70.499 107.001 73.1677 111.69C73.1904 111.736 73.1791 111.781 73.1336 111.804C73.1223 111.827 73.1109 111.827 73.0882 111.827Z" fill="url(#paint18_linear)"/>
<path opacity="0.3" d="M55.4975 121.943C55.4635 121.943 55.4408 121.932 55.418 121.898C52.7266 117.175 52.0339 111.679 53.4648 106.434C54.907 101.188 58.3025 96.8166 63.0267 94.1143C67.7281 91.4347 73.1904 90.7308 78.4143 92.1387C83.6381 93.5466 88.0102 96.896 90.7243 101.574C90.747 101.619 90.7357 101.665 90.6903 101.687C90.6448 101.71 90.5994 101.699 90.5767 101.653C85.0235 92.1046 72.7021 88.7892 63.1062 94.2619C58.4161 96.9301 55.0546 101.267 53.6238 106.468C52.1929 111.668 52.8856 117.118 55.5543 121.807C55.577 121.852 55.5657 121.898 55.5202 121.921C55.5316 121.932 55.5202 121.943 55.4975 121.943Z" fill="url(#paint19_linear)"/>
<path opacity="0.3" d="M73.0882 111.838C73.0541 111.838 73.0314 111.827 73.0087 111.793C71.2485 108.727 68.6934 106.161 65.6272 104.378C60.9598 101.676 55.5202 100.949 50.2964 102.335C45.0839 103.72 40.7232 107.058 38.0204 111.725C37.9977 111.77 37.9409 111.781 37.9068 111.759C37.8614 111.736 37.8501 111.679 37.8728 111.645C43.5054 101.926 55.9972 98.5992 65.7181 104.231C68.8069 106.025 71.3848 108.602 73.1677 111.702C73.1904 111.747 73.1791 111.793 73.1336 111.815C73.1223 111.827 73.1109 111.838 73.0882 111.838Z" fill="url(#paint20_linear)"/>
<path opacity="0.3" d="M55.5202 121.932C55.5089 121.932 55.4862 121.932 55.4748 121.921C55.4294 121.898 55.418 121.841 55.4407 121.807C60.9485 112.224 57.6552 99.8822 48.116 94.3073C43.46 91.5823 38.0204 90.8443 32.7966 92.2068C27.5727 93.5806 23.2006 96.896 20.4865 101.551C20.4638 101.597 20.407 101.608 20.3729 101.585C20.3275 101.563 20.3162 101.506 20.3389 101.472C23.0871 96.7712 27.4932 93.4217 32.7625 92.0478C38.0204 90.6626 43.5168 91.412 48.2069 94.1597C52.8856 96.8847 56.2243 101.267 57.6211 106.502C59.0179 111.736 58.3025 117.197 55.5997 121.886C55.577 121.921 55.5429 121.932 55.5202 121.932Z" fill="url(#paint21_linear)"/>
<path opacity="0.3" d="M37.9636 111.759C37.9523 111.759 37.9296 111.759 37.9182 111.747C37.8728 111.725 37.8614 111.668 37.8841 111.634C40.5869 106.967 41.3137 101.529 39.9169 96.3056C38.5314 91.0941 35.1927 86.7341 30.5254 84.0318C25.858 81.3296 20.4184 80.6029 15.1945 81.9995C9.98207 83.3847 5.6213 86.7228 2.91854 91.3893C2.89583 91.4347 2.83905 91.4461 2.80498 91.4234C2.75955 91.4007 2.7482 91.3439 2.77091 91.3098C5.49639 86.5979 9.89122 83.2371 15.1491 81.8291C20.407 80.4326 25.892 81.1592 30.6048 83.8842C35.3176 86.6092 38.6791 91.0033 40.0872 96.2602C41.484 101.517 40.7573 107.001 38.0318 111.713C38.0204 111.747 37.9977 111.759 37.9636 111.759Z" fill="url(#paint22_linear)"/>
<path opacity="0.3" d="M2.83905 91.3893C2.79362 91.3893 2.7482 91.3552 2.7482 91.2985C2.7482 91.2531 2.78227 91.2076 2.83905 91.2076C13.8545 91.1736 22.8827 82.1811 22.9735 71.179C23.0644 60.0406 14.0703 50.9119 2.94125 50.821C2.89583 50.821 2.8504 50.787 2.8504 50.7302C2.8504 50.6848 2.88447 50.6394 2.94125 50.6394C14.1725 50.7302 23.2461 59.9384 23.1552 71.1676C23.1098 76.5608 20.9862 81.6361 17.1592 85.4397C13.3208 89.2661 8.23322 91.3779 2.83905 91.3893Z" fill="url(#paint23_linear)"/>
<path opacity="0.3" d="M2.89584 71.1336C2.85042 71.1336 2.80499 71.0995 2.80499 71.0427C2.80499 70.9973 2.83906 70.9519 2.89584 70.9519C13.934 70.9292 22.9849 61.9254 23.053 50.8892C23.1325 39.7508 14.1271 30.6334 2.98669 30.5539C2.94127 30.5539 2.89584 30.5199 2.89584 30.4631C2.89584 30.4177 2.92991 30.3723 2.98669 30.3723C14.2179 30.4517 23.3029 39.6486 23.2234 50.8778C23.1893 56.2824 21.0543 61.369 17.2273 65.184C13.4003 69.0103 8.31273 71.1222 2.89584 71.1336Z" fill="url(#paint24_linear)"/>
<path opacity="0.3" d="M90.6789 101.71C90.6448 101.71 90.6221 101.699 90.5994 101.665C85.0008 91.9229 88.3622 79.4561 98.1058 73.8472C101.195 72.0759 104.704 71.1336 108.258 71.1336C108.304 71.1336 108.349 71.1676 108.349 71.2244C108.349 71.2698 108.315 71.3152 108.258 71.3152C108.258 71.3152 108.258 71.3152 108.247 71.3152C104.715 71.3152 101.24 72.2463 98.174 74.0061C88.5212 79.5583 85.1825 91.9229 90.7357 101.585C90.7584 101.631 90.747 101.676 90.7016 101.699C90.713 101.71 90.7016 101.71 90.6789 101.71Z" fill="url(#paint25_linear)"/>
<path opacity="0.3" d="M108.258 91.5937C108.224 91.5937 108.201 91.5823 108.179 91.5483C104.556 85.2581 104.579 77.4464 108.213 71.179C108.236 71.1335 108.292 71.1222 108.326 71.1449C108.372 71.1676 108.383 71.2244 108.36 71.2584C104.749 77.4805 104.738 85.224 108.326 91.4574C108.349 91.5028 108.338 91.5483 108.292 91.571C108.281 91.5937 108.27 91.5937 108.258 91.5937Z" fill="url(#paint26_linear)"/>
<path opacity="0.3" d="M90.6903 101.687C90.6789 101.687 90.6562 101.687 90.6448 101.676C90.5994 101.653 90.5881 101.597 90.6108 101.563C94.2448 95.3178 100.99 91.4347 108.224 91.4347C108.236 91.4347 108.247 91.4347 108.258 91.4347C108.304 91.4347 108.349 91.4688 108.349 91.5256C108.349 91.571 108.315 91.6164 108.258 91.6164C108.247 91.6164 108.236 91.6164 108.224 91.6164C101.058 91.6164 94.3697 95.4654 90.7584 101.665C90.7471 101.676 90.713 101.687 90.6903 101.687Z" fill="url(#paint27_linear)"/>
<path opacity="0.3" d="M73.0996 111.827C73.0883 111.827 73.0655 111.827 73.0542 111.815C73.0088 111.793 72.9974 111.736 73.0201 111.702C76.6541 105.446 83.3996 101.563 90.6449 101.563C90.7016 101.563 90.7471 101.597 90.7471 101.653C90.7471 101.699 90.713 101.744 90.6562 101.744C90.6449 101.744 90.6449 101.744 90.6335 101.744C83.4564 101.744 76.7676 105.593 73.1677 111.804C73.1564 111.815 73.1337 111.827 73.0996 111.827Z" fill="url(#paint28_linear)"/>
<path opacity="0.3" d="M55.4862 121.966C55.4748 121.966 55.4521 121.966 55.4407 121.955C55.3953 121.932 55.384 121.875 55.4067 121.841C59.0407 115.574 65.7862 111.679 73.0428 111.679C73.0655 111.679 73.0882 111.679 73.0996 111.679C73.145 111.679 73.1904 111.713 73.1904 111.77C73.1904 111.815 73.1564 111.861 73.0996 111.861C73.0769 111.861 73.0541 111.861 73.0428 111.861C65.8543 111.861 59.1656 115.721 55.5657 121.932C55.543 121.943 55.5089 121.966 55.4862 121.966Z" fill="url(#paint29_linear)"/>
<path opacity="0.3" d="M55.4976 121.932C55.4635 121.932 55.4408 121.921 55.4181 121.886C51.8295 115.676 45.1521 111.804 37.975 111.793C37.9296 111.793 37.8842 111.759 37.8842 111.702C37.8842 111.656 37.9182 111.611 37.975 111.611C45.2089 111.634 51.9544 115.528 55.5657 121.796C55.5884 121.841 55.577 121.886 55.5316 121.909C55.5203 121.921 55.5089 121.932 55.4976 121.932Z" fill="url(#paint30_linear)"/>
<path opacity="0.3" d="M37.9409 111.77C37.9069 111.77 37.8842 111.759 37.8615 111.725C34.2843 105.514 27.6068 101.642 20.4297 101.619C20.3843 101.619 20.3389 101.585 20.3389 101.529C20.3389 101.483 20.373 101.438 20.4297 101.438C27.6636 101.46 34.3978 105.366 38.0091 111.634C38.0318 111.679 38.0204 111.725 37.975 111.747C37.975 111.77 37.9523 111.77 37.9409 111.77Z" fill="url(#paint31_linear)"/>
<path opacity="0.3" d="M20.3843 101.574C20.3729 101.574 20.3502 101.574 20.3389 101.563C20.2935 101.54 20.2821 101.483 20.3048 101.449C22.0764 98.3948 23.0076 94.9091 23.0189 91.3779C23.0303 85.9847 20.9408 80.9094 17.1251 77.0831C13.3208 73.2568 8.24458 71.1563 2.8504 71.1449C2.80498 71.1449 2.75955 71.1108 2.75955 71.0541C2.75955 71.0087 2.79362 70.9632 2.8504 70.9632C8.29 70.9746 13.4003 73.0978 17.25 76.9582C21.0884 80.8073 23.2006 85.928 23.1893 91.3666C23.1779 94.9318 22.2354 98.4402 20.4524 101.529C20.4524 101.563 20.4184 101.574 20.3843 101.574Z" fill="url(#paint32_linear)"/>
<path opacity="0.3" d="M20.3843 101.597C20.3502 101.597 20.3275 101.585 20.3048 101.551C16.7163 95.3405 10.0275 91.4688 2.8504 91.4574C2.80498 91.4574 2.75955 91.4234 2.75955 91.3666C2.75955 91.3212 2.79362 91.2758 2.8504 91.2758C10.0843 91.2871 16.8298 95.1929 20.4524 101.46C20.4752 101.506 20.4638 101.551 20.4184 101.574C20.407 101.597 20.3957 101.597 20.3843 101.597Z" fill="url(#paint33_linear)"/>
<path opacity="0.3" d="M2.83905 91.412C2.82769 91.412 2.80498 91.412 2.79362 91.4007C2.7482 91.3779 2.73684 91.3212 2.75956 91.2871C6.35946 85.0764 6.39353 77.3556 2.82769 71.1222C2.80498 71.0768 2.81634 71.0314 2.86176 71.0087C2.90719 70.986 2.95261 70.9973 2.97532 71.0427C6.57522 77.3329 6.54116 85.1218 2.90719 91.3779C2.89583 91.4007 2.87312 91.412 2.83905 91.412Z" fill="url(#paint34_linear)"/>
<path opacity="0.3" d="M2.88446 71.0881C2.8731 71.0881 2.85039 71.0881 2.83903 71.0768C2.79361 71.0541 2.78225 70.9973 2.80497 70.9632C6.38216 64.7639 6.39351 57.0544 2.83903 50.8551C2.81632 50.8097 2.82768 50.7643 2.8731 50.7416C2.91853 50.7188 2.96395 50.7302 2.98666 50.7756C6.56385 57.0431 6.5525 64.8093 2.9526 71.0654C2.94124 71.0768 2.91853 71.0881 2.88446 71.0881Z" fill="url(#paint35_linear)"/>
<path opacity="0.3" d="M2.9299 50.8551C2.91854 50.8551 2.89583 50.8551 2.88447 50.8437C2.83905 50.821 2.82769 50.7643 2.85041 50.7302C6.45031 44.5195 6.48438 36.7987 2.91854 30.5653C2.89583 30.5199 2.90719 30.4745 2.95261 30.4517C2.99804 30.429 3.04346 30.4404 3.06617 30.4858C6.66607 36.776 6.63201 44.5649 2.99804 50.8324C2.98668 50.8324 2.95261 50.8551 2.9299 50.8551Z" fill="url(#paint36_linear)"/>
<path opacity="0.3" d="M2.96396 50.8664C2.90718 50.8664 2.86176 50.8324 2.86176 50.7756C2.86176 50.7302 2.89582 50.6848 2.9526 50.6848H2.96396C6.48437 50.6848 9.95935 49.7651 13.0142 48.0052C17.6929 45.3256 21.0543 40.977 22.4625 35.7768C23.8706 30.5653 23.1779 25.1267 20.4979 20.4488C20.4752 20.4034 20.4865 20.3579 20.5319 20.3352C20.5774 20.3125 20.6228 20.3239 20.6455 20.3693C23.3483 25.0926 24.0523 30.5766 22.6328 35.8336C21.2133 41.0792 17.8178 45.4619 13.105 48.1755C10.0161 49.9354 6.50708 50.8664 2.96396 50.8664Z" fill="url(#paint37_linear)"/>
<path opacity="0.3" d="M2.99805 30.5766C2.94126 30.5766 2.9072 30.5426 2.9072 30.4858C2.9072 30.4404 2.94126 30.395 2.99805 30.395C2.99805 30.395 2.99805 30.395 3.0094 30.395C10.1751 30.395 16.8639 26.5459 20.4638 20.3579C20.4865 20.3125 20.5433 20.3012 20.5774 20.3239C20.6228 20.3466 20.6342 20.4033 20.6114 20.4374C16.9775 26.6935 10.2319 30.5766 2.99805 30.5766Z" fill="url(#paint38_linear)"/>
<path opacity="0.3" d="M20.566 20.4715C20.5092 20.4715 20.4752 20.4374 20.4752 20.3806C20.4752 20.3352 20.5092 20.2898 20.566 20.2898C27.7431 20.2898 34.4319 16.4408 38.0318 10.2301C38.0545 10.1846 38.1113 10.1733 38.1453 10.196C38.1908 10.2187 38.2021 10.2755 38.1794 10.3095C34.5568 16.5884 27.7999 20.4715 20.566 20.4715Z" fill="url(#paint39_linear)"/>
<path opacity="0.3" d="M38.1453 10.355C38.0885 10.355 38.0431 10.3209 38.0431 10.2641C38.0431 10.2187 38.0772 10.1733 38.134 10.1733H38.1453C45.3224 10.1733 52.0226 6.31289 55.6225 0.102188C55.6452 0.0567713 55.702 0.0454172 55.736 0.0681254C55.7814 0.0908336 55.7928 0.147604 55.7701 0.181667C52.1361 6.46049 45.3906 10.355 38.1453 10.355Z" fill="url(#paint40_linear)"/>
<path opacity="0.3" d="M55.6452 20.5169C52.1815 20.5169 48.6838 19.6313 45.4701 17.7806C42.3812 15.998 39.8147 13.4206 38.0318 10.3323C38.0091 10.2868 38.0204 10.2414 38.0658 10.2187C38.1113 10.196 38.1567 10.2074 38.1794 10.2528C39.951 13.307 42.4947 15.8617 45.5495 17.6329C55.1909 23.2078 67.5691 19.9038 73.1564 10.2641C73.1791 10.2187 73.2359 10.2074 73.2699 10.2301C73.3153 10.2528 73.3267 10.3095 73.304 10.3436C69.5338 16.8722 62.686 20.5169 55.6452 20.5169Z" fill="url(#paint41_linear)"/>
<path opacity="0.3" d="M73.2358 10.3777C65.9906 10.3777 59.2337 6.47185 55.6111 0.204375C55.5884 0.158958 55.5997 0.113542 55.6452 0.0908333C55.6906 0.0681251 55.736 0.0794792 55.7587 0.124896C59.3586 6.34695 66.0474 10.2074 73.2358 10.2187C73.2813 10.2187 73.3267 10.2528 73.3267 10.3095C73.3153 10.3436 73.2813 10.3777 73.2358 10.3777Z" fill="url(#paint42_linear)"/>
<path opacity="0.3" d="M90.7925 20.551C83.5472 20.5396 76.8017 16.6338 73.1791 10.355C73.1564 10.3095 73.1677 10.2641 73.2131 10.2414C73.2586 10.2187 73.304 10.2301 73.3267 10.2755C76.9153 16.4975 83.604 20.3693 90.7811 20.3806C90.8265 20.3806 90.872 20.4147 90.872 20.4715C90.8833 20.5169 90.8379 20.551 90.7925 20.551Z" fill="url(#paint43_linear)"/>
<path opacity="0.3" d="M108.338 30.7015C101.104 30.6788 94.3583 26.773 90.747 20.5055C90.7243 20.4601 90.7357 20.4147 90.7811 20.392C90.8265 20.3693 90.872 20.3806 90.8947 20.4261C94.4832 26.6368 101.161 30.5085 108.338 30.5312C108.383 30.5312 108.429 30.5653 108.429 30.6221C108.417 30.6675 108.383 30.7015 108.338 30.7015Z" fill="url(#paint44_linear)"/>
<path opacity="0.3" d="M108.326 51.014C97.0951 51.0027 87.9648 41.8513 87.9761 30.6221C87.9761 27.0569 88.9301 23.5371 90.713 20.4488C90.7357 20.4034 90.7925 20.392 90.8265 20.4147C90.872 20.4374 90.8833 20.4942 90.8606 20.5282C89.0891 23.5939 88.1465 27.0796 88.1465 30.6221C88.1351 41.7604 97.186 50.8324 108.326 50.8437C108.372 50.8437 108.417 50.8778 108.417 50.9346C108.417 50.98 108.383 51.014 108.326 51.014Z" fill="url(#paint45_linear)"/>
<path opacity="0.3" d="M108.326 51.0141C108.292 51.0141 108.27 51.0027 108.247 50.9686C104.624 44.6898 104.636 36.8895 108.27 30.6107C108.292 30.5653 108.349 30.5539 108.383 30.5766C108.429 30.5994 108.44 30.6561 108.417 30.6902C104.817 36.9122 104.806 44.6444 108.394 50.8778C108.417 50.9232 108.406 50.9686 108.36 50.9913C108.36 51.0027 108.338 51.0141 108.326 51.0141Z" fill="url(#paint46_linear)"/>
<path opacity="0.3" d="M108.304 71.3266C108.27 71.3266 108.247 71.3152 108.224 71.2812C104.59 64.991 104.602 57.1793 108.236 50.8892C108.258 50.8437 108.315 50.8324 108.349 50.8551C108.395 50.8778 108.406 50.9346 108.383 50.9686C104.772 57.2021 104.772 64.9456 108.372 71.1903C108.395 71.2357 108.383 71.2812 108.338 71.3039C108.326 71.3152 108.315 71.3266 108.304 71.3266Z" fill="url(#paint47_linear)"/>
<path d="M91.4171 61.0397C94.2448 55.9644 94.8353 49.9127 93.0296 44.3833C90.2587 35.9471 82.4571 30.1906 73.5765 30.0203C68.6139 21.7091 58.3593 17.86 49.1495 20.8802C44.3685 22.4471 40.3371 25.6717 37.7592 29.9749C35.6583 30.0089 33.5688 30.3496 31.5701 31.0081C26.2668 32.7453 21.9628 36.4354 19.4531 41.4085C16.9434 46.3816 16.5005 52.0359 18.238 57.3383C18.6468 58.5873 19.1806 59.8021 19.8052 60.9489C16.9661 66.0356 16.3756 72.0987 18.1812 77.6281C19.9187 82.9191 23.6095 87.2337 28.5835 89.743C31.4452 91.1963 34.5 91.9457 37.6797 91.9911C41.4386 98.2585 48.2864 102.153 55.5998 102.153C57.8028 102.153 59.9832 101.801 62.0841 101.108C66.8537 99.5416 70.8965 96.317 73.4743 92.0251C75.5866 92.0024 77.6761 91.6504 79.6748 90.9919C90.6108 87.4267 96.5955 75.6184 93.0183 64.6731C92.5981 63.4241 92.0644 62.1979 91.4171 61.0397ZM19.1351 57.0544L19.3623 56.9636C17.727 51.9678 18.1358 46.6314 20.5092 41.9308C22.8827 37.2415 26.9482 33.7558 31.9449 32.1094C33.6142 31.5645 35.3404 31.2465 37.1006 31.1557C37.0779 31.1898 37.0552 31.2352 37.0438 31.2692C34.5568 36.1742 34.1026 41.7377 35.7606 46.972L35.8287 47.1991C35.8287 47.2104 35.84 47.2331 35.84 47.2558L35.8968 47.4262C36.2262 48.3913 36.6236 49.3336 37.1006 50.2647C35.2155 50.3555 33.3303 50.6961 31.5247 51.2866C27.005 52.7626 23.1098 55.7714 20.5206 59.7681C20.055 58.8598 19.6689 57.9174 19.3623 56.975L19.1351 57.0544ZM54.5436 60.3812C51.8295 60.2336 49.2176 59.5183 46.7647 58.2807C43.6531 56.7025 41.0298 54.3522 39.1447 51.4455C41.8588 51.5931 44.4707 52.3084 46.935 53.546C50.0352 55.1242 52.6585 57.4859 54.5436 60.3812ZM46.2309 59.3366C47.6618 60.0633 49.1722 60.6196 50.7393 61.0057C50.1715 61.1419 49.6264 61.2895 49.0927 61.4712C44.6297 62.9359 40.78 65.8766 38.1908 69.7824C37.7479 68.9081 37.3845 68.0112 37.0779 67.0915C35.4539 62.1411 35.8628 56.8728 38.2248 52.2062C40.2008 55.2151 42.9604 57.6789 46.2309 59.3366ZM49.4561 62.5725C51.1027 62.0276 52.8175 61.7096 54.555 61.6188C52.1134 65.3543 48.4567 68.1588 44.2209 69.5553C42.5629 70.1003 40.8481 70.4182 39.122 70.5091C41.5522 66.7736 45.2089 63.9578 49.4561 62.5725ZM61.7889 59.4275C60.1309 59.9725 58.4274 60.2904 56.7013 60.3812C59.1656 56.6003 62.7314 53.8639 67.0468 52.456C68.682 51.9224 70.3968 51.6045 72.123 51.5136C69.6814 55.2378 66.0247 58.0423 61.7889 59.4275ZM66.6834 51.3433C63.3901 52.422 60.4488 54.284 58.0868 56.7479C59.3019 52.6718 59.2451 48.4026 57.9164 44.3265C57.5984 43.3727 57.2123 42.419 56.7467 41.4993C59.4381 41.6469 62.0273 42.3509 64.4576 43.5771C67.5351 45.1326 70.1356 47.4716 71.998 50.3328C70.1811 50.4464 68.3981 50.7756 66.6834 51.3433ZM56.6786 61.6188C62.9585 61.9708 68.6593 65.2748 72.0889 70.5545C69.3748 70.4069 66.7515 69.6916 64.2986 68.454C61.187 66.8758 58.5637 64.5255 56.6786 61.6188ZM62.1523 60.5402C66.6152 59.0755 70.4763 56.1234 73.0542 52.2062C73.4971 53.0805 73.8718 53.9888 74.1784 54.9312C75.8024 59.8816 75.3935 65.1726 73.0428 69.8278C73.0428 69.8392 73.0315 69.8392 73.0315 69.8505C70.1356 65.4338 65.6159 62.2546 60.4715 61.0057C61.0734 60.8694 61.6185 60.7218 62.1523 60.5402ZM47.4574 52.5014C44.9023 51.2071 42.1654 50.4577 39.3264 50.2874C41.7452 46.5973 45.3679 43.8269 49.5583 42.4531C51.1822 41.9194 52.8629 41.6015 54.5663 41.5107C52.1588 46.2794 51.6705 51.6612 53.1695 56.7592C51.5343 55.0221 49.6151 53.6028 47.4574 52.5014ZM44.5729 70.668C47.8435 69.5894 50.7961 67.7273 53.1582 65.2521C51.9658 69.2488 51.9999 73.4384 53.2717 77.4578L53.3172 77.5827C53.3285 77.6168 53.3399 77.6395 53.3512 77.6735L53.4307 77.9006C53.7373 78.7862 54.1007 79.6605 54.5209 80.5007C48.3205 80.1374 42.6765 76.8674 39.2923 71.6672C41.0979 71.5537 42.8809 71.2244 44.5729 70.668ZM79.3341 69.6007C77.7329 70.123 76.0749 70.441 74.3942 70.5431C74.3942 70.5318 74.4055 70.5318 74.4055 70.5204C76.938 65.5133 77.3809 59.8249 75.6434 54.4998L75.632 54.4657C75.3027 53.4779 74.8939 52.4901 74.4169 51.5363C80.9013 51.9564 86.7156 55.4876 90.0657 61.0511C87.6241 65.0932 83.8198 68.1247 79.3341 69.6007ZM55.6225 59.7681C55.1682 58.8711 54.7935 57.9514 54.4869 57.0204V57.009C52.8402 51.9905 53.2604 46.6654 55.6679 41.9535C56.1221 42.8504 56.5082 43.7701 56.8149 44.7125C58.4388 49.7197 58.0186 55.0561 55.6225 59.7681ZM31.8881 52.4106C33.512 51.877 35.1927 51.5591 36.8962 51.4569C34.3297 56.4867 33.8754 62.1865 35.6356 67.557C35.965 68.5448 36.3738 69.5326 36.8621 70.4977C34.182 70.3388 31.6042 69.6348 29.1853 68.4086C25.8466 66.7168 23.0757 64.1394 21.1793 60.9489C23.6095 56.9068 27.4138 53.8753 31.8881 52.4106ZM55.5998 62.2773C55.5998 62.2773 55.5998 62.266 55.6111 62.2546C56.054 63.1403 56.4401 64.0599 56.7467 64.991C58.3934 69.9981 57.9732 75.3232 55.5884 80.0238C55.1455 79.1382 54.7594 78.2299 54.4641 77.2988C52.8175 72.3144 53.2263 66.9666 55.5998 62.2773ZM58.0413 65.2067C61.6753 69.0444 66.6834 71.3833 71.9753 71.7013C69.5338 75.4481 66.002 78.1618 61.7207 79.5697C60.0854 80.1033 58.382 80.4212 56.6672 80.5121C59.0747 75.7093 59.5517 70.3161 58.0413 65.2067ZM90.713 59.8703C87.0563 54.1932 80.9126 50.6621 74.1557 50.3328C76.7676 45.3143 77.2446 39.6145 75.4844 34.21C75.1551 33.1881 74.7349 32.1889 74.2239 31.2125C82.3094 31.6439 89.3843 37.0371 91.9054 44.7466C93.5747 49.7878 93.1432 55.1356 90.713 59.8703ZM73.2699 49.504C71.2599 46.4156 68.4663 43.9064 65.1389 42.226C62.5043 40.8975 59.6993 40.1368 56.7922 39.9779C59.2337 36.2991 62.8677 33.5287 67.0581 32.1549C68.9432 31.5304 70.9079 31.2125 72.8952 31.1784C73.4857 32.2571 73.9854 33.3925 74.3715 34.5733C76.0068 39.5464 75.6093 44.8261 73.2699 49.504ZM66.6947 31.0422C62.1523 32.5296 58.2457 35.5611 55.6565 39.5918C52.0112 33.892 45.8902 30.3382 39.1333 29.9976C41.5635 26.228 45.2429 23.4008 49.5242 21.9929C54.5209 20.3579 59.8697 20.7553 64.5598 23.1397C67.6941 24.7293 70.34 27.1023 72.2252 30.0316C70.34 30.1225 68.489 30.4631 66.6947 31.0422ZM54.5209 39.9892C52.6699 40.0914 50.8415 40.432 49.0813 41.0111C44.5502 42.4985 40.6323 45.5073 38.0318 49.504C37.6003 48.641 37.2369 47.7441 36.9416 46.8471C35.3063 41.8513 35.7151 36.5148 38.0886 31.8142C38.2021 31.5872 38.327 31.3714 38.4406 31.1443C44.8682 31.2692 50.9778 34.6301 54.5209 39.9892ZM20.5206 62.1297C22.5193 65.2408 25.3242 67.7727 28.6516 69.4645C31.2976 70.8043 34.1366 71.5537 37.0779 71.6899C34.466 76.7198 34.0003 82.4195 35.7606 87.8014C36.0899 88.8119 36.5214 89.8224 37.0324 90.8216C34.2843 90.6853 31.6269 89.97 29.1399 88.7097C24.4498 86.3367 20.9635 82.2719 19.3168 77.2648C17.6475 72.2122 18.079 66.8531 20.5206 62.1297ZM37.9864 72.4733C41.6317 78.0823 47.7299 81.6134 54.4414 81.9994C51.9999 85.6895 48.3659 88.4599 44.1641 89.8451C42.279 90.4583 40.3257 90.7875 38.3498 90.8216C37.7592 89.743 37.2596 88.5962 36.8735 87.4154C35.2382 82.4423 35.6356 77.1512 37.9864 72.4733ZM44.5275 90.9578C49.0813 89.4705 52.9992 86.4275 55.5884 82.3855C59.2224 88.0853 65.3547 91.6504 72.123 92.0024C69.6927 95.772 66.0134 98.5992 61.7321 100.007C56.7354 101.642 51.3866 101.245 46.6965 98.8603C43.5622 97.2707 40.9162 94.8977 39.0311 91.9684C40.9162 91.8775 42.7673 91.5369 44.5275 90.9578ZM56.724 82.0108C58.6091 81.92 60.4375 81.5793 62.1863 81.0003C66.7969 79.4902 70.6012 76.5722 73.2359 72.5415C73.656 73.393 74.0194 74.2559 74.3147 75.1529C75.95 80.1487 75.5412 85.4965 73.1677 90.1858C73.0542 90.4128 72.9292 90.6399 72.8043 90.867C66.3654 90.7421 60.2558 87.3699 56.724 82.0108ZM74.2125 90.7194C76.7336 85.7463 77.1651 80.092 75.4276 74.7896C75.0869 73.7564 74.6554 72.7231 74.133 71.7126C76.0522 71.6331 77.9146 71.2925 79.7089 70.7021C84.24 69.2147 88.1351 66.2059 90.7243 62.1979C91.2013 63.1175 91.5988 64.0713 91.9167 65.0364C93.552 70.0322 93.1432 75.3686 90.7584 80.0692C88.3736 84.7698 84.3195 88.2556 79.3228 89.8906C77.6534 90.4355 75.9159 90.7535 74.1557 90.8443C74.1671 90.8102 74.1898 90.7648 74.2125 90.7194Z" fill="url(#paint48_linear)"/>
<path d="M134.282 39.4442C132.34 38.4564 130.841 37.128 129.797 35.4362C128.752 33.7444 128.229 31.871 128.229 29.8046C128.229 27.6019 128.809 25.6376 129.978 23.9004C131.148 22.1632 132.761 20.8121 134.827 19.8584C136.883 18.8933 139.199 18.4164 141.777 18.4164C142.89 18.4164 144.003 18.5072 145.116 18.6775C146.229 18.8478 147.115 19.0749 147.796 19.3588C148.046 19.4496 148.194 19.5291 148.228 19.5859C148.262 19.6426 148.296 19.8356 148.318 20.1536L148.773 24.9791C148.773 25.0472 148.705 25.0926 148.58 25.1153C148.455 25.138 148.375 25.104 148.353 25.0131C148.046 24.2524 147.569 23.4122 146.888 22.5152C146.218 21.6069 145.332 20.8235 144.242 20.1536C143.151 19.4837 141.891 19.143 140.46 19.143C138.972 19.143 137.621 19.5518 136.394 20.3579C135.168 21.1641 134.203 22.3222 133.499 23.8323C132.795 25.3424 132.443 27.0909 132.443 29.0779C132.443 31.2579 132.851 33.1994 133.68 34.9139C134.498 36.6284 135.645 37.9568 137.099 38.9106C138.563 39.8643 140.199 40.3298 142.038 40.3298C142.992 40.3298 143.719 40.2276 144.23 40.0119C144.741 39.8075 145.116 39.3988 145.343 38.797C145.57 38.1953 145.695 37.2983 145.695 36.1175C145.695 34.9139 145.627 34.0737 145.491 33.5968C145.354 33.12 145.059 32.802 144.605 32.6431C144.151 32.4841 143.356 32.4047 142.22 32.4047C142.084 32.4047 142.016 32.3138 142.016 32.1322C142.016 32.064 142.038 31.9959 142.073 31.9391C142.107 31.8824 142.152 31.8483 142.197 31.8483C144.162 31.9618 145.763 32.0186 146.99 32.0186C148.171 32.0186 149.397 31.9846 150.669 31.9164C150.76 31.9164 150.817 31.9959 150.828 32.1549C150.84 32.3138 150.783 32.3933 150.669 32.3933C150.249 32.3706 149.954 32.4501 149.783 32.6204C149.613 32.7907 149.499 33.1427 149.454 33.6763C149.409 34.21 149.386 35.1296 149.386 36.4581C149.386 37.5027 149.431 38.2407 149.511 38.6835C149.59 39.1263 149.636 39.3988 149.636 39.5123C149.636 39.6486 149.613 39.7394 149.568 39.7848C149.522 39.8303 149.42 39.8757 149.261 39.9211C146.274 40.5683 143.583 40.8975 141.198 40.8975C138.518 40.9202 136.224 40.432 134.282 39.4442Z" fill="#212C4C"/>
<path d="M165.421 38.2066C165.466 38.2066 165.523 38.252 165.58 38.3429C165.637 38.4337 165.648 38.5018 165.603 38.5472C164.739 39.3761 163.876 39.9892 162.991 40.3525C162.116 40.7272 161.151 40.9089 160.106 40.9089C158.653 40.9089 157.381 40.6023 156.325 39.9892C155.257 39.3761 154.451 38.5586 153.894 37.5254C153.338 36.4921 153.065 35.3794 153.065 34.1759C153.065 32.8361 153.406 31.5985 154.076 30.4631C154.746 29.3277 155.677 28.4307 156.87 27.7722C158.062 27.1136 159.413 26.7844 160.912 26.7844C162.343 26.7844 163.456 27.1136 164.251 27.7608C165.035 28.408 165.432 29.4185 165.432 30.781C165.432 31.4963 165.307 31.8597 165.046 31.8597L156.597 31.8937C156.574 32.0527 156.563 32.3252 156.563 32.6885C156.563 34.7323 157.029 36.3218 157.971 37.4799C158.914 38.6381 160.254 39.2171 162.014 39.2171C162.639 39.2171 163.172 39.149 163.615 39.0128C164.058 38.8765 164.637 38.6154 165.353 38.252L165.421 38.2066ZM157.665 28.4648C157.154 29.1233 156.824 30.0316 156.654 31.1898L161.696 31.1216C161.673 29.9408 161.503 29.0325 161.174 28.408C160.844 27.7835 160.322 27.4656 159.572 27.4656C158.812 27.477 158.176 27.8062 157.665 28.4648Z" fill="#212C4C"/>
<path d="M171.269 30.4972C171.746 30.9854 172.439 31.4963 173.336 32.03C174.21 32.5409 174.869 32.9383 175.301 33.2335C175.732 33.5287 176.118 33.9261 176.459 34.4484C176.811 34.9707 176.981 35.5952 176.981 36.3445C176.981 37.128 176.788 37.8773 176.391 38.5699C175.993 39.2625 175.403 39.8303 174.619 40.2504C173.836 40.6818 172.893 40.8975 171.803 40.8975C170.531 40.8975 169.327 40.5796 168.192 39.9551C168.055 39.8189 167.987 39.6826 167.987 39.535L167.919 36.0947C167.919 36.0266 167.987 35.9812 168.112 35.9699C168.237 35.9585 168.317 35.9812 168.339 36.0266C168.714 37.1847 169.327 38.1726 170.179 38.9787C171.031 39.7848 171.905 40.1936 172.78 40.1936C173.268 40.1936 173.654 40.046 173.949 39.7394C174.233 39.4329 174.381 39.0014 174.381 38.4223C174.381 37.5708 174.142 36.8895 173.654 36.39C173.166 35.8904 172.45 35.3794 171.496 34.8458C170.69 34.403 170.077 34.051 169.657 33.7672C169.236 33.4947 168.873 33.0973 168.544 32.5863C168.214 32.0754 168.055 31.4509 168.055 30.7129C168.055 29.3504 168.544 28.3399 169.509 27.7041C170.486 27.0682 171.678 26.7503 173.086 26.7503C173.62 26.7503 174.097 26.7844 174.528 26.8525C174.96 26.9206 175.437 27.0569 175.971 27.2726C176.175 27.3407 176.289 27.4656 176.289 27.6586C176.289 28.2377 176.277 28.6919 176.255 29.0098L176.221 30.747C176.221 30.8151 176.152 30.8491 176.016 30.8491C175.88 30.8491 175.812 30.8151 175.812 30.747C175.812 30.3041 175.63 29.8273 175.255 29.305C174.881 28.7827 174.404 28.3399 173.813 27.9652C173.222 27.5905 172.609 27.4088 171.985 27.4088C171.031 27.4088 170.565 27.863 170.565 28.76C170.554 29.4299 170.792 30.0089 171.269 30.4972Z" fill="#212C4C"/>
<path d="M195.503 38.2407C195.571 38.2407 195.64 38.2974 195.696 38.411C195.753 38.5245 195.753 38.5926 195.674 38.6154L190.881 40.943C190.836 40.9657 190.779 40.977 190.711 40.977C190.484 40.977 190.279 40.7272 190.098 40.2276C189.927 39.7281 189.825 39.0468 189.802 38.1953C188.269 40.0006 186.623 40.9089 184.828 40.9089C183.557 40.9089 182.557 40.5115 181.819 39.7054C181.092 38.9106 180.729 37.8546 180.729 36.5603V31.4509C180.729 29.9408 180.366 29.1914 179.65 29.1914C179.4 29.1914 179.105 29.2709 178.787 29.4299H178.753C178.662 29.4299 178.594 29.3618 178.549 29.2369C178.503 29.112 178.514 29.0325 178.583 29.0098L183.239 26.7844L183.409 26.7503C183.523 26.7503 183.647 26.8071 183.772 26.9093C183.897 27.0114 183.965 27.1136 183.965 27.2045V34.8799C183.965 37.3778 184.931 38.6267 186.85 38.6267C187.361 38.6267 187.872 38.5132 188.394 38.2974C188.917 38.0817 189.382 37.7752 189.802 37.3778V31.4396C189.802 29.9295 189.439 29.1801 188.724 29.1801C188.474 29.1801 188.167 29.2596 187.815 29.4185H187.781C187.713 29.4185 187.656 29.3504 187.611 29.2255C187.565 29.1006 187.577 29.0211 187.645 28.9984L192.301 26.773C192.346 26.7503 192.403 26.7389 192.471 26.7389C192.585 26.7389 192.71 26.7957 192.835 26.8979C192.96 27.0001 193.028 27.1023 193.028 27.1931V36.4354C193.028 37.2188 193.107 37.7752 193.255 38.1044C193.402 38.4337 193.652 38.5927 194.004 38.5927C194.334 38.5927 194.799 38.4678 195.424 38.2066H195.503V38.2407Z" fill="#212C4C"/>
<path d="M213.503 40.2958C213.503 40.432 213.469 40.5001 213.401 40.5001C212.799 40.5001 212.322 40.4888 211.981 40.4661L209.892 40.432L207.881 40.4661C207.507 40.4888 207.03 40.5001 206.428 40.5001C206.36 40.5001 206.326 40.432 206.326 40.2958C206.326 40.1595 206.36 40.0914 206.428 40.0914C207.143 40.0914 207.632 39.9211 207.881 39.5918C208.131 39.2512 208.268 38.6267 208.268 37.6957V32.6885C208.268 31.4396 208.04 30.5085 207.586 29.9067C207.132 29.305 206.428 28.9984 205.451 28.9984C204.895 28.9984 204.327 29.112 203.736 29.3504C203.146 29.5775 202.635 29.8954 202.192 30.2928V37.6957C202.192 38.6267 202.328 39.2512 202.59 39.5918C202.851 39.9324 203.35 40.0914 204.066 40.0914C204.134 40.0914 204.168 40.1595 204.168 40.2958C204.168 40.432 204.134 40.5001 204.066 40.5001C203.464 40.5001 202.987 40.4888 202.646 40.4661L200.557 40.432L198.501 40.4661C198.149 40.4888 197.684 40.5001 197.082 40.5001C197.014 40.5001 196.98 40.432 196.98 40.2958C196.98 40.1595 197.014 40.0914 197.082 40.0914C197.797 40.0914 198.286 39.9211 198.535 39.5918C198.785 39.2512 198.921 38.6267 198.921 37.6957V31.1671C198.921 30.4517 198.831 29.9181 198.66 29.5888C198.49 29.2482 198.217 29.0893 197.843 29.0893C197.445 29.0893 196.889 29.2482 196.173 29.5775H196.105C196.037 29.5775 195.98 29.5207 195.946 29.4072C195.912 29.2936 195.912 29.2255 195.969 29.2028L200.795 26.8411C200.932 26.7957 201.011 26.773 201.034 26.773C201.284 26.773 201.533 27.0228 201.761 27.5224C201.988 28.022 202.135 28.7032 202.181 29.5548C203.782 27.6586 205.542 26.7049 207.461 26.7049C208.71 26.7049 209.698 27.1023 210.437 27.9084C211.163 28.7032 211.527 29.7591 211.527 31.0535V37.7184C211.527 38.6494 211.663 39.2739 211.924 39.6145C212.185 39.9551 212.685 40.1141 213.401 40.1141C213.469 40.08 213.503 40.1482 213.503 40.2958Z" fill="#212C4C"/>
<path d="M231.468 38.2407C231.536 38.2407 231.605 38.2974 231.661 38.411C231.718 38.5245 231.729 38.5926 231.673 38.6154L226.88 40.943L226.71 40.977C226.506 40.977 226.313 40.7613 226.142 40.3185C225.972 39.8757 225.858 39.2739 225.813 38.5132C224.098 40.1368 222.349 40.943 220.566 40.943C219.544 40.943 218.624 40.6818 217.807 40.1482C216.989 39.6145 216.33 38.8311 215.842 37.7979C215.354 36.7646 215.115 35.5611 215.115 34.1645C215.115 32.4047 215.524 30.9627 216.353 29.8386C217.171 28.7146 218.193 27.8971 219.408 27.3861C220.623 26.8752 221.85 26.6254 223.076 26.6254C223.928 26.6254 224.836 26.7617 225.79 27.0455V20.0287C225.79 19.2225 225.711 18.6435 225.563 18.2915C225.415 17.9395 225.154 17.7692 224.779 17.7692C224.473 17.7692 224.053 17.8941 223.496 18.1552H223.462C223.371 18.1552 223.292 18.0871 223.235 17.9622C223.178 17.8373 223.167 17.7578 223.212 17.7351L228.323 15.3394L228.459 15.3054C228.572 15.3054 228.697 15.3621 228.845 15.4643C228.981 15.5665 229.049 15.6687 229.049 15.7595V36.4694C229.049 37.2529 229.129 37.8092 229.277 38.1385C229.424 38.4678 229.674 38.6267 230.026 38.6267C230.321 38.6267 230.798 38.5018 231.446 38.2407H231.468ZM225.767 37.8206V29.2028C225.347 28.6237 224.882 28.2036 224.359 27.9311C223.837 27.67 223.235 27.5337 222.531 27.5337C221.282 27.5337 220.328 27.9652 219.669 28.8395C219.011 29.7137 218.681 31.1103 218.681 33.0632C218.681 35.0161 219.033 36.5262 219.726 37.6276C220.419 38.7289 221.339 39.2739 222.474 39.2739C223.632 39.2853 224.723 38.797 225.767 37.8206Z" fill="#212C4C"/>
<path d="M134.282 73.3249C132.34 72.3371 130.841 71.0087 129.797 69.3169C128.752 67.6251 128.229 65.7517 128.229 63.6853C128.229 61.4826 128.809 59.5183 129.978 57.7811C131.148 56.0439 132.761 54.6928 134.827 53.739C136.883 52.7739 139.199 52.2971 141.777 52.2971C142.89 52.2971 144.003 52.3879 145.116 52.5582C146.229 52.7285 147.115 52.9556 147.796 53.2395C148.046 53.3303 148.194 53.4098 148.228 53.4665C148.262 53.5233 148.296 53.7163 148.318 54.0343L148.773 58.8598C148.773 58.9279 148.705 58.9733 148.58 58.996C148.455 59.0187 148.375 58.9846 148.353 58.8938C148.046 58.1331 147.569 57.2929 146.888 56.3959C146.218 55.4876 145.332 54.7041 144.242 54.0343C143.151 53.3644 141.891 53.0237 140.46 53.0237C138.972 53.0237 137.621 53.4325 136.394 54.2386C135.168 55.0448 134.203 56.2029 133.499 57.713C132.795 59.2231 132.443 60.9716 132.443 62.9586C132.443 65.1386 132.851 67.0801 133.68 68.7946C134.498 70.5091 135.645 71.8375 137.099 72.7913C138.563 73.745 140.199 74.2105 142.038 74.2105C142.992 74.2105 143.719 74.1083 144.23 73.8926C144.741 73.6882 145.116 73.2795 145.343 72.6777C145.57 72.076 145.695 71.179 145.695 69.9981C145.695 68.7946 145.627 67.9544 145.491 67.4775C145.354 67.0007 145.059 66.6827 144.605 66.5238C144.151 66.3648 143.356 66.2854 142.22 66.2854C142.084 66.2854 142.016 66.1945 142.016 66.0129C142.016 65.9447 142.038 65.8766 142.073 65.8198C142.107 65.7631 142.152 65.729 142.197 65.729C144.162 65.8425 145.763 65.8993 146.99 65.8993C148.171 65.8993 149.397 65.8652 150.669 65.7971C150.76 65.7971 150.817 65.8766 150.828 66.0356C150.84 66.1945 150.783 66.274 150.669 66.274C150.249 66.2513 149.954 66.3308 149.783 66.5011C149.613 66.6714 149.499 67.0234 149.454 67.557C149.409 68.0907 149.386 69.0103 149.386 70.3388C149.386 71.3834 149.431 72.1214 149.511 72.5642C149.59 73.007 149.636 73.2795 149.636 73.393C149.636 73.5293 149.613 73.6201 149.568 73.6655C149.522 73.7109 149.42 73.7564 149.261 73.8018C146.274 74.449 143.583 74.7782 141.198 74.7782C138.518 74.8009 136.224 74.3127 134.282 73.3249Z" fill="#212C4C"/>
<path d="M153.077 74.1765C153.077 74.0402 153.099 73.9721 153.145 73.9721C153.86 73.9721 154.36 73.8018 154.621 73.4725C154.882 73.1319 155.019 72.5074 155.019 71.5764L155.053 53.9321C155.053 53.1259 154.973 52.5469 154.826 52.1949C154.678 51.8429 154.417 51.6726 154.042 51.6726C153.735 51.6726 153.304 51.7975 152.725 52.0586H152.691C152.622 52.0586 152.554 51.9905 152.498 51.8656C152.441 51.7407 152.429 51.6612 152.475 51.6385L157.585 49.2428L157.721 49.2088C157.835 49.2088 157.96 49.2655 158.107 49.3677C158.244 49.4699 158.312 49.5721 158.312 49.6629V71.5877C158.312 72.5188 158.437 73.1432 158.698 73.4839C158.948 73.8245 159.436 73.9834 160.152 73.9834C160.242 73.9834 160.288 74.0516 160.288 74.1878C160.288 74.3241 160.242 74.3922 160.152 74.3922C159.572 74.3922 159.107 74.3808 158.766 74.3581L156.643 74.3241L154.553 74.3581C154.201 74.3808 153.735 74.3922 153.133 74.3922C153.099 74.3922 153.077 74.3241 153.077 74.1765Z" fill="#212C4C"/>
<path d="M178.583 72.1327C178.651 72.1327 178.719 72.1895 178.776 72.303C178.832 72.4166 178.832 72.4847 178.753 72.5074L173.961 74.835C173.915 74.8577 173.858 74.8691 173.79 74.8691C173.563 74.8691 173.359 74.6193 173.177 74.1197C173.007 73.6201 172.905 72.9389 172.882 72.0873C171.349 73.8926 169.702 74.8009 167.908 74.8009C166.636 74.8009 165.637 74.4035 164.898 73.5974C164.16 72.7913 163.808 71.7467 163.808 70.4523V65.343C163.808 63.8329 163.445 63.0835 162.729 63.0835C162.48 63.0835 162.184 63.163 161.866 63.3219H161.832C161.741 63.3219 161.673 63.2538 161.628 63.1289C161.582 63.004 161.594 62.9245 161.662 62.9018L166.318 60.6764L166.488 60.6424C166.602 60.6424 166.727 60.6991 166.852 60.8013C166.977 60.9035 167.045 61.0057 167.045 61.0965V68.7719C167.045 71.2698 168.01 72.5188 169.929 72.5188C170.44 72.5188 170.951 72.4052 171.474 72.1895C171.996 71.9738 172.462 71.6672 172.882 71.2698V65.3316C172.882 63.8215 172.518 63.0721 171.803 63.0721C171.553 63.0721 171.247 63.1516 170.894 63.3106H170.86C170.792 63.3106 170.735 63.2424 170.69 63.1175C170.645 62.9927 170.656 62.9132 170.724 62.8905L175.38 60.6651C175.426 60.6424 175.482 60.631 175.551 60.631C175.664 60.631 175.789 60.6878 175.914 60.79C176.039 60.8921 176.107 60.9943 176.107 61.0852V70.3274C176.107 71.1108 176.186 71.6672 176.334 71.9965C176.482 72.3257 176.732 72.4847 177.084 72.4847C177.413 72.4847 177.879 72.3598 178.503 72.0987H178.583V72.1327ZM165.784 57.7698C165.444 57.4291 165.285 56.9636 165.285 56.3618C165.285 55.8055 165.455 55.3627 165.807 55.0448C166.159 54.7155 166.613 54.5565 167.192 54.5565C167.772 54.5565 168.214 54.7155 168.532 55.0448C168.839 55.374 168.998 55.8055 168.998 56.3618C168.998 56.9636 168.839 57.4291 168.532 57.7698C168.214 58.1104 167.772 58.2693 167.192 58.2693C166.59 58.2693 166.114 58.099 165.784 57.7698ZM171.848 57.7698C171.519 57.4291 171.36 56.9636 171.36 56.3618C171.36 55.8055 171.53 55.374 171.86 55.0561C172.2 54.7382 172.655 54.5906 173.234 54.5906C173.813 54.5906 174.256 54.7496 174.574 55.0561C174.892 55.374 175.039 55.8055 175.039 56.3618C175.039 56.9636 174.88 57.4291 174.574 57.7698C174.256 58.1104 173.813 58.2693 173.234 58.2693C172.632 58.2693 172.166 58.099 171.848 57.7698Z" fill="#212C4C"/>
<path d="M183.046 73.8131C181.989 73.1546 181.206 72.2917 180.683 71.2471C180.161 70.1912 179.9 69.0898 179.9 67.9317C179.9 66.4784 180.309 65.1954 181.115 64.094C181.921 62.9927 182.966 62.1525 184.227 61.562C185.487 60.9716 186.782 60.6764 188.099 60.6764C189.212 60.6764 190.211 60.9035 191.108 61.369C191.994 61.8345 192.448 62.4704 192.448 63.2765C192.448 63.7193 192.278 64.094 191.949 64.4006C191.608 64.7071 191.143 64.8661 190.541 64.8661C189.984 64.8661 189.541 64.7185 189.223 64.4346C188.894 64.1508 188.633 63.6966 188.428 63.0948C188.224 62.4477 188.02 62.0048 187.815 61.7551C187.622 61.5166 187.27 61.3917 186.759 61.3917C185.76 61.3917 184.965 61.88 184.374 62.8678C183.784 63.8556 183.488 65.1499 183.488 66.7736C183.488 68.6924 183.92 70.2252 184.772 71.372C185.623 72.5188 186.998 73.0865 188.871 73.0865C189.496 73.0865 190.041 73.0183 190.484 72.8821C190.938 72.7458 191.506 72.5074 192.199 72.1895H192.233C192.301 72.1895 192.369 72.2236 192.426 72.2917C192.483 72.3598 192.494 72.4166 192.448 72.462C191.585 73.2454 190.734 73.8358 189.882 74.2219C189.03 74.6079 188.042 74.7896 186.929 74.7896C185.396 74.8009 184.102 74.4717 183.046 73.8131Z" fill="#212C4C"/>
<path d="M210.936 74.1765C210.936 74.3127 210.902 74.3808 210.834 74.3808C210.232 74.3808 209.755 74.3695 209.415 74.3468L207.325 74.3127L204.645 74.3468C204.248 74.3695 203.714 74.3808 203.044 74.3808C202.976 74.3808 202.942 74.3127 202.942 74.1765C202.942 74.0402 202.976 73.9721 203.044 73.9721C203.873 73.9721 204.293 73.7337 204.293 73.2454C204.293 72.9956 204.202 72.7572 204.02 72.5528L200.057 67.4775L199.398 68.0679V71.5764C199.398 72.5074 199.535 73.1319 199.796 73.4725C200.057 73.8131 200.557 73.9721 201.272 73.9721C201.363 73.9721 201.408 74.0402 201.408 74.1765C201.408 74.3127 201.363 74.3808 201.272 74.3808C200.67 74.3808 200.182 74.3695 199.807 74.3468L197.797 74.3127L195.708 74.3468C195.356 74.3695 194.89 74.3808 194.288 74.3808C194.243 74.3808 194.22 74.3127 194.22 74.1765C194.22 74.0402 194.243 73.9721 194.288 73.9721C195.004 73.9721 195.503 73.8018 195.764 73.4725C196.026 73.1319 196.162 72.5074 196.162 71.5764V53.9207C196.162 53.1146 196.082 52.5355 195.935 52.1835C195.787 51.8316 195.526 51.6612 195.151 51.6612C194.822 51.6612 194.39 51.7861 193.834 52.0473H193.8C193.732 52.0473 193.664 51.9792 193.607 51.8543C193.55 51.7294 193.539 51.6499 193.584 51.6272L198.66 49.2315L198.831 49.1974C198.944 49.1974 199.069 49.2542 199.194 49.3564C199.319 49.4585 199.387 49.5607 199.387 49.6516V67.2618L202.624 64.1394C203.225 63.5831 203.532 63.0154 203.532 62.4363C203.532 62.1297 203.419 61.8913 203.18 61.6869C202.953 61.4939 202.624 61.3917 202.203 61.3917C202.158 61.3917 202.135 61.3236 202.135 61.1873C202.135 61.0511 202.158 60.983 202.203 60.983C202.873 60.983 203.396 60.9943 203.771 61.017L206.519 61.0511L209.051 61.017C209.381 60.9943 209.823 60.983 210.403 60.983C210.471 60.983 210.505 61.0511 210.505 61.1873C210.505 61.3236 210.471 61.3917 210.403 61.3917C209.403 61.3917 208.268 61.6415 206.984 62.1411C205.701 62.6407 204.543 63.3673 203.532 64.3097L202.283 65.4565L207.041 71.5764C207.711 72.4052 208.358 73.0183 208.972 73.4044C209.585 73.7904 210.21 73.9721 210.834 73.9721C210.902 73.9721 210.936 74.0402 210.936 74.1765Z" fill="#212C4C"/>
<path d="M211.765 74.1765C211.765 74.0402 211.788 73.9721 211.833 73.9721C212.549 73.9721 213.049 73.8018 213.31 73.4725C213.571 73.1319 213.707 72.5074 213.707 71.5764L213.741 53.9321C213.741 53.1259 213.662 52.5469 213.514 52.1949C213.367 51.8429 213.105 51.6726 212.731 51.6726C212.424 51.6726 211.992 51.7975 211.413 52.0586H211.379C211.311 52.0586 211.243 51.9905 211.186 51.8656C211.129 51.7407 211.118 51.6612 211.163 51.6385L216.274 49.2428L216.41 49.2088C216.524 49.2088 216.648 49.2655 216.796 49.3677C216.932 49.4699 217 49.5721 217 49.6629V71.5877C217 72.5188 217.125 73.1432 217.387 73.4839C217.636 73.8245 218.125 73.9834 218.84 73.9834C218.931 73.9834 218.976 74.0516 218.976 74.1878C218.976 74.3241 218.931 74.3922 218.84 74.3922C218.261 74.3922 217.795 74.3808 217.455 74.3581L215.331 74.3241L213.242 74.3581C212.89 74.3808 212.424 74.3922 211.822 74.3922C211.788 74.3922 211.765 74.3241 211.765 74.1765Z" fill="#212C4C"/>
<path d="M221.18 74.1765C221.18 74.0402 221.214 73.9721 221.282 73.9721C221.997 73.9721 222.486 73.8018 222.735 73.4725C222.985 73.1319 223.121 72.5074 223.121 71.5764V65.3543C223.121 64.5709 223.042 64.0032 222.883 63.6512C222.724 63.2992 222.451 63.1289 222.088 63.1289C221.781 63.1289 221.361 63.2538 220.805 63.5149H220.771C220.68 63.5149 220.612 63.4468 220.566 63.3219C220.521 63.197 220.532 63.1175 220.6 63.0948L225.847 60.6651L225.949 60.631C226.063 60.631 226.176 60.6878 226.301 60.8013C226.415 60.9148 226.472 61.017 226.472 61.1192V61.88C226.426 62.811 226.403 63.9464 226.403 65.2862V71.5764C226.403 72.5074 226.54 73.1319 226.801 73.4725C227.062 73.8131 227.562 73.9721 228.277 73.9721C228.345 73.9721 228.379 74.0402 228.379 74.1765C228.379 74.3127 228.345 74.3808 228.277 74.3808C227.675 74.3808 227.198 74.3695 226.858 74.3468L224.768 74.3127L222.713 74.3468C222.361 74.3695 221.895 74.3808 221.293 74.3808C221.214 74.3922 221.18 74.3241 221.18 74.1765ZM223.065 56.6343C222.69 56.2597 222.508 55.7374 222.508 55.0675C222.508 54.4657 222.701 53.9888 223.076 53.6255C223.462 53.2622 223.973 53.0919 224.62 53.0919C225.268 53.0919 225.767 53.2622 226.119 53.6142C226.472 53.9661 226.642 54.443 226.642 55.0788C226.642 55.7487 226.472 56.271 226.119 56.6457C225.767 57.0204 225.279 57.2021 224.62 57.2021C223.95 57.1907 223.428 57.009 223.065 56.6343Z" fill="#212C4C"/>
<path d="M233.331 73.8131C232.275 73.1546 231.491 72.2917 230.969 71.2471C230.446 70.1912 230.185 69.0898 230.185 67.9317C230.185 66.4784 230.594 65.1954 231.4 64.094C232.206 62.9927 233.251 62.1525 234.512 61.562C235.772 60.9716 237.067 60.6764 238.384 60.6764C239.497 60.6764 240.496 60.9035 241.394 61.369C242.279 61.8345 242.734 62.4704 242.734 63.2765C242.734 63.7193 242.563 64.094 242.234 64.4006C241.893 64.7071 241.428 64.8661 240.826 64.8661C240.269 64.8661 239.826 64.7185 239.508 64.4346C239.179 64.1508 238.918 63.6966 238.713 63.0948C238.509 62.4477 238.305 62.0048 238.1 61.7551C237.907 61.5166 237.555 61.3917 237.044 61.3917C236.045 61.3917 235.25 61.88 234.659 62.8678C234.069 63.8556 233.774 65.1499 233.774 66.7736C233.774 68.6924 234.205 70.2252 235.057 71.372C235.909 72.5188 237.283 73.0865 239.156 73.0865C239.781 73.0865 240.326 73.0183 240.769 72.8821C241.223 72.7458 241.791 72.5074 242.484 72.1895H242.518C242.586 72.1895 242.654 72.2236 242.711 72.2917C242.768 72.3598 242.779 72.4166 242.734 72.462C241.87 73.2454 241.019 73.8358 240.167 74.2219C239.315 74.6079 238.327 74.7896 237.214 74.7896C235.67 74.8009 234.375 74.4717 233.331 73.8131Z" fill="#212C4C"/>
<path d="M261.04 74.1765C261.04 74.3127 260.994 74.3808 260.903 74.3808C260.302 74.3808 259.813 74.3695 259.438 74.3468L257.428 74.3127L255.339 74.3468C254.987 74.3695 254.521 74.3808 253.919 74.3808C253.874 74.3808 253.851 74.3127 253.851 74.1765C253.851 74.0402 253.874 73.9721 253.919 73.9721C254.635 73.9721 255.134 73.8018 255.396 73.4725C255.657 73.1319 255.793 72.5074 255.793 71.5764V66.5692C255.793 65.3203 255.566 64.3892 255.1 63.7874C254.635 63.1857 253.919 62.8791 252.943 62.8791C252.386 62.8791 251.818 62.9927 251.228 63.2311C250.637 63.4582 250.126 63.7761 249.684 64.1735V71.5764C249.684 72.5074 249.82 73.1319 250.081 73.4725C250.342 73.8131 250.842 73.9721 251.557 73.9721C251.648 73.9721 251.694 74.0402 251.694 74.1765C251.694 74.3127 251.648 74.3808 251.557 74.3808C250.955 74.3808 250.467 74.3695 250.092 74.3468L248.082 74.3127L245.993 74.3468C245.641 74.3695 245.175 74.3808 244.573 74.3808C244.528 74.3808 244.505 74.3127 244.505 74.1765C244.505 74.0402 244.528 73.9721 244.573 73.9721C245.289 73.9721 245.788 73.8018 246.05 73.4725C246.311 73.1319 246.447 72.5074 246.447 71.5764V53.9207C246.447 53.1146 246.368 52.5355 246.22 52.1835C246.072 51.8316 245.811 51.6612 245.436 51.6612C245.107 51.6612 244.675 51.7861 244.119 52.0473H244.085C244.017 52.0473 243.949 51.9792 243.892 51.8543C243.835 51.7294 243.824 51.6499 243.869 51.6272L248.945 49.2315L249.116 49.1974C249.229 49.1974 249.354 49.2542 249.479 49.3564C249.604 49.4585 249.672 49.5607 249.672 49.6516V63.4128C251.319 61.5166 253.079 60.5629 254.953 60.5629C256.202 60.5629 257.19 60.9603 257.928 61.7664C258.655 62.5612 259.018 63.6171 259.018 64.9115V71.5764C259.018 72.5074 259.155 73.1319 259.416 73.4725C259.677 73.8131 260.177 73.9721 260.892 73.9721C260.994 73.9721 261.04 74.0402 261.04 74.1765Z" fill="#212C4C"/>
<path d="M132.352 90.2539C132.783 90.9011 133.306 91.4688 133.93 91.957C134.555 92.4452 135.406 93.0357 136.463 93.7283C137.621 94.4663 138.552 95.1135 139.245 95.6698C139.938 96.2262 140.528 96.9074 141.016 97.7022C141.505 98.497 141.743 99.4167 141.743 100.461C141.743 101.665 141.414 102.732 140.767 103.674C140.119 104.617 139.222 105.344 138.075 105.866C136.928 106.388 135.645 106.649 134.237 106.649C133.192 106.649 132.102 106.502 130.966 106.218C129.831 105.934 129.07 105.605 128.672 105.264C128.559 105.173 128.468 105.082 128.411 105.003C128.354 104.923 128.32 104.787 128.32 104.605L128.218 99.0874V99.0533C128.218 98.9625 128.275 98.9057 128.388 98.8944C128.502 98.883 128.57 98.9284 128.593 99.0193C129.286 100.427 129.899 101.574 130.421 102.46C130.944 103.345 131.602 104.117 132.397 104.787C133.192 105.457 134.101 105.798 135.123 105.798C136.054 105.798 136.815 105.548 137.417 105.048C138.018 104.549 138.325 103.697 138.325 102.494C138.325 101.472 138.098 100.586 137.644 99.8141C137.189 99.042 136.644 98.4062 135.997 97.8725C135.35 97.3389 134.453 96.703 133.317 95.965C132.204 95.2497 131.341 94.6366 130.728 94.1256C130.115 93.6147 129.592 93.0016 129.149 92.2863C128.706 91.571 128.491 90.7194 128.491 89.7543C128.491 88.5281 128.843 87.4948 129.547 86.6433C130.251 85.8031 131.159 85.1673 132.272 84.7699C133.385 84.3611 134.555 84.1567 135.781 84.1567C136.588 84.1567 137.417 84.2362 138.246 84.3838C139.075 84.5314 139.756 84.7131 140.256 84.9175C140.46 85.0083 140.608 85.1105 140.676 85.2127C140.744 85.3149 140.778 85.4511 140.778 85.6101V90.7194C140.778 90.7875 140.721 90.8443 140.608 90.8784C140.494 90.9124 140.426 90.9011 140.403 90.8216L140.131 90.1631C139.552 88.6984 138.87 87.4608 138.098 86.4503C137.326 85.4284 136.235 84.9175 134.85 84.9175C133.919 84.9175 133.169 85.1786 132.579 85.7122C131.988 86.2459 131.693 87.018 131.693 88.0398C131.716 88.8573 131.932 89.6067 132.352 90.2539Z" fill="#212C4C"/>
<path d="M147.819 105.661C146.763 105.003 145.979 104.14 145.457 103.095C144.934 102.039 144.673 100.938 144.673 99.78C144.673 98.3267 145.082 97.0437 145.888 95.9423C146.695 94.841 147.739 94.0007 149 93.4103C150.26 92.8199 151.555 92.5247 152.872 92.5247C153.985 92.5247 154.985 92.7518 155.882 93.2173C156.767 93.6828 157.222 94.3187 157.222 95.1248C157.222 95.5676 157.051 95.9423 156.722 96.2489C156.381 96.5554 155.916 96.7144 155.314 96.7144C154.757 96.7144 154.314 96.5668 153.997 96.2829C153.667 95.9991 153.406 95.5449 153.202 94.9431C152.997 94.296 152.793 93.8532 152.588 93.6034C152.395 93.3649 152.043 93.24 151.532 93.24C150.533 93.24 149.738 93.7283 149.147 94.7161C148.557 95.7039 148.262 96.9982 148.262 98.6219C148.262 100.541 148.693 102.074 149.545 103.22C150.397 104.367 151.771 104.935 153.644 104.935C154.269 104.935 154.814 104.867 155.257 104.73C155.711 104.594 156.279 104.356 156.972 104.038H157.006C157.074 104.038 157.142 104.072 157.199 104.14C157.256 104.208 157.267 104.265 157.222 104.31C156.359 105.094 155.507 105.684 154.655 106.07C153.803 106.456 152.815 106.638 151.703 106.638C150.158 106.649 148.875 106.32 147.819 105.661Z" fill="#212C4C"/>
<path d="M175.528 106.025C175.528 106.161 175.482 106.229 175.392 106.229C174.79 106.229 174.301 106.218 173.927 106.195L171.917 106.161L169.827 106.195C169.475 106.218 169.009 106.229 168.408 106.229C168.362 106.229 168.339 106.161 168.339 106.025C168.339 105.889 168.362 105.82 168.408 105.82C169.123 105.82 169.623 105.65 169.884 105.321C170.145 104.98 170.281 104.356 170.281 103.425V98.4175C170.281 97.1685 170.054 96.2375 169.589 95.6357C169.123 95.034 168.408 94.7274 167.431 94.7274C166.874 94.7274 166.307 94.841 165.716 95.0794C165.126 95.3065 164.615 95.6244 164.172 96.0218V103.425C164.172 104.356 164.308 104.98 164.569 105.321C164.83 105.661 165.33 105.82 166.045 105.82C166.136 105.82 166.182 105.889 166.182 106.025C166.182 106.161 166.136 106.229 166.045 106.229C165.444 106.229 164.955 106.218 164.58 106.195L162.57 106.161L160.481 106.195C160.129 106.218 159.663 106.229 159.061 106.229C159.016 106.229 158.993 106.161 158.993 106.025C158.993 105.889 159.016 105.82 159.061 105.82C159.777 105.82 160.276 105.65 160.538 105.321C160.799 104.98 160.935 104.356 160.935 103.425V85.769C160.935 84.9629 160.856 84.3838 160.708 84.0318C160.56 83.6799 160.299 83.5096 159.924 83.5096C159.595 83.5096 159.164 83.6344 158.607 83.8956H158.573C158.505 83.8956 158.437 83.8275 158.38 83.7026C158.323 83.5777 158.312 83.4982 158.357 83.4755L163.433 81.0798L163.604 81.0457C163.717 81.0457 163.842 81.1025 163.967 81.2047C164.092 81.3068 164.16 81.409 164.16 81.4999V95.2611C165.807 93.3649 167.567 92.4112 169.441 92.4112C170.69 92.4112 171.678 92.8086 172.416 93.6147C173.143 94.4095 173.506 95.4654 173.506 96.7598V103.425C173.506 104.356 173.643 104.98 173.904 105.321C174.165 105.661 174.665 105.82 175.38 105.82C175.482 105.82 175.528 105.889 175.528 106.025Z" fill="#212C4C"/>
<path d="M180.479 105.696C179.4 105.037 178.571 104.14 177.992 103.016C177.413 101.892 177.118 100.666 177.118 99.3485C177.118 97.8385 177.504 96.5668 178.265 95.5108C179.025 94.4549 180.002 93.6715 181.183 93.1492C182.364 92.6269 183.579 92.3658 184.828 92.3658C186.259 92.3658 187.52 92.7064 188.576 93.3763C189.644 94.0462 190.461 94.9318 191.029 96.0331C191.597 97.1345 191.881 98.304 191.881 99.5643C191.881 100.949 191.529 102.187 190.836 103.266C190.143 104.344 189.212 105.185 188.042 105.786C186.873 106.388 185.601 106.695 184.238 106.695C182.807 106.683 181.558 106.354 180.479 105.696ZM180.161 89.6067C179.82 89.2661 179.661 88.8006 179.661 88.1988C179.661 87.6424 179.832 87.1996 180.184 86.8817C180.536 86.5525 180.99 86.3935 181.569 86.3935C182.148 86.3935 182.591 86.5525 182.909 86.8817C183.227 87.211 183.375 87.6424 183.375 88.1988C183.375 88.8006 183.216 89.2661 182.909 89.6067C182.591 89.9473 182.148 90.1063 181.569 90.1063C180.967 90.1177 180.502 89.9473 180.161 89.6067ZM187.361 104.617C187.838 103.731 188.076 102.448 188.076 100.779C188.076 99.1555 187.872 97.7703 187.452 96.6122C187.032 95.4541 186.486 94.5798 185.816 93.9894C185.146 93.399 184.431 93.1038 183.659 93.1038C181.808 93.1038 180.877 94.7615 180.877 98.0769C180.877 99.6324 181.07 101.006 181.467 102.198C181.865 103.391 182.398 104.322 183.068 104.98C183.738 105.639 184.476 105.968 185.294 105.968C186.191 105.957 186.884 105.502 187.361 104.617ZM186.225 89.6067C185.896 89.2661 185.737 88.8006 185.737 88.1988C185.737 87.6424 185.907 87.211 186.237 86.8931C186.577 86.5752 187.032 86.4276 187.611 86.4276C188.19 86.4276 188.633 86.5865 188.951 86.8931C189.269 87.211 189.416 87.6424 189.416 88.1988C189.416 88.8006 189.257 89.2661 188.951 89.6067C188.633 89.9473 188.19 90.1063 187.611 90.1063C187.02 90.1177 186.555 89.9473 186.225 89.6067Z" fill="#212C4C"/>
<path d="M210.8 106.025C210.8 106.161 210.766 106.229 210.698 106.229C210.096 106.229 209.619 106.218 209.278 106.195L207.189 106.161L205.179 106.195C204.804 106.218 204.327 106.229 203.725 106.229C203.657 106.229 203.623 106.161 203.623 106.025C203.623 105.889 203.657 105.82 203.725 105.82C204.441 105.82 204.929 105.65 205.179 105.321C205.429 104.98 205.565 104.356 205.565 103.425V98.4175C205.565 97.1685 205.338 96.2375 204.883 95.6357C204.429 95.034 203.725 94.7274 202.749 94.7274C202.192 94.7274 201.624 94.841 201.034 95.0794C200.443 95.3065 199.932 95.6244 199.489 96.0218V103.425C199.489 104.356 199.626 104.98 199.887 105.321C200.148 105.661 200.648 105.82 201.363 105.82C201.431 105.82 201.465 105.889 201.465 106.025C201.465 106.161 201.431 106.229 201.363 106.229C200.761 106.229 200.284 106.218 199.944 106.195L197.854 106.161L195.799 106.195C195.446 106.218 194.981 106.229 194.379 106.229C194.311 106.229 194.277 106.161 194.277 106.025C194.277 105.889 194.311 105.82 194.379 105.82C195.094 105.82 195.583 105.65 195.833 105.321C196.082 104.98 196.219 104.356 196.219 103.425V96.8961C196.219 96.1807 196.128 95.6471 195.958 95.3178C195.787 94.9772 195.515 94.8183 195.14 94.8183C194.742 94.8183 194.186 94.9772 193.471 95.3065H193.402C193.334 95.3065 193.277 95.2497 193.243 95.1362C193.209 95.0226 193.209 94.9545 193.266 94.9318L198.092 92.5701C198.229 92.5247 198.308 92.502 198.331 92.502C198.581 92.502 198.831 92.7518 199.058 93.2514C199.285 93.751 199.433 94.4322 199.478 95.2838C201.079 93.3876 202.839 92.4339 204.759 92.4339C206.008 92.4339 206.996 92.8313 207.734 93.6374C208.461 94.4322 208.824 95.4881 208.824 96.7825V103.447C208.824 104.378 208.96 105.003 209.222 105.344C209.483 105.684 209.982 105.843 210.698 105.843C210.766 105.82 210.8 105.889 210.8 106.025Z" fill="#212C4C"/>
</g>
<defs>
<linearGradient id="paint0_linear" x1="17.5271" y1="91.4049" x2="58.4613" y2="91.4049" gradientUnits="userSpaceOnUse">
<stop stop-color="#CEC067"/>
<stop offset="0.3591" stop-color="#755638"/>
<stop offset="1" stop-color="#FBD690"/>
</linearGradient>
<linearGradient id="paint1_linear" x1="52.6666" y1="91.4653" x2="93.6003" y2="91.4653" gradientUnits="userSpaceOnUse">
<stop stop-color="#CEC067"/>
<stop offset="0.3591" stop-color="#755638"/>
<stop offset="1" stop-color="#FBD690"/>
</linearGradient>
<linearGradient id="paint2_linear" x1="70.2835" y1="61.0487" x2="111.218" y2="61.0487" gradientUnits="userSpaceOnUse">
<stop stop-color="#CEC067"/>
<stop offset="0.3591" stop-color="#755638"/>
<stop offset="1" stop-color="#FBD690"/>
</linearGradient>
<linearGradient id="paint3_linear" x1="52.767" y1="30.5836" x2="93.7012" y2="30.5836" gradientUnits="userSpaceOnUse">
<stop stop-color="#CEC067"/>
<stop offset="0.3591" stop-color="#755638"/>
<stop offset="1" stop-color="#FBD690"/>
</linearGradient>
<linearGradient id="paint4_linear" x1="17.6317" y1="30.56" x2="58.5745" y2="30.56" gradientUnits="userSpaceOnUse">
<stop stop-color="#CEC067"/>
<stop offset="0.3591" stop-color="#755638"/>
<stop offset="1" stop-color="#FBD690"/>
</linearGradient>
<linearGradient id="paint5_linear" x1="0.0173025" y1="60.9435" x2="40.9425" y2="60.9435" gradientUnits="userSpaceOnUse">
<stop stop-color="#CEC067"/>
<stop offset="0.3591" stop-color="#755638"/>
<stop offset="1" stop-color="#FBD690"/>
</linearGradient>
<linearGradient id="paint6_linear" x1="5.13672e-05" y1="81.224" x2="40.8385" y2="81.224" gradientUnits="userSpaceOnUse">
<stop stop-color="#CEC067"/>
<stop offset="0.3591" stop-color="#755638"/>
<stop offset="1" stop-color="#FBD690"/>
</linearGradient>
<linearGradient id="paint7_linear" x1="0.0964801" y1="40.6764" x2="40.9439" y2="40.6764" gradientUnits="userSpaceOnUse">
<stop stop-color="#CEC067"/>
<stop offset="0.3591" stop-color="#755638"/>
<stop offset="1" stop-color="#FBD690"/>
</linearGradient>
<linearGradient id="paint8_linear" x1="35.2529" y1="20.4219" x2="76.1005" y2="20.4219" gradientUnits="userSpaceOnUse">
<stop stop-color="#CEC067"/>
<stop offset="0.3591" stop-color="#755638"/>
<stop offset="1" stop-color="#FBD690"/>
</linearGradient>
<linearGradient id="paint9_linear" x1="70.3513" y1="40.7659" x2="111.199" y2="40.7659" gradientUnits="userSpaceOnUse">
<stop stop-color="#CEC067"/>
<stop offset="0.3591" stop-color="#755638"/>
<stop offset="1" stop-color="#FBD690"/>
</linearGradient>
<linearGradient id="paint10_linear" x1="70.3078" y1="81.349" x2="111.155" y2="81.349" gradientUnits="userSpaceOnUse">
<stop stop-color="#CEC067"/>
<stop offset="0.3591" stop-color="#755638"/>
<stop offset="1" stop-color="#FBD690"/>
</linearGradient>
<linearGradient id="paint11_linear" x1="35.1121" y1="101.576" x2="75.9588" y2="101.576" gradientUnits="userSpaceOnUse">
<stop stop-color="#CEC067"/>
<stop offset="0.3591" stop-color="#755638"/>
<stop offset="1" stop-color="#FBD690"/>
</linearGradient>
<linearGradient id="paint12_linear" x1="2.88392" y1="25.4585" x2="40.8757" y2="25.4585" gradientUnits="userSpaceOnUse">
<stop stop-color="#CEC067"/>
<stop offset="0.3591" stop-color="#755638"/>
<stop offset="1" stop-color="#FBD690"/>
</linearGradient>
<linearGradient id="paint13_linear" x1="20.4554" y1="15.3169" x2="58.4363" y2="15.3169" gradientUnits="userSpaceOnUse">
<stop stop-color="#CEC067"/>
<stop offset="0.3591" stop-color="#755638"/>
<stop offset="1" stop-color="#FBD690"/>
</linearGradient>
<linearGradient id="paint14_linear" x1="52.8586" y1="15.3817" x2="90.8867" y2="15.3817" gradientUnits="userSpaceOnUse">
<stop stop-color="#CEC067"/>
<stop offset="0.3591" stop-color="#755638"/>
<stop offset="1" stop-color="#FBD690"/>
</linearGradient>
<linearGradient id="paint15_linear" x1="70.4263" y1="25.5537" x2="108.436" y2="25.5537" gradientUnits="userSpaceOnUse">
<stop stop-color="#CEC067"/>
<stop offset="0.3591" stop-color="#755638"/>
<stop offset="1" stop-color="#FBD690"/>
</linearGradient>
<linearGradient id="paint16_linear" x1="88.0462" y1="50.9212" x2="108.434" y2="50.9212" gradientUnits="userSpaceOnUse">
<stop stop-color="#CEC067"/>
<stop offset="0.3591" stop-color="#755638"/>
<stop offset="1" stop-color="#FBD690"/>
</linearGradient>
<linearGradient id="paint17_linear" x1="88.0343" y1="71.2119" x2="108.398" y2="71.2119" gradientUnits="userSpaceOnUse">
<stop stop-color="#CEC067"/>
<stop offset="0.3591" stop-color="#755638"/>
<stop offset="1" stop-color="#FBD690"/>
</linearGradient>
<linearGradient id="paint18_linear" x1="70.3442" y1="96.5842" x2="108.349" y2="96.5842" gradientUnits="userSpaceOnUse">
<stop stop-color="#CEC067"/>
<stop offset="0.3591" stop-color="#755638"/>
<stop offset="1" stop-color="#FBD690"/>
</linearGradient>
<linearGradient id="paint19_linear" x1="52.7453" y1="106.686" x2="90.7527" y2="106.686" gradientUnits="userSpaceOnUse">
<stop stop-color="#CEC067"/>
<stop offset="0.3591" stop-color="#755638"/>
<stop offset="1" stop-color="#FBD690"/>
</linearGradient>
<linearGradient id="paint20_linear" x1="37.8632" y1="106.662" x2="73.1772" y2="106.662" gradientUnits="userSpaceOnUse">
<stop stop-color="#CEC067"/>
<stop offset="0.3591" stop-color="#755638"/>
<stop offset="1" stop-color="#FBD690"/>
</linearGradient>
<linearGradient id="paint21_linear" x1="20.318" y1="106.65" x2="58.3042" y2="106.65" gradientUnits="userSpaceOnUse">
<stop stop-color="#CEC067"/>
<stop offset="0.3591" stop-color="#755638"/>
<stop offset="1" stop-color="#FBD690"/>
</linearGradient>
<linearGradient id="paint22_linear" x1="2.76239" y1="96.4497" x2="40.7881" y2="96.4497" gradientUnits="userSpaceOnUse">
<stop stop-color="#CEC067"/>
<stop offset="0.3591" stop-color="#755638"/>
<stop offset="1" stop-color="#FBD690"/>
</linearGradient>
<linearGradient id="paint23_linear" x1="2.74956" y1="71.0215" x2="23.1445" y2="71.0215" gradientUnits="userSpaceOnUse">
<stop stop-color="#CEC067"/>
<stop offset="0.3591" stop-color="#755638"/>
<stop offset="1" stop-color="#FBD690"/>
</linearGradient>
<linearGradient id="paint24_linear" x1="2.81396" y1="50.7607" x2="23.2319" y2="50.7607" gradientUnits="userSpaceOnUse">
<stop stop-color="#CEC067"/>
<stop offset="0.3591" stop-color="#755638"/>
<stop offset="1" stop-color="#FBD690"/>
</linearGradient>
<linearGradient id="paint25_linear" x1="87.9004" y1="86.4303" x2="108.363" y2="86.4303" gradientUnits="userSpaceOnUse">
<stop stop-color="#CEC067"/>
<stop offset="0.3591" stop-color="#755638"/>
<stop offset="1" stop-color="#FBD690"/>
</linearGradient>
<linearGradient id="paint26_linear" x1="105.477" y1="81.3641" x2="108.379" y2="81.3641" gradientUnits="userSpaceOnUse">
<stop stop-color="#CEC067"/>
<stop offset="0.3591" stop-color="#755638"/>
<stop offset="1" stop-color="#FBD690"/>
</linearGradient>
<linearGradient id="paint27_linear" x1="90.6017" y1="96.5634" x2="108.349" y2="96.5634" gradientUnits="userSpaceOnUse">
<stop stop-color="#CEC067"/>
<stop offset="0.3591" stop-color="#755638"/>
<stop offset="1" stop-color="#FBD690"/>
</linearGradient>
<linearGradient id="paint28_linear" x1="73.0117" y1="106.693" x2="90.7512" y2="106.693" gradientUnits="userSpaceOnUse">
<stop stop-color="#CEC067"/>
<stop offset="0.3591" stop-color="#755638"/>
<stop offset="1" stop-color="#FBD690"/>
</linearGradient>
<linearGradient id="paint29_linear" x1="55.3937" y1="116.816" x2="73.1854" y2="116.816" gradientUnits="userSpaceOnUse">
<stop stop-color="#CEC067"/>
<stop offset="0.3591" stop-color="#755638"/>
<stop offset="1" stop-color="#FBD690"/>
</linearGradient>
<linearGradient id="paint30_linear" x1="37.8863" y1="116.771" x2="55.5789" y2="116.771" gradientUnits="userSpaceOnUse">
<stop stop-color="#CEC067"/>
<stop offset="0.3591" stop-color="#755638"/>
<stop offset="1" stop-color="#FBD690"/>
</linearGradient>
<linearGradient id="paint31_linear" x1="20.3534" y1="106.614" x2="38.0287" y2="106.614" gradientUnits="userSpaceOnUse">
<stop stop-color="#CEC067"/>
<stop offset="0.3591" stop-color="#755638"/>
<stop offset="1" stop-color="#FBD690"/>
</linearGradient>
<linearGradient id="paint32_linear" x1="2.77511" y1="86.2749" x2="23.2003" y2="86.2749" gradientUnits="userSpaceOnUse">
<stop stop-color="#CEC067"/>
<stop offset="0.3591" stop-color="#755638"/>
<stop offset="1" stop-color="#FBD690"/>
</linearGradient>
<linearGradient id="paint33_linear" x1="2.77136" y1="96.4405" x2="20.4693" y2="96.4405" gradientUnits="userSpaceOnUse">
<stop stop-color="#CEC067"/>
<stop offset="0.3591" stop-color="#755638"/>
<stop offset="1" stop-color="#FBD690"/>
</linearGradient>
<linearGradient id="paint34_linear" x1="2.7549" y1="81.2013" x2="5.66196" y2="81.2013" gradientUnits="userSpaceOnUse">
<stop stop-color="#CEC067"/>
<stop offset="0.3591" stop-color="#755638"/>
<stop offset="1" stop-color="#FBD690"/>
</linearGradient>
<linearGradient id="paint35_linear" x1="2.79997" y1="60.9059" x2="5.67626" y2="60.9059" gradientUnits="userSpaceOnUse">
<stop stop-color="#CEC067"/>
<stop offset="0.3591" stop-color="#755638"/>
<stop offset="1" stop-color="#FBD690"/>
</linearGradient>
<linearGradient id="paint36_linear" x1="2.83894" y1="40.638" x2="5.74611" y2="40.638" gradientUnits="userSpaceOnUse">
<stop stop-color="#CEC067"/>
<stop offset="0.3591" stop-color="#755638"/>
<stop offset="1" stop-color="#FBD690"/>
</linearGradient>
<linearGradient id="paint37_linear" x1="2.86119" y1="35.5968" x2="23.3417" y2="35.5968" gradientUnits="userSpaceOnUse">
<stop stop-color="#CEC067"/>
<stop offset="0.3591" stop-color="#755638"/>
<stop offset="1" stop-color="#FBD690"/>
</linearGradient>
<linearGradient id="paint38_linear" x1="2.90901" y1="25.4504" x2="20.6221" y2="25.4504" gradientUnits="userSpaceOnUse">
<stop stop-color="#CEC067"/>
<stop offset="0.3591" stop-color="#755638"/>
<stop offset="1" stop-color="#FBD690"/>
</linearGradient>
<linearGradient id="paint39_linear" x1="20.4789" y1="15.3361" x2="38.2018" y2="15.3361" gradientUnits="userSpaceOnUse">
<stop stop-color="#CEC067"/>
<stop offset="0.3591" stop-color="#755638"/>
<stop offset="1" stop-color="#FBD690"/>
</linearGradient>
<linearGradient id="paint40_linear" x1="38.047" y1="5.20768" x2="55.7845" y2="5.20768" gradientUnits="userSpaceOnUse">
<stop stop-color="#CEC067"/>
<stop offset="0.3591" stop-color="#755638"/>
<stop offset="1" stop-color="#FBD690"/>
</linearGradient>
<linearGradient id="paint41_linear" x1="38.0222" y1="15.3634" x2="73.3221" y2="15.3634" gradientUnits="userSpaceOnUse">
<stop stop-color="#CEC067"/>
<stop offset="0.3591" stop-color="#755638"/>
<stop offset="1" stop-color="#FBD690"/>
</linearGradient>
<linearGradient id="paint42_linear" x1="55.5931" y1="5.22755" x2="73.3173" y2="5.22755" gradientUnits="userSpaceOnUse">
<stop stop-color="#CEC067"/>
<stop offset="0.3591" stop-color="#755638"/>
<stop offset="1" stop-color="#FBD690"/>
</linearGradient>
<linearGradient id="paint43_linear" x1="73.1709" y1="15.3898" x2="90.8796" y2="15.3898" gradientUnits="userSpaceOnUse">
<stop stop-color="#CEC067"/>
<stop offset="0.3591" stop-color="#755638"/>
<stop offset="1" stop-color="#FBD690"/>
</linearGradient>
<linearGradient id="paint44_linear" x1="90.7305" y1="25.5439" x2="108.422" y2="25.5439" gradientUnits="userSpaceOnUse">
<stop stop-color="#CEC067"/>
<stop offset="0.3591" stop-color="#755638"/>
<stop offset="1" stop-color="#FBD690"/>
</linearGradient>
<linearGradient id="paint45_linear" x1="87.9772" y1="35.7119" x2="108.417" y2="35.7119" gradientUnits="userSpaceOnUse">
<stop stop-color="#CEC067"/>
<stop offset="0.3591" stop-color="#755638"/>
<stop offset="1" stop-color="#FBD690"/>
</linearGradient>
<linearGradient id="paint46_linear" x1="105.544" y1="40.7889" x2="108.434" y2="40.7889" gradientUnits="userSpaceOnUse">
<stop stop-color="#CEC067"/>
<stop offset="0.3591" stop-color="#755638"/>
<stop offset="1" stop-color="#FBD690"/>
</linearGradient>
<linearGradient id="paint47_linear" x1="105.504" y1="61.0857" x2="108.399" y2="61.0857" gradientUnits="userSpaceOnUse">
<stop stop-color="#CEC067"/>
<stop offset="0.3591" stop-color="#755638"/>
<stop offset="1" stop-color="#FBD690"/>
</linearGradient>
<linearGradient id="paint48_linear" x1="21.8596" y1="87.4006" x2="89.2273" y2="34.7102" gradientUnits="userSpaceOnUse">
<stop stop-color="#CEC067"/>
<stop offset="0.3591" stop-color="#755638"/>
<stop offset="1" stop-color="#FBD690"/>
</linearGradient>
<clipPath id="clip0">
<rect width="276" height="122" fill="white"/>
</clipPath>
</defs>
</svg>
