<svg width="24" height="24" viewBox="0 0 24 24" fill="none" xmlns="http://www.w3.org/2000/svg">
<path d="M20.4025 5H3.59751C3.43906 5.00019 3.28715 5.06351 3.17513 5.17608C3.06311 5.28865 3.00013 5.44126 3 5.60043V6.80832C3 6.86397 3.06008 6.92784 3.10917 6.95367L11.9423 12.0217C11.9649 12.0347 11.9905 12.0414 12.0166 12.0412C12.0432 12.0413 12.0694 12.0341 12.0923 12.0205L20.6585 6.95861C20.7066 6.9316 20.8343 6.86022 20.8822 6.82734C20.9402 6.78766 21 6.75173 21 6.68058V5.60019C20.9998 5.44107 20.9368 5.28852 20.8248 5.176C20.7128 5.06348 20.5609 5.00019 20.4025 5Z" fill="#B29972"/>
<path d="M20.9254 8.62956C20.9024 8.61639 20.8764 8.60954 20.8499 8.6097C20.8234 8.60987 20.7975 8.61704 20.7747 8.6305L15.927 11.4955C15.9077 11.5068 15.8912 11.5223 15.8787 11.5409C15.8661 11.5595 15.8579 11.5807 15.8547 11.603C15.8514 11.6252 15.8532 11.6478 15.8599 11.6693C15.8665 11.6907 15.8779 11.7104 15.8931 11.7268L20.7415 16.9766C20.7553 16.9917 20.7722 17.0038 20.791 17.0121C20.8098 17.0203 20.8301 17.0246 20.8506 17.0245C20.8902 17.0244 20.9282 17.0086 20.9562 16.9805C20.9842 16.9523 20.9999 16.9142 21 16.8744V8.75988C21.0001 8.73349 20.9933 8.70753 20.9802 8.68465C20.9671 8.66176 20.9482 8.64276 20.9254 8.62956Z" fill="#B29972"/>
<path d="M14.5301 12.4575C14.507 12.4324 14.4761 12.4159 14.4425 12.4108C14.4088 12.4058 14.3745 12.4125 14.3451 12.4298L12.4021 13.5783C12.2882 13.6444 12.1592 13.6796 12.0278 13.6805C11.8963 13.6813 11.7669 13.6478 11.6522 13.5833L9.94216 12.602C9.91455 12.5862 9.88266 12.5796 9.85109 12.5832C9.81953 12.5869 9.78994 12.6005 9.7666 12.6221L3.27304 18.6724C3.25602 18.6884 3.24295 18.7082 3.23487 18.7301C3.2268 18.7521 3.22394 18.7756 3.22653 18.7989C3.22912 18.8222 3.23708 18.8445 3.24978 18.8641C3.26248 18.8838 3.27957 18.9001 3.29969 18.9119C3.40068 18.9716 3.49816 19 3.59728 19H20.2304C20.2595 19.0001 20.288 18.9915 20.3123 18.9754C20.3367 18.9594 20.3557 18.9365 20.3672 18.9096C20.3789 18.8829 20.3825 18.8533 20.3776 18.8245C20.3727 18.7958 20.3595 18.7691 20.3396 18.7478L14.5301 12.4575Z" fill="#B29972"/>
<path d="M8.33782 11.9064C8.35502 11.8905 8.36824 11.8706 8.37641 11.8486C8.38458 11.8265 8.38747 11.8029 8.38486 11.7795C8.38224 11.7561 8.37419 11.7337 8.36134 11.714C8.3485 11.6943 8.33124 11.6779 8.31094 11.6662L3.22278 8.74697C3.20007 8.73402 3.17438 8.72728 3.14827 8.72744C3.12216 8.72759 3.09654 8.73463 3.07399 8.74785C3.05143 8.76107 3.03273 8.78 3.01975 8.80276C3.00676 8.82551 2.99995 8.8513 3 8.87753V16.5372C2.99984 16.5665 3.00822 16.5952 3.0241 16.6197C3.03999 16.6442 3.06268 16.6635 3.08938 16.6752C3.11607 16.6869 3.1456 16.6905 3.17429 16.6855C3.20299 16.6805 3.2296 16.6672 3.25083 16.6471L8.33782 11.9064Z" fill="#B29972"/>
</svg>
